<?xml version="1.0" encoding="utf-8"?>
<!-- Generator: Adobe Illustrator 25.0.0, SVG Export Plug-In . SVG Version: 6.00 Build 0)  -->
<svg version="1.1" id="Layer_1" xmlns="http://www.w3.org/2000/svg" xmlns:xlink="http://www.w3.org/1999/xlink" x="0px" y="0px"
	 viewBox="0 0 250 50" style="enable-background:new 0 0 250 50;" xml:space="preserve">
<style type="text/css">
	.st0{fill:#DD5958;}
	.st1{fill:#6D6D6C;}
</style>
<path class="st0" d="M51.23,49.82H39.75c-6.38,0-11.55-5.17-11.55-11.55l0-11.48h11.34c6.45,0,11.69,5.23,11.68,11.69L51.23,49.82z"
	/>
<path class="st0" d="M39.63,23.03H28.2l0-11.66C28.21,5.09,33.3,0,39.58,0l0.23,0c6.31,0,11.42,5.12,11.42,11.43v0
	C51.23,17.83,46.04,23.03,39.63,23.03z"/>
<path class="st0" d="M11.52,49.82L11.52,49.82C5.16,49.82,0,44.66,0,38.3l0,0c0-6.35,5.15-11.5,11.5-11.5h11.52l0,11.53
	C23.03,44.67,17.88,49.82,11.52,49.82z"/>
<path class="st0" d="M23.03,23.03H11.7C5.24,23.03,0,17.79,0,11.33L0,0l11.33,0c6.46,0,11.7,5.24,11.7,11.7L23.03,23.03z"/>
<g>
	<path class="st1" d="M58.65,28.3v-1.06h1.96c0.1,0.8,0.96,1.38,2.07,1.38c1.15,0.01,1.98-0.53,1.98-1.28
		c0-2.09-6.19,0.03-6.19-4.08c0-1.91,1.64-3.23,4.01-3.23c1.96,0,3.6,0.8,4,1.95v1.06h-1.95c-0.08-0.71-0.9-1.2-1.98-1.2
		s-1.84,0.49-1.84,1.19c0,2.05,6.18-0.05,6.18,4.01c0.01,2-1.75,3.4-4.28,3.4C60.73,30.43,59.1,29.56,58.65,28.3z"/>
	<path class="st1" d="M79.61,20.36v2.09h-2.88v7.64h-2.44v-7.64h-2.88v-2.09H79.61z"/>
	<path class="st1" d="M89.78,20.36l2.8,8.4v1.32h-2.14l-0.5-1.57h-3.85l-0.5,1.57h-2.14v-1.32l2.8-8.4H89.78z M86.56,26.79h2.91
		L88,22.44L86.56,26.79z"/>
	<path class="st1" d="M106.76,23.66c0,1.27-0.81,2.33-1.99,2.76l1.72,2.69v0.98h-2.07l-1.96-3.29h-1.88v3.29h-2.44v-9.73h4.77
		C105.18,20.36,106.76,21.71,106.76,23.66z M100.57,25.12h1.91c1.05,0,1.86-0.57,1.86-1.46c0-0.94-0.81-1.49-1.86-1.49h-1.91V25.12z
		"/>
	<path class="st1" d="M119.54,20.36v2.09h-2.88v7.64h-2.44v-7.64h-2.88v-2.09H119.54z"/>
	<path class="st1" d="M141.57,23.66c0,1.27-0.8,2.33-1.99,2.76l1.72,2.69v0.98h-2.07l-1.96-3.29h-1.88v3.29h-2.44v-9.73h4.77
		C139.99,20.36,141.57,21.71,141.57,23.66z M135.38,25.12h1.91c1.05,0,1.85-0.57,1.85-1.46c0-0.94-0.8-1.49-1.85-1.49h-1.91V25.12z"
		/>
	<path class="st1" d="M147.33,20.36h2.44v9.73h-2.44V20.36z"/>
	<path class="st1" d="M155.57,28.3v-1.06h1.96c0.1,0.8,0.96,1.38,2.07,1.38c1.15,0.01,1.98-0.53,1.98-1.28
		c0-2.09-6.19,0.03-6.19-4.08c0-1.91,1.64-3.23,4.01-3.23c1.96,0,3.6,0.8,4,1.95v1.06h-1.95c-0.08-0.71-0.9-1.2-1.98-1.2
		c-1.08,0-1.84,0.49-1.84,1.19c0,2.05,6.18-0.05,6.18,4.01c0.01,2-1.75,3.4-4.28,3.4C157.65,30.43,156.02,29.56,155.57,28.3z"/>
	<path class="st1" d="M169.45,30.09v-9.73h6.85v1.95h-4.5v1.95h3.96v1.69h-3.96v2.18h4.64v1.95H169.45z"/>
	<path class="st1" d="M192.66,27.35v2.74h-2.35v-9.73h4.45c2.36,0,4.01,1.43,4.01,3.49c0,2.06-1.65,3.49-4.04,3.49H192.66z
		 M192.66,22.18v3.36h1.64c1.2,0,2.05-0.7,2.03-1.68c0-1-0.83-1.68-2.03-1.68H192.66z"/>
	<path class="st1" d="M206.7,20.36V28h3.96v2.09h-6.4v-9.73H206.7z"/>
	<path class="st1" d="M224.21,20.36v5.69c0,2.59-1.8,4.38-4.41,4.38s-4.41-1.79-4.41-4.38v-5.69h2.44v5.61
		c0,1.2,0.71,2.35,1.96,2.37c1.19,0,1.98-1,1.98-2.37v-5.61H224.21z"/>
	<path class="st1" d="M229.87,28.3v-1.06h1.96c0.1,0.8,0.96,1.38,2.07,1.38c1.15,0.01,1.98-0.53,1.98-1.28
		c0-2.09-6.19,0.03-6.19-4.08c0-1.91,1.64-3.23,4.01-3.23c1.96,0,3.6,0.8,4,1.95v1.06h-1.95c-0.08-0.71-0.9-1.2-1.98-1.2
		c-1.08,0-1.84,0.49-1.84,1.19c0,2.05,6.18-0.05,6.18,4.01c0.01,2-1.75,3.4-4.28,3.4C231.94,30.43,230.32,29.56,229.87,28.3z"/>
</g>
</svg>
