<svg id="Layer_1" data-name="Layer 1" xmlns="http://www.w3.org/2000/svg" xmlns:xlink="http://www.w3.org/1999/xlink" viewBox="0 0 802.21 580.33"><defs><style>.cls-1,.cls-10,.cls-12,.cls-30,.cls-5{fill:none;}.cls-2{fill:#f6babb;}.cls-3{fill:#fbd7bb;}.cls-4{fill:#1593b9;}.cls-5{stroke:#0a6568;stroke-width:4px;}.cls-10,.cls-12,.cls-30,.cls-5{stroke-miterlimit:10;}.cls-6{fill:#015289;}.cls-7{fill:#d8d2d2;}.cls-8{fill:#fe6a3c;}.cls-9{fill:#fcac19;}.cls-10{stroke:#303030;stroke-width:6px;}.cls-11{fill:#feac1a;}.cls-12,.cls-30{stroke:#fff;}.cls-12{stroke-width:3.46px;}.cls-13{fill:#679bd3;}.cls-14{fill:url(#linear-gradient);}.cls-15{clip-path:url(#clip-path);}.cls-16{fill:url(#linear-gradient-2);}.cls-17{clip-path:url(#clip-path-2);}.cls-18{fill:url(#linear-gradient-3);}.cls-19{fill:#ff9e12;}.cls-20{clip-path:url(#clip-path-3);}.cls-21{fill:#545454;}.cls-22{clip-path:url(#clip-path-4);}.cls-23{fill:url(#linear-gradient-4);}.cls-24{clip-path:url(#clip-path-5);}.cls-25{fill:url(#linear-gradient-5);}.cls-26{clip-path:url(#clip-path-6);}.cls-27{fill:url(#linear-gradient-6);}.cls-28{clip-path:url(#clip-path-7);}.cls-29{fill:url(#linear-gradient-7);}.cls-30{stroke-width:2.42px;}.cls-31{fill:#272622;}.cls-32{fill:#edae7a;}.cls-33{fill:#7b715d;}.cls-34{fill:#272623;}.cls-35{fill:#b3ddff;}</style><linearGradient id="linear-gradient" x1="-457.54" y1="881.47" x2="-456.91" y2="881.47" gradientTransform="matrix(224.18, 0, 0, -224.18, 103145.8, 198012.04)" gradientUnits="userSpaceOnUse"><stop offset="0" stop-color="#ffd7d3"/><stop offset="1" stop-color="#67e1d3"/></linearGradient><clipPath id="clip-path" transform="translate(-51.1 -22.55)"><path class="cls-1" d="M584.13,418.73v58.41H720.05l-85.71-99.49S584.13,419,584.13,418.73"/></clipPath><linearGradient id="linear-gradient-2" x1="-457.5" y1="881.57" x2="-456.87" y2="881.57" gradientTransform="matrix(193.33, 0, 0, -193.33, 89041.38, 170864.66)" gradientUnits="userSpaceOnUse"><stop offset="0" stop-color="#67d7d3"/><stop offset="1" stop-color="#6757d3"/></linearGradient><clipPath id="clip-path-2" transform="translate(-51.1 -22.55)"><path class="cls-1" d="M541.44,411.83v65.31H677.35L591.65,365.9s-50.21,46.22-50.21,45.93"/></clipPath><linearGradient id="linear-gradient-3" x1="-457.51" y1="881.39" x2="-456.88" y2="881.39" gradientTransform="matrix(216.15, 0, 0, -216.15, 99431.07, 190933.38)" xlink:href="#linear-gradient-2"/><clipPath id="clip-path-3" transform="translate(-51.1 -22.55)"><path class="cls-1" d="M653.64,527.88a8.49,8.49,0,0,0,0,17H844.8a8.49,8.49,0,0,0,0-17Z"/></clipPath><clipPath id="clip-path-4" transform="translate(-51.1 -22.55)"><path class="cls-1" d="M783.37,447.25l-20.89,61a4.46,4.46,0,0,0,2.64,5.64,4.31,4.31,0,0,0,5.51-2.71l20.89-61a4.46,4.46,0,0,0-2.65-5.64,4.3,4.3,0,0,0-5.5,2.72"/></clipPath><linearGradient id="linear-gradient-4" x1="-444.95" y1="884.34" x2="-444.32" y2="884.34" gradientTransform="matrix(0, -14.69, -14.69, 0, 13764.98, -6050.74)" xlink:href="#linear-gradient-2"/><clipPath id="clip-path-5" transform="translate(-51.1 -22.55)"><path class="cls-1" d="M801,390.5l-19.79,57.79a6.17,6.17,0,0,0,3.67,7.8,6,6,0,0,0,7.62-3.75l19.79-57.79a6.18,6.18,0,0,0-3.67-7.81,5.86,5.86,0,0,0-2-.34,6,6,0,0,0-5.66,4.1"/></clipPath><linearGradient id="linear-gradient-5" x1="-448.25" y1="885.27" x2="-447.62" y2="885.27" gradientTransform="matrix(0, -19.94, -19.94, 0, 18448.6, -8509.9)" xlink:href="#linear-gradient-2"/><clipPath id="clip-path-6" transform="translate(-51.1 -22.55)"><path class="cls-1" d="M760,510.68l.49,13a1.59,1.59,0,0,0,2.61.94l8.13-10.44a1.74,1.74,0,0,0-.76-2.71l-7.83-2.81a1.92,1.92,0,0,0-.66-.12,2,2,0,0,0-2,2.12"/></clipPath><linearGradient id="linear-gradient-6" x1="-456.4" y1="873.7" x2="-455.77" y2="873.7" gradientTransform="matrix(-24.97, 0, 0, 24.97, -10624.62, -21301.52)" xlink:href="#linear-gradient-2"/><clipPath id="clip-path-7" transform="translate(-51.1 -22.55)"><path class="cls-1" d="M761.34,524.07l-1.1,3.21a.68.68,0,0,0,.41.86.66.66,0,0,0,.85-.41l1.1-3.21a.68.68,0,0,0-.41-.87.57.57,0,0,0-.22,0,.68.68,0,0,0-.63.46"/></clipPath><linearGradient id="linear-gradient-7" x1="-372.73" y1="890.32" x2="-372.1" y2="890.32" gradientTransform="matrix(0, -2.17, -2.17, 0, 2691.53, -281.42)" xlink:href="#linear-gradient-2"/></defs><title>biz_tal_tiz_s_k_uchun_ishlamoq</title><path class="cls-2" d="M677.33,602.88H403.67c-156,0-282.52-126.5-282.51-282.53l0-273.68H394.85c156,0,282.52,126.5,282.5,282.54Z" transform="translate(-51.1 -22.55)"/><path class="cls-3" d="M665,116.32H618.44V68.86a46.31,46.31,0,0,1,46.31-46.31h.94a46.51,46.51,0,0,1,46.51,46.52h0A47.24,47.24,0,0,1,665,116.32" transform="translate(-51.1 -22.55)"/><path class="cls-3" d="M99.18,592.89h0a48,48,0,1,1-.08-96.06h48.08v48.08a48,48,0,0,1-48,48" transform="translate(-51.1 -22.55)"/><path class="cls-4" d="M560.7,521.44H177.18A20.15,20.15,0,0,1,157,501.29V283.77a20.15,20.15,0,0,1,20.15-20.15H560.7a20.15,20.15,0,0,1,20.15,20.15V501.29a20.15,20.15,0,0,1-20.15,20.15" transform="translate(-51.1 -22.55)"/><rect class="cls-5" x="105.93" y="241.07" width="423.82" height="257.82" rx="20.15"/><rect class="cls-6" x="126.99" y="258.99" width="381.69" height="221.97"/><rect class="cls-7" x="126.99" y="258.99" width="381.69" height="13.05"/><rect class="cls-7" x="141.93" y="284.62" width="3.14" height="181.1"/><rect class="cls-8" x="161.73" y="290.28" width="51.88" height="3.46"/><rect class="cls-9" x="172.42" y="303.48" width="51.88" height="3.46"/><rect class="cls-7" x="231.53" y="363.85" width="138.65" height="3.46"/><rect class="cls-9" x="231.53" y="414.16" width="138.65" height="3.46"/><rect class="cls-7" x="231.53" y="378.94" width="49.99" height="3.46"/><rect class="cls-7" x="211.41" y="399.06" width="49.99" height="3.46"/><rect class="cls-7" x="172.42" y="363.85" width="51.88" height="3.46"/><rect class="cls-8" x="172.42" y="378.94" width="51.88" height="3.46"/><rect class="cls-7" x="180.6" y="323.61" width="34.9" height="3.46"/><rect class="cls-7" x="180.6" y="429.25" width="34.9" height="3.46"/><rect class="cls-8" x="180.6" y="443.71" width="34.9" height="3.46"/><rect class="cls-7" x="371.76" y="323.61" width="34.9" height="3.46"/><rect class="cls-7" x="235.31" y="303.48" width="105.96" height="3.46"/><rect class="cls-7" x="229.96" y="323.61" width="111.3" height="3.46"/><rect class="cls-9" x="179.65" y="343.73" width="111.3" height="3.46"/><rect class="cls-4" x="66.47" y="500.3" width="500.54" height="10.69"/><path class="cls-6" d="M602.39,549.26H133.29a15.72,15.72,0,0,1-15.72-15.72H618.11a15.72,15.72,0,0,1-15.72,15.72" transform="translate(-51.1 -22.55)"/><path class="cls-8" d="M372.89,138.72H510.6a7.57,7.57,0,0,1,7.55,7.54v78a7.57,7.57,0,0,1-7.55,7.54H412.78L390.5,250l1-18.24H372.89a7.56,7.56,0,0,1-7.54-7.54v-78a7.56,7.56,0,0,1,7.54-7.54" transform="translate(-51.1 -22.55)"/><path class="cls-10" d="M402.35,208.87a206.47,206.47,0,0,1-1.82-43.81,3.17,3.17,0,0,1,.41-1.66,3.23,3.23,0,0,1,2.37-1.06c4.83-.68,10.46-.72,13.76,2.88a13.17,13.17,0,0,1,2.87,6.61,11,11,0,0,1-.42,6.74c-1.76,3.69-6.37,4.9-10.43,5.35a72,72,0,0,1-8.8.42" transform="translate(-51.1 -22.55)"/><path class="cls-10" d="M468.38,208.87a207.14,207.14,0,0,1-1.83-43.81,3.28,3.28,0,0,1,.42-1.66,3.23,3.23,0,0,1,2.36-1.06c4.84-.68,10.47-.72,13.77,2.88a13.07,13.07,0,0,1,2.86,6.61,11,11,0,0,1-.41,6.74c-1.76,3.69-6.37,4.9-10.44,5.35a71.83,71.83,0,0,1-8.8.42" transform="translate(-51.1 -22.55)"/><path class="cls-10" d="M429.43,161.58q-.35,22.9.31,45.82" transform="translate(-51.1 -22.55)"/><path class="cls-10" d="M453.22,162.44l-.33,44.31" transform="translate(-51.1 -22.55)"/><path class="cls-10" d="M427.73,185q14.25.08,28.47-.53" transform="translate(-51.1 -22.55)"/><path class="cls-10" d="M387.27,178.45c-2.21.86-3.15,3.39-4.68,5.19-1.32,1.56-3.13,2.6-4.63,4a1,1,0,0,0-.32.43c-.14.45.32.82.72,1.07a49.21,49.21,0,0,1,11.54,9.8" transform="translate(-51.1 -22.55)"/><path class="cls-10" d="M493.9,177.56a26.18,26.18,0,0,0,6.68,4.84c1.89.95,4,1.72,5.31,3.35a7.51,7.51,0,0,1-2.78,2.11,22,22,0,0,0-7.7,7.39" transform="translate(-51.1 -22.55)"/><path class="cls-11" d="M328.89,189H224.63a5.73,5.73,0,0,0-5.71,5.71v59a5.73,5.73,0,0,0,5.71,5.71h74.06l16.87,13.81-.77-13.81h14.1a5.73,5.73,0,0,0,5.71-5.71v-59a5.73,5.73,0,0,0-5.71-5.71" transform="translate(-51.1 -22.55)"/><path class="cls-12" d="M244.71,210.6a153.47,153.47,0,0,0-1,27.19" transform="translate(-51.1 -22.55)"/><path class="cls-12" d="M257.76,210.6a153.47,153.47,0,0,0-1,27.19" transform="translate(-51.1 -22.55)"/><path class="cls-12" d="M243.45,223.49q6.66-.08,13.32,0" transform="translate(-51.1 -22.55)"/><line class="cls-12" x1="213.04" y1="188.76" x2="229.69" y2="188.76"/><path class="cls-12" d="M273.17,237.12c-1.19-7.76.3-17.05.41-24.91" transform="translate(-51.1 -22.55)"/><path class="cls-12" d="M284.13,236.38q.86-12.23,1.4-24.47a.35.35,0,0,1,.66-.14l4.9,10c.05.1.12.22.24.23s.21-.13.26-.24q2.42-4.92,4.34-10a.35.35,0,0,1,.68.12v14.62a37.84,37.84,0,0,0,.26,5.43,34.15,34.15,0,0,1,.72,5" transform="translate(-51.1 -22.55)"/><path class="cls-12" d="M302.44,210.36A103,103,0,0,1,303.53,231c-.09,1.84-.2,3.8.71,5.4,3.14,0,6.28.15,9.4.44" transform="translate(-51.1 -22.55)"/><path class="cls-12" d="M316.13,216.05a60.87,60.87,0,0,0,8,7.07,6,6,0,0,1-1.74,2.12,18,18,0,0,0-4.66,7.22" transform="translate(-51.1 -22.55)"/><path class="cls-12" d="M238.86,216.86a4,4,0,0,1-1.19,2.63,29.53,29.53,0,0,1-7.21,5.57q3.53,4.24,7.44,8.14" transform="translate(-51.1 -22.55)"/><path class="cls-13" d="M125.89,398c0,6.53,4.89,11.83,10.89,11.83a10.67,10.67,0,0,0,2.41-.29v28.71a4.57,4.57,0,0,1-4.36,4.74h-12a12.5,12.5,0,0,0,.42-3.26c0-6.54-4.86-11.83-10.86-11.83s-10.89,5.29-10.89,11.83a12.51,12.51,0,0,0,.43,3.26H79.52a4.56,4.56,0,0,1-4.36-4.74V415.73A10,10,0,0,1,70,417.17c-6,0-10.88-5.29-10.88-11.82S64,393.52,70,393.52A10,10,0,0,1,75.16,395v-19.6a4.57,4.57,0,0,1,4.36-4.74H92.13a12.46,12.46,0,0,1-1.49-6c0-6.52,4.87-11.82,10.87-11.82s10.89,5.3,10.89,11.82a12.46,12.46,0,0,1-1.49,6h23.92a4.57,4.57,0,0,1,4.36,4.74v11.05a10.67,10.67,0,0,0-2.41-.29c-6,0-10.89,5.31-10.89,11.84" transform="translate(-51.1 -22.55)"/><path class="cls-13" d="M748.19,488.9H542.67a12.6,12.6,0,0,1-12.59-12.6V337.37a12.6,12.6,0,0,1,12.59-12.6H748.19a12.6,12.6,0,0,1,12.6,12.6V476.3a12.6,12.6,0,0,1-12.6,12.6" transform="translate(-51.1 -22.55)"/><rect class="cls-14" x="574.95" y="302.72" width="140.97" height="208.23" transform="matrix(0, -1, 1, 0, 186.41, 1029.04)"/><g class="cls-15"><rect class="cls-16" x="602.23" y="359.36" width="99.72" height="136.09" transform="translate(172.5 1056.23) rotate(-89.9)"/></g><g class="cls-17"><rect class="cls-18" x="553.66" y="353.47" width="111.47" height="136.11" transform="translate(135.75 1007.66) rotate(-89.9)"/></g><path class="cls-19" d="M734.93,368.84A17.82,17.82,0,1,1,717.11,351a17.82,17.82,0,0,1,17.82,17.82" transform="translate(-51.1 -22.55)"/><g class="cls-20"><rect class="cls-21" x="740.56" y="432.29" width="17.33" height="208.17" transform="translate(160.49 1262.14) rotate(-89.9)"/></g><g class="cls-22"><rect class="cls-23" x="738.71" y="453.35" width="76.58" height="52.27" transform="translate(15.45 1030.45) rotate(-70.59)"/></g><g class="cls-24"><rect class="cls-25" x="757.87" y="394.35" width="77.84" height="54.9" transform="translate(83.08 1010.6) rotate(-70.59)"/></g><g class="cls-26"><rect class="cls-27" x="756.02" y="508.54" width="19.92" height="16.93" transform="translate(-27.29 1045.11) rotate(-70.59)"/></g><g class="cls-28"><rect class="cls-29" x="758.79" y="523.94" width="5.26" height="4" transform="translate(-38.76 1046.77) rotate(-70.59)"/></g><path class="cls-11" d="M544,116.32H284.31a7.58,7.58,0,0,1-7.55-7.55V78a7.58,7.58,0,0,1,7.55-7.55H544A7.57,7.57,0,0,1,551.55,78v30.81a7.57,7.57,0,0,1-7.54,7.55" transform="translate(-51.1 -22.55)"/><rect class="cls-30" x="232.57" y="52.9" width="210.65" height="34.58" rx="2.51"/><circle class="cls-30" cx="469.32" cy="65.79" r="7.23"/><line class="cls-30" x1="473.41" y1="71.76" x2="481.59" y2="83.08"/><path class="cls-31" d="M702.85,298.64l-2.94,1.23s-1.07-5.76,1.29-9.79c1.36-2.34,5.62-7.17,12.6-5.29,5.86,1.58,8,5.35,8,5.35l-2.91,1.48a16.76,16.76,0,0,0-6-3.71c-2.48-.7-7.46.65-9.4,4.87a10.86,10.86,0,0,0-.6,5.86" transform="translate(-51.1 -22.55)"/><path class="cls-31" d="M699.91,299.87s-16.95,6.84-17.76,8.23c-.94,1.59,1.55,10.34,2.1,11.7s5.87,14.07,7.65,16.75,4.47,7.94,6.79,7.58,33.22-14.49,33.22-14.49,23.39-10.14,23.75-11.13S753,306,749.78,299c-3.84-8.21-8.38-15.46-10.12-16.28s-17.89,7.4-17.89,7.4" transform="translate(-51.1 -22.55)"/><path class="cls-32" d="M700.59,283.23c-.89-.79-6-4.64-7.37-5.87-.59-.52-2.25-1.94-4.06-3.5l11.9,16.55h0s0,0,0-.06,0,0,0,0h0l0,0a8.43,8.43,0,0,1-.53-2,4.74,4.74,0,0,1,1.05-3.37c.43-.49-.22-.89-1.11-1.69" transform="translate(-51.1 -22.55)"/><path class="cls-32" d="M652.16,222.41s7.75,13.1,9,15.37,7.5,11.52,8.14,12.36,4.49,7,5.32,8,7.33,9.35,8.72,10.65c.8.75,3.46,3,5.86,5.1Z" transform="translate(-51.1 -22.55)"/><path class="cls-32" d="M714.8,289.48a18.11,18.11,0,0,0-1.48-2,4.27,4.27,0,0,0-1.92-1.13c-.44-.06-.93,0-.94.72,0,.48-.92.25-1.18.06-.48-.37-2.29-.45-1.79,1.13,0,0,.06.7-.38.44s-2.48-.36-1.83,1.41a1.64,1.64,0,0,0-2,1.87,9.77,9.77,0,0,0,.51,2.18c1.18,1.39,2.66,3,3.25,3,.9.07,1.4-.17,1.51-.91s.73-.14.82-.17c.1.15,1.27.4,1.33-.6,0-.82.64-.93,1.07-.61a1.27,1.27,0,0,0,1.84-1.44c-.2-1.35,1.22,0,1.7-1.3a2.53,2.53,0,0,0-.5-2.68" transform="translate(-51.1 -22.55)"/><path class="cls-32" d="M710.91,282.83c-2.19-1-3.07-1.74-4.18-1.5s-2,1.14-2.59-.29-14.63-22.6-16.4-24.93-9.07-12.8-9.92-13.75-3.49-8.79-4.8-12.65-5.51-14.24-7-15.53-6.58-2.39-6.58-2.39l-6.63,0,.41,4.64s1.83,8.73,2,9,2,5.56,2,5.56l44,59.36h0s3.72-5,7.19-5c0,0,2.73,1.22,4.53.49s.2-1.94-2-2.93" transform="translate(-51.1 -22.55)"/><path class="cls-32" d="M669.83,202.58l5.23-.78s15.73-9.28,20.68-12.92,9-6.44,12.11-8.65a95.68,95.68,0,0,0,14.58-13.5c4.11-5,8.52-10.81,8.52-10.81s.54-1,1.08-.81a15.65,15.65,0,0,0,7,1c3-.42,4.3.27,3.83-2.32,0,0-.44-.6.1-.78s.84-.32.64-1-.83-1.43.13-1.55,1.19-1.33.4-2.13-.83-1-.39-1.46.3-1.73-1.43-2-2.1.4-3-.64a3.18,3.18,0,0,0-4.14-.87c-2,.88-5.19,2.34-5.47,3.78s.32,3-.6,3.63S712.86,162,710.8,163.4s-9.86,7.32-12.53,9.19-6,5-6.86,5.36-9.77,3.62-12.89,4.79-11.52,4.58-12.14,5-4.28,2.12-4.21,3.38-1.2,4.17,1.34,5.8,4.22,3.11,5.23,3.84a2.76,2.76,0,0,1,1.09,1.85" transform="translate(-51.1 -22.55)"/><path class="cls-32" d="M655.26,193.88s-1.35-4.81-1.14-7.49,0-4.78.63-4.86a55.22,55.22,0,0,0,6.55-2,7.39,7.39,0,0,1,3.19-1.11c1.84-.29,2.79-1.65,1.8-3.21s-1.07-2.42-.7-3.07,1.22-1.16.83-1.82-.7-.21-.83-.68.88-.11.59-1.13c-.2-.73-1.06-.67-1.46-.84s-1.18-.66-1.06-1.35,3-1.09,3.16-1.9-.24-1.21-1.46-2.1-3.4-2.22-4-3.1-1-1.48-1.38-1.88a.72.72,0,0,1-.27-1,2.71,2.71,0,0,0,.28-2.33,16.36,16.36,0,0,0-1.22-3.5,12.74,12.74,0,0,0-2.92-3.79l-3.4-1.4-3.88,4-6.63,10.43-.17,11.3,2.16,5.59-.18,1.49s-.16,1.1-.4,2.38-.64,3.13-.91,4.39-.7,2.43-.8,3a19.2,19.2,0,0,0,.75,3.51s-2.19.22,1.46,1,4.54,1,5.31,1.19a40,40,0,0,0,4.29.43l.8.2L655,193Z" transform="translate(-51.1 -22.55)"/><path class="cls-33" d="M659.79,141.77c.35,2.27-1.49,4-3.21,4.64s-1.45.13-1.19,1.91c.29,2-1.06,4.93-2.82,6.67s-1.33,1.86-1.27,2.27,3.18,7.7,3.57,9.25c.13.54.47,1.78-1.84,2.26a1.45,1.45,0,0,1-1.66-1.23,40.16,40.16,0,0,0-.76-5.63c-.31-1.16-1.28-2.66-2.2-2.86s-1.89-.28-2.89,1.79.93,5.54,1.48,6.41.66,6.57-.11,9.13-2.11,2.94-4.62,1.53a34.51,34.51,0,0,1-7.19-5.92,25.68,25.68,0,0,1-4.36-5.86,16.67,16.67,0,0,1-2.4-7.91c-.22-4.22,3.63-6.58,4.33-7.2a91.26,91.26,0,0,1,13.09-8.27c4.94-2.3,5-3.77,5.7-5.22S659,136.82,659.79,141.77Z" transform="translate(-51.1 -22.55)"/><path class="cls-34" d="M659,210.76s2.83,8.07,3.6,11.34,4.65,25,4.65,25,4.52-11.81,3.41-17.83a140.89,140.89,0,0,0-3.29-13.8c-.33-.82-3.6-7-3.6-7l-1.28-3.2-5.51,2Z" transform="translate(-51.1 -22.55)"/><path class="cls-35" d="M629,266.23a1.33,1.33,0,0,0,0,.19c-.1.81-.91,6.6-2.3,6.76s-7.87.26-9.14-.91c-1.12-1-7.93-7.55-9.5-9.18a1.08,1.08,0,0,1-.34-.79c0-1.55-.8-6.6-.49-7.42a12.15,12.15,0,0,1,.88-1.6,10.83,10.83,0,0,1,.91-1.46c.73-.91,10.1-13.12,10.44-13.79s4.08-7.44,4.66-8.85,3.2-7.48,3.73-9.68,1.95-7.57,2.42-9.17,3-8.27,3.52-9.27,4.46-8.6,5.75-10a8.41,8.41,0,0,0,2.29-3.61v0a2.18,2.18,0,0,1,2-1.67,12.49,12.49,0,0,1,3.4.21c1.9.48,5.36,2,6.37,3.48s1.47,3,2.41,2.67c.77-.28,7.24-3.31,9.47-4.35a1.2,1.2,0,0,1,1.36.22,31.22,31.22,0,0,1,4.38,5.06,65.69,65.69,0,0,1,4.38,8c.29.85-11.52,6.73-15.05,8.47a1.23,1.23,0,0,0-.61,1.52c.82,2.28,2.69,7.59,2.44,7.93a5.79,5.79,0,0,0-1.91,3.16c-.76,2.47-4,11.81-5.14,13.78a34.92,34.92,0,0,1-7.13,8.75c-3.74,3.26-12.5,11.38-13.39,12.6s-5,6.64-5.25,7.38-.45,1.33-.53,1.58" transform="translate(-51.1 -22.55)"/><path class="cls-34" d="M567.5,407.38s-3.83.29-7.72-3.42-7.44-10.07-7.44-10.07l-1.76,1.29-5.06-5.05s5.14-5.7,8.07-6.86,2-1.85,1.08-2.78-5-5.32-5-5.32,20.25-20.68,25.94-25.26,10.55-9.3,14.36-11.74,8.76-5.26,10.31-5.51l.44-.07s-.48-6.6-.63-11.59,0-20.4,0-20.4-28.4,17.33-33.17,19.29-7.77,2.76-16.64.53S492,307.06,492,307.06s.2,1.69-2,3.56-4.76,3.67-5.52,6.08a13.85,13.85,0,0,0-.85,5.09c0,1.46-.56,3.27-1.54,3.49s-2,.51-2.6-1.12-2-7.56-.18-12.42,2.54-6.83,2.54-6.83l-2.14-.29,1.07-6.91A29.31,29.31,0,0,1,491.74,300s1.92.46,2.16-1.23.9-7.13.9-7.13,27.82,2.66,40.05,5.68a241.44,241.44,0,0,1,23.59,7.27s17.89-16.3,22.54-19.84,12.17-9,12.79-9.58,1.24-8.21,4.77-13.59a21.37,21.37,0,0,1,9.17-7.55s-.92,3.38,1.85,7.27,7.52,8.6,10.43,10.11,3,2,4.8,1.78a2.83,2.83,0,0,0,2.63-2.26c.12-.84.48-3.38,1-3.85s-1.06,9.38-1.06,9.38L620,323.35s-1.83,13.59-6.59,19.43-30.25,24.69-30.25,24.69l-22.81,19.2s-.55.26.17,1.07.93,4.26,1.17,5.24.43,4.85,2.05,6.54,4.06,3.68,4.47,5.23a2.87,2.87,0,0,1-.69,2.63" transform="translate(-51.1 -22.55)"/></svg>