<?xml version="1.0" encoding="utf-8"?>
<!-- Generator: Adobe Illustrator 25.0.0, SVG Export Plug-In . SVG Version: 6.00 Build 0)  -->
<svg version="1.1" id="Layer_1" xmlns="http://www.w3.org/2000/svg" xmlns:xlink="http://www.w3.org/1999/xlink" x="0px" y="0px"
	 viewBox="0 0 500 500" style="enable-background:new 0 0 500 500;" xml:space="preserve">
<style type="text/css">
	.st0{display:none;}
	.st1{fill:#F7BBBB;}
	.st2{fill:#FCD7BB;}
	.st3{fill:none;stroke:#679CD4;stroke-width:5.1899;stroke-linecap:round;stroke-linejoin:round;stroke-miterlimit:10;}
	.st4{fill:#AECFED;stroke:#679CD4;stroke-width:3.3842;stroke-linejoin:round;stroke-miterlimit:10;}
	.st5{fill:#9FC5E0;}
	.st6{fill:#AECFED;}
	.st7{fill:#9BC1DD;}
	.st8{fill:#8DB4D1;}
	.st9{fill:#4EBCC1;}
	.st10{fill:#396C83;}
	.st11{fill:none;stroke:#396C83;stroke-width:6.9211;stroke-miterlimit:10;}
	.st12{fill:#6CA1AF;}
	.st13{fill:#ACD4ED;}
	.st14{fill:#2D4B65;}
	.st15{fill:#6A8189;}
	.st16{fill:#679CD4;stroke:#689CD3;stroke-width:0.75;stroke-miterlimit:10;}
	.st17{fill:#252416;}
	.st18{fill:#FDDD82;}
	.st19{fill:#E0AA2E;}
	.st20{fill:#BF7A46;}
	.st21{fill:#FECB49;}
	.st22{fill:#F5AEB1;}
	.st23{fill:#FBD0B1;}
	.st24{fill:#F3E0BF;}
	.st25{fill:#1D4D59;}
	.st26{fill:#265C75;}
	.st27{fill:#3F3F3F;}
	.st28{fill:#BCD2E4;}
	.st29{fill:#E7EEF5;}
	.st30{fill:#ABD6F3;}
	.st31{fill:#82CBD0;}
	.st32{fill:#3A6E84;}
</style>
<g id="back" class="st0">
</g>
<g id="Layer_9">
	<path class="st1" d="M375.4,483.8H193.2C89.3,483.8,5.1,399.6,5.1,295.7V113.5h182.2c103.9,0,188.1,84.2,188.1,188.1L375.4,483.8z"
		/>
	<path class="st2" d="M455.5,176.8h-38.4v-39.2c0-21.1,17.1-38.2,38.2-38.2h0.8c21.2,0,38.4,17.2,38.4,38.4l0,0
		C494.5,159.4,477,176.8,455.5,176.8z"/>
	<path class="st2" d="M45.7,438.6L45.7,438.6c-18.2,0-32.9-14.7-32.9-32.9l0,0c0-18.2,14.7-32.9,32.9-32.9h32.9v32.9
		C78.6,423.9,63.9,438.6,45.7,438.6z"/>
	<g>
		<polyline class="st3" points="153.1,103 142.6,113.5 153,124 		"/>
		<polyline class="st3" points="184.4,103 195,113.5 184.5,124 		"/>
		<line class="st3" x1="172" y1="96.9" x2="164.3" y2="130.1"/>
	</g>
	<g>
		<path class="st4" d="M256.9,60.6l3,3.1c0,0-14.1,24.2-18.6,25.6c-4.6,1.4-9.4-1.6-7.1-6C236.5,78.9,256.9,60.6,256.9,60.6z"/>
		<path class="st4" d="M230.7,92c-6-1.5-7.9,7.4-11.7,7.5c0,0,7.5,3.3,12.1,1.5C235.8,99.2,236,93.4,230.7,92z"/>
		<circle class="st5" cx="215" cy="72.6" r="4.6"/>
		<circle class="st6" cx="213.5" cy="86.6" r="4.6"/>
		<circle class="st7" cx="225.4" cy="62.9" r="4.6"/>
		<circle class="st8" cx="239.4" cy="61.2" r="4.6"/>
	</g>
</g>
<g id="armchair">
	<path class="st9" d="M297,335.8h118.2v-9.7c0-5.7-4.6-10.3-10.3-10.3h-97.6c-5.7,0-10.3,4.6-10.3,10.3L297,335.8L297,335.8z"/>
	<path class="st10" d="M417.5,342.8H296.7c-1.9,0-3.5-1.6-3.5-3.5l0,0c0-1.9,1.6-3.5,3.5-3.5h120.8c1.9,0,3.5,1.6,3.5,3.5l0,0
		C421,341.3,419.4,342.8,417.5,342.8z"/>
	<path class="st11" d="M415.2,339.2c9.5-0.2,21-11.4,17.4-34.3s-13.5-25.8-14.4-40.3"/>
	<path class="st9" d="M357.2,271.3h65.7c2.5,0,4.6-1.9,4.7-4.4l3.2-55.8c0.2-2.7-2-5-4.7-5h-65.7c-2.5,0-4.6,1.9-4.7,4.4l-3.2,55.8
		C352.4,269,354.5,271.3,357.2,271.3z"/>
	<path class="st10" d="M363.1,352.2h-7.6c-3.8,0-6.8-3.1-6.8-6.8v-2.8H370v2.8C370,349.1,366.9,352.2,363.1,352.2z"/>
	<rect x="355.4" y="351.3" class="st10" width="6.9" height="16.5"/>
	<rect x="353.1" y="367.1" class="st12" width="11.8" height="40.8"/>
	<polyline class="st13" points="353.1,398.8 359,407.9 364.9,399.5 407.7,425.2 404.1,425.8 359,407.9 314.9,425.5 312.1,424.9 
		353.1,398.8 	"/>
	<ellipse class="st14" cx="405.9" cy="429.4" rx="4.4" ry="5.1"/>
	<ellipse class="st14" cx="312.7" cy="429.4" rx="4.4" ry="5.1"/>
</g>
<g id="Layer_7">
	<polygon class="st15" points="191,247.2 163.7,459.9 151.3,459.9 172.2,247.2 	"/>
	<polygon class="st15" points="235.9,247.2 263.3,459.9 275.7,459.9 254.8,247.2 	"/>
	<g>
		<path class="st16" d="M323.1,56.4c0,0.2-0.2,0.4-0.5,0.4s-0.5-0.2-0.6-0.4l-1.3-4.6c-0.3-0.8-0.2-1.5,0.6-2.1
			c3.4-2.7,3.9-5,3.9-7.2c0-1.6-1-3.2-2.7-3.2c-2.8,0-4.3,3.1-4.6,4.3c-0.1,0.2-0.2,0.4-0.5,0.4s-0.4-0.2-0.4-0.4c0-2,1.4-5.9,6-5.9
			c4,0,5.7,2.3,5.7,5.1c0,2.6-0.9,4.5-4.7,8c-0.4,0.4-0.8,0.8-0.8,1.5v4.1H323.1z M324.7,61.2c0,0.8-0.5,1.7-1.8,1.7
			c-1.4,0-1.8-0.9-1.8-1.7s0.5-1.7,1.8-1.7C324.1,59.4,324.7,60.3,324.7,61.2z"/>
	</g>
</g>
<g id="body">
	<path id="hair_2_" class="st17" d="M313,77.7c-5.1,6.5-8.8,34,2.9,44.4c11.7,10.4,46.6,31.4,48.2,35.8s14.4,22.8,14.4,22.8
		s22.8-2.2,24.1-23.4c1.3-21.2-15.7-25.6-15.7-25.6s11.9-14.4-1.5-28.9s-29.9-8.4-29.9-8.4s3.7-19.2-16.9-25.8
		C338.4,68.4,324.4,63.1,313,77.7z"/>
	<g>
		<path class="st18" d="M377.5,187.9c0.7,12.4,2,34,6.2,43.1s10.8,19.5,12,25c1.2,5.4,1.1,15,1.1,15s-16.2-4.6-28.2-4.5
			s-23.5,3.8-23.5,3.8s-22.3-9.8-28.5-10.4s4.5-25.6,4.3-27.9s-13.4-1.6-13.4-1.6l36.6-30.9L377.5,187.9z"/>
		<path class="st18" d="M352.6,121.5c-5.3,0.8-25.8,12.8-29,19.3c-1.7,3.3-19.2,68.3-19.2,68.3l-29.5,1.3c0,0,4.3,19.6,6.6,19.4
			c2.2-0.1,29.2,1.2,32.3,0s7.6-9.1,7.6-9.1s0.7,12.1,3.2,13.2s44,2.1,48.2-2.3s8.1-46.4,6.9-66.6s0-24.6-4.7-28.6
			C370.2,132.5,352.6,121.5,352.6,121.5z"/>
		<path class="st19" d="M275,210.4c-0.9,5.2,3.3,18.3,6.5,19.4l1.5-4l-3-13L275,210.4z"/>
		<path class="st20" d="M331.2,143.3c-3.8,6.5-6.4,14.2-6.3,22s3.7,34.1,3.8,43.1c0.4,33.5-3.6,53.8-3.6,53.8l6.4,2.4
			c0,0,7.8-87.4,8.2-101.6s4.1-24.3,4.1-24.3L331.2,143.3z"/>
		<path class="st19" d="M323.4,217.6c-1.8-0.4-3,4.6-2.8,6.4c0.1,1.8,1.6,8.6,3.4,9.5c1.8,1,5.8,0,5.8,0l-2.7-14.1L323.4,217.6z"/>
		<path class="st21" d="M334.4,130.9c-5.1,3.4-9.5,7.2-10.9,9.9c-1.7,3.3-19.2,68.3-19.2,68.3l-29.5,1.3c0,0,3,3.4,4.2,7.7
			c1.4,5.4,2.4,11.7,2.4,11.7c2.2-0.1,29.2,1.2,32.3,0c2.2-0.8,5.1-5,6.6-7.4c-0.3-10-1-36.1,0.1-47.7c1.6-15.9,4.7-26.6,8-34
			c0.4-0.9-0.6-3.7-0.6-3.7S332.9,132.7,334.4,130.9z"/>
		<path class="st21" d="M375.8,144.6c-3.3-6.1-10.4-10.9-17.8,0s-4.7,72.9-4.7,72.9s-7.5-0.8-12.8,0s-17.2,0-17.2,0s3.8,2.2,3.1,8
			c-0.7,5.7-1.9,8.4-1.9,8.4s43.1,2.9,48.2-1.9c5.1-4.7,6.5-34.1,5.3-60.5S375.8,144.6,375.8,144.6z"/>
		<path class="st22" d="M341.7,110.1c-0.3-2.1,1.2-5.1-0.1-6.2c-1.3-1.1-7.3-0.9-7.6-0.7c-0.3,0.2-10.3-0.8-12.9-9.4
			c-2.7-8.6-4-10.5-4.5-11.3c-0.6-0.8-2.1-1.3-2.1-1.3s-1.4,7.4-1.1,10.8c0.3,2.7-0.4,7.9-0.6,10.1c-0.1,0.6,0.3,1.1,0.8,1.2
			l1.2,0.4c0.6,0.2,1.1,0.8,1.1,1.4v0.7c0,0.4,0.1,0.8,0.3,1.2c0.8,1.5,3.2,5.6,4.8,6.3c2,0.9,6.5-3.1,9.2-0.7
			c2.4,2.2,9.1,12.5,10.6,14.8c0.5,2.5-9.9,14.9-9.7,16.7c0.2,1.8,3,4.4,5.8,2.9s6.5-7.5,6.5-7.5l7.1-15.1
			C350.3,124.4,342,112.2,341.7,110.1z"/>
		<path class="st21" d="M359.3,125.9c-4,2.3-11.9,12.4-12,13.8s-5.9-0.7-5.9-1.7s10.8-16.3,10.8-16.3L359.3,125.9z"/>
	</g>
	<path class="st19" d="M287,226.9"/>
</g>
<g id="hands">
	<path class="st23" d="M326.2,221.9c-3.2-1-9-1.5-11-1.5s-30.1-1.7-32.9-1.9s-3.6,1.4-0.3,2.7c3.3,1.3,13.2,2.1,14.9,3.5
		c1.8,1.3,10.8,4.6,14.4,4.6s8.1-0.3,9.4,0s4.8,1.2,4.8,1.2s0.9-4.6,0.8-6.3C326.3,223.6,326.2,221.9,326.2,221.9z"/>
	<path class="st23" d="M278,215.4c-3.1-0.1-14.8-0.9-20.3,0.9c-5.4,1.8,4.6,11.6,4.6,11.6s5.3-1.5,6.9-2.7s8.8-2.7,10.8-2.4
		c0,0-0.4-1.6-0.5-2.3C279.2,218.5,278,215.4,278,215.4z"/>
</g>
<g id="foots">
	<path class="st24" d="M277.1,415.4c1.8,7.5,4.5,21.5,3.7,22.9c-0.8,1.3-16.2,12-16.2,12s1.2,2.7,3.3,2.8c2.1,0.1,18.3-7.4,21.4-9.6
		s4.6-1.9,3.5-9.2c-1.1-7.3-2.1-20.7-2.1-20.7L277.1,415.4z"/>
	<path class="st24" d="M217.6,349.4c-2.1,4.3-12,21.6-12,21.6l-21.8,2.7c0,0,1.2,5.2,3.1,5.2c1.9,0,26.5,1.1,27.9,0
		s14.1-25.2,14.1-25.2L217.6,349.4z"/>
	<path class="st25" d="M370,318.9c-11.3-0.3-79.6-8.6-82.4-5.8s4.3,33.9,4.7,56.8s0.1,46.4,0.1,46.4l-18.1,0.9
		c0,0-6.2-61.7-8.1-74.8s-5.7-34.9-6.3-45.6c-0.5-10.8,6.4-28.4,6.4-28.4l44.6,8l36.7,30.6L370,318.9z"/>
	<path class="st26" d="M396.8,270.9c0.9,6.5,1.8,35.8-10.7,44.6c-12.5,8.8-37.4,3.7-65.5-11.8c-28.2-15.5-45.1-26.7-52.5-23.6
		s-8.8,13.7-7.9,21.4s-30.3,55.8-30.3,55.8l-13.7-7.8c0,0,23.4-83.2,33.7-92.5c10.3-9.3,51.2-2.3,65.7,2.3
		c14.5,4.7,27.1,8.6,32.2,10.1c1.6,0.5,1.4-4.4,24.8-3.4C395.9,266.9,396.8,270.9,396.8,270.9z"/>
	<path class="st27" d="M217,375.7c-0.7,5.4-0.1,9.2-2,10.5s-40.9-3.8-43.8-7.7c-2.9-3.8,12.9-5.1,16.5-5.6s-4.6,3.1,4.1,4.4
		C200.5,378.6,217,375.7,217,375.7z"/>
	<path class="st27" d="M269.1,446.4c-2.8,2-3.4,4.4,0,3.4s23.9-11.9,24.1-12.8s4.1,6.6,3.8,9.8c-0.4,3.2-28.3,12.2-37.1,12.9
		c-8.7,0.7-11.7,0.1-7.3-3.6C256.9,452.4,269.1,446.4,269.1,446.4z"/>
</g>
<g id="Notebook">
	<path class="st28" d="M294.8,238.3H175.3c-1.4,0-2.5-1.1-2.5-2.5v-0.9c0-1.4,1.1-2.5,2.5-2.5h122v3.4
		C297.3,237.2,296.2,238.3,294.8,238.3z"/>
	<path class="st29" d="M262.5,232.5H164l-15.5-64.3c-0.5-2,0.6-3.6,2.4-3.6h91.8c1.8,0,3.7,1.6,4.2,3.6L262.5,232.5z"/>
	<path class="st29" d="M177,238.3h-8.6c-1.7,0-3.3-1.4-3.7-3l-1-4.5h11.6L177,238.3z"/>
	<path class="st29" d="M252.6,238.3h8.6c1.7,0,2.7-1.4,2.2-3l-1.2-4.5h-11.6L252.6,238.3z"/>
	<ellipse transform="matrix(0.975 -0.222 0.222 0.975 -38.8281 49.9768)" class="st28" cx="202.9" cy="197.7" rx="4.5" ry="5.2"/>
</g>
<g id="table">
	<polygon class="st30" points="361.3,247.2 333.9,459.9 321.6,459.9 342.5,247.2 	"/>
	<polygon class="st30" points="421.6,247.2 449,459.9 461.4,459.9 440.4,247.2 	"/>
	<rect x="137.5" y="238.7" class="st31" width="180.5" height="11.5"/>
	<rect x="318" y="238.7" class="st32" width="146.4" height="11.5"/>
</g>
</svg>
