<?xml version="1.0" encoding="utf-8"?>
<!-- Generator: Adobe Illustrator 25.0.0, SVG Export Plug-In . SVG Version: 6.00 Build 0)  -->
<svg version="1.1" id="Layer_1" xmlns="http://www.w3.org/2000/svg" xmlns:xlink="http://www.w3.org/1999/xlink" x="0px" y="0px"
	 viewBox="0 0 250 50" style="enable-background:new 0 0 250 50;" xml:space="preserve">
<style type="text/css">
	.st0{fill:#F08829;}
	.st1{fill:#FFFFFF;}
	.st2{font-family:'Octarine-Bold';}
	.st3{font-size:13.0367px;}
	.st4{letter-spacing:3;}
</style>
<path class="st0" d="M51.41,50H39.89c-6.4,0-11.59-5.19-11.59-11.59l0-11.52h11.38c6.48,0,11.73,5.25,11.73,11.73L51.41,50z"/>
<path class="st0" d="M39.77,23.11H28.3l0-11.7C28.31,5.11,33.42,0,39.72,0l0.23,0c6.33,0,11.46,5.13,11.46,11.47v0
	C51.41,17.9,46.2,23.11,39.77,23.11z"/>
<path class="st0" d="M11.56,50L11.56,50C5.18,50,0,44.82,0,38.43l0,0c0-6.38,5.17-11.54,11.55-11.54h11.57l0,11.57
	C23.11,44.83,17.94,50,11.56,50z"/>
<path class="st0" d="M23.11,23.11H11.74C5.26,23.11,0,17.85,0,11.37L0,0l11.37,0c6.48,0,11.74,5.26,11.74,11.74L23.11,23.11z"/>
<text transform="matrix(1 0 0 1 61.2817 29.8477)" class="st1 st2 st3 st4">Start Rise Plus</text>
</svg>
