<?xml version="1.0" encoding="utf-8"?>
<!-- Generator: Adobe Illustrator 25.0.0, SVG Export Plug-In . SVG Version: 6.00 Build 0)  -->
<svg version="1.1" id="Layer_1" xmlns="http://www.w3.org/2000/svg" xmlns:xlink="http://www.w3.org/1999/xlink" x="0px" y="0px"
	 viewBox="0 0 250 50" style="enable-background:new 0 0 250 50;" xml:space="preserve">
<style type="text/css">
	.st0{fill:#F0872C;}
	.st1{fill:#FFFFFF;}
</style>
<path class="st0" d="M50.98,50H39.45c-6.4,0-11.59-5.19-11.59-11.59l0-11.52h11.38c6.48,0,11.73,5.25,11.73,11.73L50.98,50z"/>
<path class="st0" d="M39.33,23.11H27.87l0-11.7C27.87,5.11,32.98,0,39.28,0l0.23,0c6.33,0,11.46,5.13,11.46,11.47v0
	C50.98,17.9,45.76,23.11,39.33,23.11z"/>
<path class="st0" d="M12.17,49.93L12.17,49.93c-6.39,0-11.57-5.18-11.56-11.57v0c0-6.38,5.17-11.54,11.55-11.54h11.57l0,11.57
	C23.71,44.76,18.54,49.93,12.17,49.93z"/>
<path class="st0" d="M23.67,23.11H12.3c-6.48,0-11.74-5.26-11.74-11.74L0.56,0l11.37,0c6.48,0,11.74,5.26,11.74,11.74L23.67,23.11z"
	/>
<g>
	<path class="st1" d="M57.22,29.22V28.1h2.06c0.1,0.84,1,1.44,2.17,1.44c1.2,0.01,2.07-0.56,2.07-1.34c0-2.19-6.49,0.03-6.49-4.28
		c0-2,1.72-3.39,4.2-3.39c2.06,0,3.77,0.84,4.19,2.04v1.12h-2.04c-0.09-0.74-0.94-1.26-2.07-1.26s-1.93,0.51-1.93,1.24
		c0,2.15,6.48-0.06,6.48,4.2c0.01,2.1-1.83,3.56-4.49,3.56C59.39,31.45,57.69,30.54,57.22,29.22z"/>
	<path class="st1" d="M79.17,20.9v2.19h-3.02v8.01H73.6v-8.01h-3.02V20.9H79.17z"/>
	<path class="st1" d="M89.82,20.9l2.93,8.81v1.39h-2.24l-0.53-1.64h-4.03l-0.53,1.64h-2.25v-1.39l2.93-8.81H89.82z M86.45,27.63
		h3.05l-1.53-4.56L86.45,27.63z"/>
	<path class="st1" d="M107.62,24.36c0,1.33-0.84,2.44-2.09,2.89l1.8,2.82v1.03h-2.17l-2.06-3.45h-1.97v3.45h-2.56V20.9h5
		C105.96,20.9,107.62,22.31,107.62,24.36z M101.13,25.89h2c1.1,0,1.94-0.6,1.94-1.53c0-0.99-0.84-1.56-1.94-1.56h-2V25.89z"/>
	<path class="st1" d="M121,20.9v2.19h-3.02v8.01h-2.56v-8.01h-3.02V20.9H121z"/>
	<path class="st1" d="M144.08,24.36c0,1.33-0.84,2.44-2.09,2.89l1.8,2.82v1.03h-2.17l-2.06-3.45h-1.97v3.45h-2.56V20.9h5
		C142.42,20.9,144.08,22.31,144.08,24.36z M137.59,25.89h2c1.1,0,1.94-0.6,1.94-1.53c0-0.99-0.84-1.56-1.94-1.56h-2V25.89z"/>
	<path class="st1" d="M150.11,20.9h2.56v10.19h-2.56V20.9z"/>
	<path class="st1" d="M158.74,29.22V28.1h2.06c0.1,0.84,1,1.44,2.17,1.44c1.2,0.01,2.07-0.56,2.07-1.34c0-2.19-6.49,0.03-6.49-4.28
		c0-2,1.72-3.39,4.2-3.39c2.06,0,3.77,0.84,4.19,2.04v1.12h-2.04c-0.09-0.74-0.94-1.26-2.07-1.26s-1.93,0.51-1.93,1.24
		c0,2.15,6.48-0.06,6.48,4.2c0.01,2.1-1.83,3.56-4.49,3.56C160.91,31.45,159.21,30.54,158.74,29.22z"/>
	<path class="st1" d="M173.28,31.09V20.9h7.18v2.04h-4.72v2.04h4.15v1.77h-4.15v2.29h4.86v2.04H173.28z"/>
	<path class="st1" d="M197.59,28.22v2.87h-2.46V20.9h4.66c2.47,0,4.2,1.5,4.2,3.66c0,2.16-1.73,3.66-4.23,3.66H197.59z M197.59,22.8
		v3.52h1.71c1.26,0,2.14-0.73,2.13-1.76c0-1.04-0.87-1.76-2.13-1.76H197.59z"/>
	<path class="st1" d="M212.3,20.9v8.01h4.15v2.19h-6.71V20.9H212.3z"/>
	<path class="st1" d="M230.64,20.9v5.96c0,2.72-1.89,4.59-4.62,4.59c-2.73,0-4.62-1.87-4.62-4.59V20.9h2.56v5.88
		c0,1.26,0.74,2.46,2.06,2.49c1.24,0,2.07-1.04,2.07-2.49V20.9H230.64z"/>
	<path class="st1" d="M236.57,29.22V28.1h2.06c0.1,0.84,1,1.44,2.17,1.44c1.2,0.01,2.07-0.56,2.07-1.34c0-2.19-6.49,0.03-6.49-4.28
		c0-2,1.72-3.39,4.2-3.39c2.06,0,3.77,0.84,4.19,2.04v1.12h-2.04c-0.09-0.74-0.94-1.26-2.07-1.26s-1.93,0.51-1.93,1.24
		c0,2.15,6.48-0.06,6.48,4.2c0.01,2.1-1.83,3.56-4.49,3.56C238.74,31.45,237.04,30.54,236.57,29.22z"/>
</g>
</svg>
