<?xml version="1.0" encoding="utf-8"?>
<!-- Generator: Adobe Illustrator 25.0.0, SVG Export Plug-In . SVG Version: 6.00 Build 0)  -->
<svg version="1.1" xmlns="http://www.w3.org/2000/svg" xmlns:xlink="http://www.w3.org/1999/xlink" x="0px" y="0px"
	 viewBox="0 0 500 500" style="enable-background:new 0 0 500 500;" xml:space="preserve">
<style type="text/css">
	.st0{display:none;opacity:0.5;fill:#F4A9CB;}
	.st1{display:none;opacity:0.8;fill:#FFFFFF;}
	.st2{fill:#FCC86A;}
	.st3{fill:#CEE5F8;}
	.st4{fill:#B5D8F1;}
	.st5{fill:#2F3B4C;}
	.st6{fill:#35475E;}
	.st7{fill:#B5BAC5;}
	.st8{fill:#FBD747;}
	.st9{fill:#394E5C;}
	.st10{fill:#F8F9F8;}
	.st11{fill:#EBF0F4;}
	.st12{fill:#D5DEDE;}
	.st13{fill:#FFFFFF;}
	.st14{fill:#9FD5DD;}
	.st15{fill:#EE734B;}
	.st16{fill:#EDECED;}
	.st17{fill:#D6D3D3;}
	.st18{fill:#CECBCB;}
	.st19{fill:#D2EBF3;}
	.st20{fill:#FDCC68;}
	.st21{fill:#BCE1E8;}
	.st22{fill:#484660;}
	.st23{fill:#737197;}
	.st24{fill:#FAB214;}
	.st25{fill:#5C5B7F;}
	.st26{fill:#F9CFE4;}
	.st27{fill:#846EAF;}
	.st28{fill:none;stroke:#846EAF;stroke-width:0.3817;stroke-miterlimit:10;}
	.st29{fill:none;stroke:#846EAF;stroke-width:0.3817;stroke-miterlimit:10;stroke-dasharray:3.6269,3.6269;}
	.st30{fill:none;stroke:#846EAF;stroke-width:0.3817;stroke-miterlimit:10;stroke-dasharray:3.7292,3.7292;}
	.st31{fill:#83CFEC;}
	.st32{fill:#1C5882;}
	.st33{fill:#856DAE;}
	.st34{fill:#F8F8FC;}
	.st35{fill:#EDEBF7;}
	.st36{fill:#9ACFAF;}
	.st37{fill:#E599C2;}
	.st38{fill:#FAF7FC;}
	.st39{fill:#ED73A9;}
	.st40{fill:#AD4F98;}
	.st41{fill:#F298B5;}
	.st42{fill:#00B0C8;}
	.st43{fill:#3F2875;}
	.st44{fill:#DFDAEE;}
	.st45{fill:url(#SVGID_1_);}
	.st46{fill:#ED72A9;}
	.st47{fill:#C95186;}
	.st48{fill:#EAA2C5;}
	.st49{fill:#FCC120;}
	.st50{fill:#FBD0BA;}
	.st51{fill:#FBD0B9;}
	.st52{fill:#FFFEFF;}
	.st53{fill:#20234A;}
	.st54{fill:#343947;}
	.st55{fill:#373745;}
	.st56{fill:none;stroke:#3B3B47;stroke-width:0.4646;stroke-miterlimit:10;}
	.st57{fill:#DFE4F0;}
	.st58{fill:#B5B9C3;}
	.st59{fill:#ADB3B8;}
	.st60{fill:#E8D2BB;}
	.st61{fill:#3B3835;}
	.st62{fill:#5CAD9D;}
	.st63{font-family:'MicrosoftYaHei-Bold';}
	.st64{font-size:18.9849px;}
	.st65{fill:#5FB1A6;}
	.st66{fill:#13110C;}
	.st67{font-size:14.1754px;}
	.st68{font-size:11.8994px;}
	.st69{fill:#37363C;}
	.st70{fill:#F28D18;}
	.st71{font-size:8.1593px;}
	.st72{fill:#2B2D67;}
	.st73{fill:#22244E;}
	.st74{fill:#FABE80;}
	.st75{fill:#E5963A;}
	.st76{fill:#F49C00;}
	.st77{fill:#E97D03;}
	.st78{fill:#333A5E;}
	.st79{fill:#ABC8EA;}
	.st80{fill:#C4DBF3;}
	.st81{fill:#332C72;}
	.st82{fill:#373537;}
	.st83{fill:#B6C8CD;}
	.st84{fill:#9FB2B6;}
	.st85{fill:#FDDB8C;}
	.st86{fill:#45413F;}
	.st87{fill:#ADADAD;}
	.st88{fill:#727272;}
	.st89{fill:#2E3A5D;}
	.st90{fill:#FBE5C9;}
	.st91{fill:#3A3552;}
	.st92{fill:#3A3753;}
	.st93{fill:#2F327B;}
	.st94{fill:#B6C1D7;}
</style>
<g id="Layer_10">
	<path class="st0" d="M201.3,105.2c48.3-17.4,100.8,51.1,132.1,62.1c31.3,11.1,82.2-8.8,106.4,11.1c24.2,19.9,45.9,85.5,30.3,114.6
		c-15.6,29.1-34.4,43.8-30.3,66.8c4.1,23.1-86.8,53.2-132.4,34.8c-45.6-18.4-107.2-29.6-127.8-25.7s-34.6,25.1-90.9,6.7
		S34,254.2,58.5,214.5s71.3-35.1,93.4-49.1C174,151.5,151.9,123,201.3,105.2z"/>
	<path class="st1" d="M135.5,145.9c13.4-25.1,83.3-40.2,114.6-21.7s49.7,43.5,83.2,29c33.5-14.5,81,12.6,95.8,30.5
		s40.5,61.9,30.9,101.1s-1.7,30.7,0,52.2c1.7,21.5-34,63.2-75,49.8s-124.7-4.3-151.9-1.1c-67,7.8-96.8-51.9-145.4-50.8
		s-84.9-36.5-58.2-75.1s68.3-20.7,94.1-47.2S115,184.4,135.5,145.9z"/>
	<ellipse class="st2" cx="267.7" cy="375" rx="232.3" ry="9.3"/>
</g>
<g id="Layer_4">
	<path class="st3" d="M17,259.2c0,0-7.9-17.6,3-35.8s26.1-20.9,37.3-21.2c11.2-0.3,27.1,6.4,33,15.8c5.9,9.4,5.9,9.4,5.9,9.4
		s10.2-10.3,25.6-7.1c12.1,2.5,20.2,8.3,25,17.8s2.7,18.5,2.7,18.5s15.2-1.5,25.2,11.2c10,12.7,4.2,28.8,4.2,28.8s-7,15.5-22.8,17.6
		c-15.8,2.1-133.8,0-133.8,0S1.5,310.2,0,286c0,0,1.1-17.1,10.8-23.2C20.5,256.7,17,259.2,17,259.2z"/>
	<path class="st4" d="M19.4,264.9c0,0-7.1-15.8,2.7-32.2s23.5-18.8,33.6-19.1s24.4,5.7,29.6,14.2c5.3,8.5,5.3,8.5,5.3,8.5
		s9.1-9.3,23.1-6.4c10.9,2.2,18.2,7.5,22.5,16c4.4,8.5,2.5,16.7,2.5,16.7s13.6-1.4,22.7,10.1c9,11.5,3.8,25.9,3.8,25.9
		s-6.3,13.9-20.5,15.8s-120.4,0-120.4,0s-18.8-3.5-20.2-25.4c0,0,1-15.4,9.7-20.9C22.6,262.6,19.4,264.9,19.4,264.9z"/>
	<rect x="50.1" y="295.3" class="st5" width="79.2" height="74.7"/>
	<path class="st6" d="M125.3,341.7H54c-5.8,0-10.5-4.7-10.5-10.5v-5.6c0-5.8,4.7-10.5,10.5-10.5h71.3c5.8,0,10.5,4.7,10.5,10.5v5.6
		C135.8,337,131.1,341.7,125.3,341.7z"/>
	<path class="st6" d="M125.3,373.7H54c-5.8,0-10.5-4.7-10.5-10.5v-5.6c0-5.8,4.7-10.5,10.5-10.5h71.3c5.8,0,10.5,4.7,10.5,10.5v5.6
		C135.8,369,131.1,373.7,125.3,373.7z"/>
	<path class="st6" d="M125.3,310.9H54c-5.8,0-10.5-4.7-10.5-10.5v-5.6c0-5.8,4.7-10.5,10.5-10.5h71.3c5.8,0,10.5,4.7,10.5,10.5v5.6
		C135.8,306.2,131.1,310.9,125.3,310.9z"/>
	<path class="st7" d="M65.7,304.4L65.7,304.4c-0.8,0-1.5-0.7-1.5-1.5v-10.5c0-0.8,0.7-1.5,1.5-1.5l0,0c0.8,0,1.5,0.7,1.5,1.5v10.5
		C67.2,303.7,66.6,304.4,65.7,304.4z"/>
	<path class="st7" d="M58.4,304.4L58.4,304.4c-0.8,0-1.5-0.7-1.5-1.5v-10.5c0-0.8,0.7-1.5,1.5-1.5h0c0.8,0,1.5,0.7,1.5,1.5v10.5
		C59.9,303.7,59.2,304.4,58.4,304.4z"/>
	<path class="st7" d="M51.2,304.4L51.2,304.4c-0.8,0-1.5-0.7-1.5-1.5v-10.5c0-0.8,0.7-1.5,1.5-1.5l0,0c0.8,0,1.5,0.7,1.5,1.5v10.5
		C52.8,303.7,52.1,304.4,51.2,304.4z"/>
	<path class="st7" d="M72.6,304.4L72.6,304.4c-0.8,0-1.5-0.7-1.5-1.5v-10.5c0-0.8,0.7-1.5,1.5-1.5h0c0.8,0,1.5,0.7,1.5,1.5v10.5
		C74.2,303.7,73.5,304.4,72.6,304.4z"/>
	<path class="st7" d="M58.4,367L58.4,367c-0.8,0-1.5-0.7-1.5-1.5V355c0-0.8,0.7-1.5,1.5-1.5h0c0.8,0,1.5,0.7,1.5,1.5v10.5
		C59.9,366.3,59.2,367,58.4,367z"/>
	<path class="st7" d="M51.2,367L51.2,367c-0.8,0-1.5-0.7-1.5-1.5V355c0-0.8,0.7-1.5,1.5-1.5l0,0c0.8,0,1.5,0.7,1.5,1.5v10.5
		C52.8,366.3,52.1,367,51.2,367z"/>
	<path class="st7" d="M72.6,367L72.6,367c-0.8,0-1.5-0.7-1.5-1.5V355c0-0.8,0.7-1.5,1.5-1.5h0c0.8,0,1.5,0.7,1.5,1.5v10.5
		C74.2,366.3,73.5,367,72.6,367z"/>
	<path class="st7" d="M72.6,335.7L72.6,335.7c-0.8,0-1.5-0.7-1.5-1.5v-10.5c0-0.8,0.7-1.5,1.5-1.5h0c0.8,0,1.5,0.7,1.5,1.5v10.5
		C74.2,335,73.5,335.7,72.6,335.7z"/>
	<path class="st7" d="M65.7,367L65.7,367c-0.8,0-1.5-0.7-1.5-1.5V355c0-0.8,0.7-1.5,1.5-1.5l0,0c0.8,0,1.5,0.7,1.5,1.5v10.5
		C67.2,366.3,66.6,367,65.7,367z"/>
	<path class="st7" d="M65.7,335.7L65.7,335.7c-0.8,0-1.5-0.7-1.5-1.5v-10.5c0-0.8,0.7-1.5,1.5-1.5l0,0c0.8,0,1.5,0.7,1.5,1.5v10.5
		C67.2,335,66.6,335.7,65.7,335.7z"/>
	<path class="st7" d="M58.4,335.7L58.4,335.7c-0.8,0-1.5-0.7-1.5-1.5v-10.5c0-0.8,0.7-1.5,1.5-1.5h0c0.8,0,1.5,0.7,1.5,1.5v10.5
		C59.9,335,59.2,335.7,58.4,335.7z"/>
	<path class="st7" d="M51.2,335.7L51.2,335.7c-0.8,0-1.5-0.7-1.5-1.5v-10.5c0-0.8,0.7-1.5,1.5-1.5l0,0c0.8,0,1.5,0.7,1.5,1.5v10.5
		C52.8,335,52.1,335.7,51.2,335.7z"/>
	<circle class="st8" cx="126.5" cy="296.8" r="3.6"/>
	<circle class="st8" cx="126.5" cy="361.1" r="3.6"/>
</g>
<g id="Layer_2">
	<g>
		<path class="st9" d="M404.4,312.2H148.7V166.1c0-5.8,4.7-10.5,10.5-10.5H394c5.8,0,10.5,4.7,10.5,10.5V312.2z"/>
		<path class="st10" d="M393,340.9H160.1c-6.3,0-11.5-5.1-11.5-11.5v-17.3h255.7v17.3C404.4,335.8,399.3,340.9,393,340.9z"/>
		<rect x="159.5" y="166.9" class="st11" width="234.2" height="130.9"/>
		<path class="st11" d="M303,340.9h-53.2l-3.2,19.5c-0.7,4.1-3.2,7.6-6.9,9.4l-8,4h89.7l-7.3-4.2c-3-1.7-5.2-4.6-6-8L303,340.9z"/>
		<polygon class="st12" points="304.5,346.9 303,340.9 249.8,340.9 248.8,346.9 		"/>
	</g>
	<rect x="171.8" y="140.6" class="st13" width="144.5" height="157.2"/>
	<rect x="171.8" y="140.6" class="st14" width="144.5" height="7"/>
	<rect x="171.8" y="144.1" class="st15" width="12" height="3.5"/>
	<rect x="183.9" y="144.1" class="st16" width="30.5" height="3.5"/>
	<rect x="171.8" y="147.6" class="st16" width="144.5" height="6.6"/>
	<rect x="184.3" y="149.3" class="st13" width="119.6" height="3.2"/>
	<rect x="174" y="149.5" class="st17" width="3.2" height="3.2"/>
	<rect x="179.1" y="149.5" class="st18" width="3.2" height="3.2"/>
	<rect x="218.1" y="183.2" class="st14" width="22.9" height="4.1"/>
	<rect x="247.2" y="183.2" class="st14" width="22.9" height="4.1"/>
	<rect x="277.1" y="183.2" class="st14" width="22.9" height="4.1"/>
	<rect x="188.2" y="183.2" class="st14" width="22.9" height="4.1"/>
	<rect x="171.8" y="198.4" class="st19" width="144.8" height="42.3"/>
	<rect x="233.8" y="219.1" class="st13" width="65.7" height="1.5"/>
	<rect x="244.3" y="222.6" class="st13" width="45.2" height="1.5"/>
	<rect x="233.8" y="215.1" class="st13" width="65.7" height="1.5"/>
	<rect x="233.8" y="206.9" class="st14" width="65.7" height="4.6"/>
	<rect x="191.3" y="205.9" class="st14" width="28.6" height="27.1"/>
	<rect x="199.1" y="209.2" class="st13" width="16.5" height="2.6"/>
	<rect x="199.1" y="213.8" class="st13" width="16.5" height="2.6"/>
	<rect x="195.7" y="213.7" class="st13" width="2.6" height="2.6"/>
	<rect x="195.7" y="209.2" class="st13" width="2.6" height="2.6"/>
	<rect x="271.6" y="246.8" class="st20" width="28.6" height="27.1"/>
	<rect x="186.3" y="246.8" class="st17" width="28.6" height="27.1"/>
	<rect x="229.6" y="246.8" class="st21" width="28.6" height="27.1"/>
	<rect x="205.8" y="165.2" class="st17" width="77.5" height="10.5"/>
	<rect x="186.3" y="276.5" class="st20" width="28.9" height="2.4"/>
	<rect x="186.3" y="280.8" class="st18" width="28.9" height="1.9"/>
	<rect x="186.3" y="285" class="st18" width="15.2" height="1.9"/>
	<rect x="229.3" y="276.5" class="st20" width="28.9" height="2.4"/>
	<rect x="229.3" y="280.8" class="st18" width="28.9" height="1.9"/>
	<rect x="229.3" y="285" class="st18" width="15.2" height="1.9"/>
	<rect x="271.4" y="276.5" class="st20" width="28.9" height="2.4"/>
	<rect x="271.4" y="280.8" class="st18" width="28.9" height="1.9"/>
	<rect x="271.4" y="285" class="st18" width="15.2" height="1.9"/>
</g>
<g id="Layer_1">
	<path class="st22" d="M363.7,140.3L343,119.6l54.7,13.9c0,0,2-0.3,5.4,2.9c3.4,3.2,25.4,25.5,25.4,25.5l14.3,14.4l-27.1-6.7
		l1.7-3.4c-0.1,0.1,1.5-1.7-1.2-5.5c-2.8-3.8-12.2-11.7-22-16.6c-9.8-4.8-20-8.8-20-8.8c0.1,0.4-6.8-2.9-9.4,2.7L363.7,140.3z"/>
	<polygon class="st23" points="343,119.6 345.1,116.1 402.5,130.9 444.3,173.3 442.9,176.4 399.7,134 	"/>
	<path class="st24" d="M413.2,141.8c0,0,0.2-1,0.5-1c0.3,0,15.3,15.8,15.3,15.8v1.1L413.2,141.8z"/>
	<path class="st24" d="M427.8,172.7c0,0-3.7,0.1-3.9,8.2l-2,8.7c0,0-1.5,10.6,0,11.2l0.8,2l1-0.5l0.8,1.1l1.6-0.7v0.7h1.2l0.5,0.9
		l1.8-0.7l0.9,0.7c0,0,1.9-12.7,1.4-14.9c-0.5-2.2-1.3-5.2-1.3-5.2v-8.5C430.7,175.7,430.7,173.4,427.8,172.7"/>
	<path class="st23" d="M416.9,167.8l-12.4,19.7c-5.6-12.3-42.5-32.8-50.6-31.9l11.6-20.2C372,128.2,425.2,156.3,416.9,167.8z"/>
	<g>
		<path class="st25" d="M354.2,155.2l-0.2,0.4c0.3,0,0.6,0,1,0C354.7,155.4,354.4,155.3,354.2,155.2z"/>
		<path class="st25" d="M368.2,134.3c14.1,3.8,44.6,25.4,46.7,36.6l2-3.1C424.4,157.3,380.9,133,368.2,134.3z"/>
		<path class="st25" d="M404.4,187.3c0,0.1,0.1,0.1,0.1,0.2l1-1.7L404.4,187.3z"/>
	</g>
</g>
<g id="Layer_3">
	<path class="st13" d="M477.6,306.7h-146c-3.1,0-5.5-2.5-5.5-5.5v-95.2c0-3.1,2.5-5.5,5.5-5.5h146c3.1,0,5.5,2.5,5.5,5.5v95.2
		C483.1,304.2,480.6,306.7,477.6,306.7z"/>
	<rect x="409.5" y="262.7" class="st26" width="63.8" height="33.6"/>
	<path class="st27" d="M482.8,208.5H325.7v-2.7c0-3.1,2.5-5.5,5.5-5.5h146c3.1,0,5.5,2.5,5.5,5.5V208.5z"/>
	<g>
		<g>
			<g>
				<polyline class="st28" points="424.7,274 424.7,275.9 422.8,275.9 				"/>
				<line class="st29" x1="419.1" y1="275.9" x2="362.9" y2="275.9"/>
				<polyline class="st28" points="361.1,275.9 359.2,275.9 359.2,274 				"/>
				<line class="st30" x1="359.2" y1="270.3" x2="359.2" y2="234.9"/>
				<polyline class="st28" points="359.2,233 359.2,231.1 361.1,231.1 				"/>
				<line class="st29" x1="364.7" y1="231.1" x2="420.9" y2="231.1"/>
				<polyline class="st28" points="422.8,231.1 424.7,231.1 424.7,233 				"/>
				<line class="st30" x1="424.7" y1="236.7" x2="424.7" y2="272.2"/>
			</g>
		</g>
		<rect x="358.1" y="230" class="st27" width="2.3" height="2.3"/>
		<rect x="390.7" y="230" class="st27" width="2.3" height="2.3"/>
		<rect x="390.7" y="274.8" class="st27" width="2.3" height="2.3"/>
		<rect x="423.2" y="230" class="st27" width="2.3" height="2.3"/>
		<rect x="423.2" y="252.4" class="st27" width="2.3" height="2.3"/>
		<rect x="423.2" y="274.8" class="st27" width="2.3" height="2.3"/>
		<rect x="358" y="274.8" class="st27" width="2.3" height="2.3"/>
	</g>
	<g>
		<path class="st31" d="M419.4,272.8h-55c-1.4,0-2.5-1.1-2.5-2.5v-33.7c0-1.4,1.1-2.5,2.5-2.5h55c1.4,0,2.5,1.1,2.5,2.5v33.7
			C421.9,271.7,420.8,272.8,419.4,272.8z"/>
		<path class="st32" d="M419.4,272.8c1.4,0,2.5-1.1,2.5-2.5v-9.5l-12-11c-0.9-0.9-2.4-0.8-3.2,0.1l-10.4,11.3l-7.8-7.2
			c-0.9-0.9-2.4-0.8-3.2,0.1l-17,18.5H419.4z"/>
		<circle class="st33" cx="370.9" cy="242.3" r="3.7"/>
	</g>
	<g>
		<path class="st34" d="M347.4,258.6h-8.3c-1.3,0-2.3-1-2.3-2.3v-39.6c0-1.3,1-2.3,2.3-2.3h8.3c1.3,0,2.3,1,2.3,2.3v39.6
			C349.7,257.6,348.7,258.6,347.4,258.6z"/>
		<path class="st35" d="M349.7,217.9h-12.9v-1.1c0-1.3,1-2.3,2.3-2.3h8.3c1.3,0,2.3,1,2.3,2.3V217.9z"/>
		<rect x="338.6" y="220.3" class="st35" width="4" height="4"/>
		<rect x="343.7" y="226.2" class="st35" width="4" height="4"/>
		<rect x="339.2" y="231.9" class="st35" width="4" height="4"/>
		<rect x="343.7" y="237.8" class="st35" width="4" height="4"/>
	</g>
	<circle class="st31" cx="475.8" cy="204.2" r="1.6"/>
	<circle class="st36" cx="467.1" cy="204.2" r="1.6"/>
	<circle class="st37" cx="457.9" cy="204.2" r="1.6"/>
	<g>
		<path class="st38" d="M420.9,226.2h-64.8c-1.3,0-2.3-1-2.3-2.3V218c0-1.3,1-2.3,2.3-2.3h64.8c1.3,0,2.3,1,2.3,2.3v5.8
			C423.2,225.1,422.1,226.2,420.9,226.2z"/>
		<circle class="st39" cx="365.9" cy="220.9" r="3.4"/>
		<circle class="st40" cx="375" cy="220.9" r="3.4"/>
		<circle class="st33" cx="384.1" cy="220.9" r="3.4"/>
		<circle class="st41" cx="411.4" cy="220.9" r="3.4"/>
		<circle class="st42" cx="402.3" cy="220.9" r="3.4"/>
		<circle class="st43" cx="393.2" cy="220.9" r="3.4"/>
		<polygon class="st44" points="421.4,220.9 419.6,219.9 419.6,222 		"/>
		<polygon class="st44" points="355.9,220.9 357.7,219.9 357.7,222 		"/>
	</g>
	<g>
		<path class="st34" d="M402.6,293h-57c-1.3,0-2.3-1-2.3-2.3v-4.1c0-1.3,1-2.3,2.3-2.3h57c1.3,0,2.3,1,2.3,2.3v4.1
			C404.9,291.9,403.9,293,402.6,293z"/>
		<linearGradient id="SVGID_1_" gradientUnits="userSpaceOnUse" x1="345.6336" y1="288.6748" x2="403.2003" y2="288.6748">
			<stop  offset="0" style="stop-color:#83CFEC"/>
			<stop  offset="1" style="stop-color:#1C5882"/>
		</linearGradient>
		<rect x="345.6" y="287.3" class="st45" width="57.6" height="2.7"/>
	</g>
	<path class="st46" d="M469.7,251.3h-32.4c-1.6,0-2.9-1.3-2.9-2.9V228c0-1.6,1.3-2.9,2.9-2.9h32.4c1.6,0,2.9,1.3,2.9,2.9v20.4
		C472.6,250,471.3,251.3,469.7,251.3z"/>
	<path class="st47" d="M472.6,228.5h-38.1V228c0-1.6,1.3-2.9,2.9-2.9h32.4c1.6,0,2.9,1.3,2.9,2.9V228.5z"/>
	<rect x="437.4" y="232.7" class="st47" width="4.6" height="4.6"/>
	<rect x="464.9" y="232.7" class="st47" width="4.6" height="4.6"/>
	<rect x="444.3" y="232.7" class="st48" width="4.6" height="4.6"/>
	<rect x="451.2" y="232.7" class="st47" width="4.6" height="4.6"/>
	<rect x="458.1" y="232.7" class="st48" width="4.6" height="4.6"/>
	<rect x="458.1" y="239.9" class="st47" width="4.6" height="4.6"/>
	<rect x="437.4" y="239.9" class="st48" width="4.6" height="4.6"/>
	<rect x="444.3" y="239.9" class="st47" width="4.6" height="4.6"/>
	<rect x="451.2" y="239.9" class="st48" width="4.6" height="4.6"/>
	<rect x="464.9" y="239.9" class="st48" width="4.6" height="4.6"/>
</g>
<g id="Layer_5">
	<path class="st49" d="M87.3,235.5c0,0,3.4-0.3,4.4,9.3c1,9.6,2.2,16.1,2.2,16.1l0.2,2l11.3,6.9l4,1.6l3.4-8.3c0,0-1.4-3.4-1.1-7.7
		c0.3-4.3-0.5-16-0.5-16l-0.3-3.5l-5.9-3.4c0,0,2.5,6.2-2.9,8c-5.4,1.7-7.1-8.6-7.1-8.6L87.3,235.5z"/>
	<path class="st50" d="M96.1,231.3c0,0,1.2-2.2,1.1-2.9l0.9-1.8c0,0-1-2.2-1-2.6c0-0.3-0.5-2.6,1.3-1.9c0.4,0.2,0.8,2.2,0.7,2.2
		c0,0,0.8,0.2,0.9-1.2c0.1-1.4,0.5-4.2,0.5-4.2s0.2-1.7,1.9,0.3l3.4,1.8c0,0,2.3,1.1,3.6,0.6l-0.3,1.5c0,0,0.8,0.8-0.6,2.3
		c0,0,0.4,5.5-3.6,6.5l-1.5,0.1c0,0,0.8,4.6-2.3,4.4c-3.1-0.2-3.7-2.6-4.2-3.6c-0.5-1-0.7-1.8-0.7-1.8"/>
	<path class="st49" d="M88.6,267.4v6h13.6l0.4-0.6c0,0-10.1-1-12-3.1C88.6,267.6,88.6,267.4,88.6,267.4"/>
	<path class="st13" d="M87.3,235.5c0,0.3-4.8,2.6-2.5,16.6c2.4,14.2,1.1,9.7,3.7,15.3c2.6,5.5,16.6,5.4,16.6,5.4l0.2-3l-11.3-6.9
		l-3-21.9C91.1,241,89.7,235.4,87.3,235.5"/>
	<polygon class="st51" points="105.4,269.8 105.2,272.8 109.4,272.7 109.3,271.3 	"/>
	<path class="st52" d="M94.9,231.8l1.2-0.5c0,0,2,5.7,4.5,5.4c2.5-0.3,2.5-2.1,2.5-2.1l0.2-2.4l1.1-0.1h0.4l0.1,0.3
		c0,0,2.7,7.7-3.5,8.1C95.7,240.9,95,231.6,94.9,231.8"/>
	<path class="st52" d="M110.8,235.8c0,0,1.7,1.7,3.2,6.8c1.5,5.1,4.4,11,4.4,11H116l-1.4,4.6l-3-3.5"/>
	<path class="st53" d="M89.1,273.4c-0.4,0,0.2,11.9,14.9,11.8c0,0-4,33.9-4.7,34c-0.7,0.1,1.4,0,1.4,0l3.9,0l9.6-34.4l3.1,1.1
		l1.3,32.1l5.7,0.1l3-31.7l0.4-4.3c0.7-4-1-6.6-6.2-7.1l-26.2-0.1l-0.3-1.6H89.1z"/>
	<path class="st54" d="M100.2,319.2l-1.3,4.5c-0.1,0.7,0.2,1.4,0.8,1.7l5.4,3.6c0,0,1.9,1,1.4-0.6c-0.4-1.5-3-5.5-3-5.5l0.5-3.7"/>
	<path class="st54" d="M119.4,318.1l0.2,4.1c0,0.6,0.3,1.1,0.8,1.3l4.6,2.5c0,0,2.1,0.9,1.8-0.5c-0.2-0.8-3.4-3.9-3.5-4.1
		c0-0.2-0.1-3.3-0.1-3.3L119.4,318.1z"/>
	<path class="st55" d="M97.2,228.4c0,0,1-1.4,0.9-1.8c0-0.4-0.7-1.6-0.9-2.1c-0.2-0.6-0.4-2.3,0.3-2.4c0.7,0,1.3-0.3,1.5,1.4
		c0.1,1.7,0.9,0.6,0.9,0.6l0.2-1.2l0.3-3c0,0,0.3-2.1,0.8-1.5c0.6,0.5,6.2,4.1,8,3.4c1.1-0.4,1.8-1.5,2.3-2.3
		c0.3-0.5,0.2-1.2-0.2-1.6c-1.2-1.3-4-4.2-6.2-4.4c-2.8-0.2-5.6,2.1-5.6,2.1l-1.5,0.2c-1,0.1-1.9,0.6-2.4,1.5
		c-0.3,0.6-0.6,1.3-0.5,2.1c0.2,1.8,1.9,6.9,2,7.3C97.2,227.1,97.2,228.4,97.2,228.4"/>
	<path class="st56" d="M100,223c0-0.2-0.4,1.1,2,1.9c0,0,2.3,0.3,2.6-1.7l0.7,0c-0.2,0.9,1.1,2,1.9,2.1c0.7,0.1,2-0.4,1.9-1.9
		c0,0-1-0.6-3.8-0.5c0,0-0.5,0-0.6,0c-1.1-0.3-2-0.9-4.6-0.8L100,223z"/>
	<polygon class="st57" points="94.5,273.4 109.4,273.4 116,253.6 139.9,253.6 132.6,275 94.8,275.1 	"/>
	<path class="st58" d="M127.7,265.3c0,1.6-1.2,2.9-2.6,2.9c-1.5,0-2.6-1.3-2.6-2.9c0-1.6,1.2-2.9,2.6-2.9
		C126.5,262.3,127.7,263.6,127.7,265.3"/>
	<polygon class="st59" points="102.1,273.4 102.5,272.8 109.4,272.7 109.4,273.4 	"/>
	<polygon class="st60" points="109.4,272.7 109.3,271.3 112.7,263 109.4,273.4 	"/>
</g>
<g id="Layer_6">
	<circle class="st61" cx="180.7" cy="274.8" r="17.9"/>
	<g>
		<text transform="matrix(1 0 0 1 170.4321 280.5313)" class="st62 st63 st64">{ }</text>
	</g>
	
		<ellipse transform="matrix(4.839831e-02 -0.9988 0.9988 4.839831e-02 -68.6583 296.0465)" class="st65" cx="121" cy="184.1" rx="15.8" ry="20.5"/>
	<text transform="matrix(1 0 0 1 107.7402 188.2988)" class="st66 st63 st67">CSS</text>
	<ellipse class="st65" cx="59.9" cy="239.6" rx="18.2" ry="13.2"/>
	<text transform="matrix(1 0 0 1 47.2847 243.7393)" class="st66 st63 st68">PHP</text>
	<ellipse class="st69" cx="137.6" cy="215.9" rx="15.2" ry="11"/>
	<g>
		<text transform="matrix(1 0 0 1 127.5488 218.7725)" class="st70 st63 st71">JAVA</text>
	</g>
</g>
<g id="Layer_7">
	<g>
		<path class="st72" d="M210.2,311.5c-0.7,3.7,0.3,34.9,0.7,38.3s2,23.6,2,23.6s1.3,0.7,3,0.5c1.8-0.2,3.4-0.4,3.4-0.4l4.5-32.7
			c0,0,0.9,2.8,1.5,5.4c0.5,2.6,2.1,12.7,3.1,15.9c1,3.2,4.6,11.8,4.6,11.8s3.4-0.3,4.7-0.8c1.3-0.5,2.4-1.3,2.4-1.3
			s-3.2-18.1-3.8-25.2c-0.6-7-1.1-26.8-1.3-29c-0.2-2.1-1.1-6.2-1.1-6.2H210.2z"/>
		<path class="st73" d="M235.3,321.9c-0.1-2.2-0.2-3.7-0.2-4.2c-0.2-2.1-1.1-6.2-1.1-6.2h-6.3l-3.7,29.4c0,0,0.3,0.8,0.6,2
			L235.3,321.9z"/>
		<path class="st74" d="M216.8,266c0.3,0.9,0.4,1.1,0.4,1.1s0,2.9-0.2,3.9s-0.4,1.5-0.4,1.5l-1.2,1.6l4.3,2.3l4.4-1l1.8-2.8l1.8-1.9
			c0,0,1.5-2.8,1-3.7s-2.4-0.2-2.4-0.2s0.5-2,0.1-4.5s-0.5-3.2-0.5-3.2l-7.6-0.1l-1.4,3.4L216.8,266z"/>
		<path class="st75" d="M217.2,268.1c0,0,1.4,2.2,3.3,3s4,0.2,4,0.2l0.4-0.6c0,0-0.5-2.1,0.3-3.1c0.8-1,1.1-0.9,1.1-0.9l0.1-0.4
			c0,0-1.4,0.4-1.9,1.5c-0.5,1-0.2,1.3-0.2,1.3s-2.8,0.4-4.6-0.3s-2.5-1.7-2.5-1.7L217.2,268.1z"/>
		<path class="st76" d="M216.6,272.5c0,0-9.6,1.4-10.5,4.8c-1,3.5,1.9,8.1,2.4,8.9s2.2,2.9,2.2,2.9s-1.7,20.7-1.4,21.3
			c0.2,0.6,0.4,0.9,1,1.2s9.6,2.5,16.2,2c6.6-0.5,8-2,8-2.5s-0.9-13.2-0.9-13.2s2.5,0,3.1,0s3-1,2.3-5.7c-0.6-4.7-2.8-15.9-4.8-17.7
			c-2-1.9-6.2-2.1-6.2-2.1v-1.8c0,0-2.1-0.7-3-0.1s-1.3,1.4-1.3,1.4l-1.1,2.8c0,0-2.9,0.9-4.8-0.4
			C215.9,273.1,216.6,272.5,216.6,272.5z"/>
		<path class="st74" d="M213.5,291.8c0,0-0.5,0.7-0.2,1.6s1.2,2.6,1.7,2.8c0.5,0.2,2.7,0.6,2.7,0.6l1-2.2L213.5,291.8z"/>
		<path class="st77" d="M210.6,289.2c1.6,1.6,6.6,3.4,7.4,3.3c0.8,0,3.6-1.8,6.7-8.7c3.1-6.9,3.2-9,3.2-9s-0.7,12.3-4.2,16.1
			c-3.5,3.8-4,3.8-4.5,3.8c-0.5,0-3.4-0.9-5.4-2.3C211.8,291.1,210.6,289.2,210.6,289.2z"/>
		<path class="st77" d="M233.6,298.1c-0.8,0-9,0.1-12.4-0.5s-4.9-1-4.9-1s2.6,3.1,8.4,4.8s9.1,2.1,9.1,2.1L233.6,298.1z"/>
		<path class="st77" d="M232.7,282.8c0,0,2.3,5.3,2.6,6.7c0.3,1.4,0.3,2,0.3,2s-1.3-0.2-2.1,0c-0.8,0.3-1.3,1-1.7-0.5
			C231.4,289.5,232.7,282.8,232.7,282.8z"/>
		<path class="st78" d="M216.8,267c0,0-1.9-3.9-2.6-4.5c-0.7-0.6-0.7-3-0.3-4.4c0.4-1.4,1.5-2.7,2-3s0.7-0.4,0.7-0.4
			s-0.1-0.1-0.2-0.1c0,0,0-0.1,0.2-0.1s0.4,0.1,0.4,0.1s0-0.4,0.2-0.6s0.4-0.3,0.4-0.3s-0.3,0.2-0.3,0.3c0,0.1,0,0.3,0,0.3
			s1.2-0.7,3-0.9c1.8-0.2,3.8,1.2,5.6,1.4c1.2,0.1,1.5,0.1,1.5,0.1s0.3,2-0.1,2.8s-0.8,1.4-1.4,1.5c-0.6,0.1-3.8,0.2-4.8,0.6
			c-1,0.5-1,1.2-1,1.6c0,0.4,0,1.2-0.3,1.4c-0.3,0.3-2.5,0.7-2.6,1.5c-0.2,0.8,0.1,1,0,1.5C217.1,266.4,216.8,267,216.8,267z"/>
		<path class="st78" d="M213.1,373.5c-0.2,0.8,0,2.3,1,2.7s7.4,0.6,9.3,0.3c1.8-0.4,1.5-1.9-0.8-1.6s-2.1-1.1-3.8-1.4
			S213.1,373.5,213.1,373.5z"/>
		<path class="st78" d="M233.5,373.2c-0.2,0.8,0.4,2.2,1.3,2.6c0.9,0.4,7.4,0.3,9.3,0.3c2.6,0,4.7-0.4-0.8-1.6
			c-2.2-0.5-2.6-2.3-4.2-2.5C237.3,371.7,233.5,373.2,233.5,373.2z"/>
	</g>
</g>
<g id="Layer_8">
	<path class="st79" d="M260.5,339.2h-5.7v-32.4c0-0.3,0.3-0.6,0.6-0.6h5.1c0.3,0,0.6,0.3,0.6,0.6v31.7
		C261.1,338.9,260.8,339.2,260.5,339.2z"/>
	<path class="st80" d="M254.2,339.2h-5.7v-32.4c0-0.3,0.3-0.6,0.6-0.6h5.1c0.3,0,0.6,0.3,0.6,0.6v31.7
		C254.8,338.9,254.5,339.2,254.2,339.2z"/>
	<path class="st79" d="M263.3,342.9h-12.5c-1.3,0-2.3-1-2.3-2.3v-1.4h14.8V342.9z"/>
	<path class="st80" d="M284.8,342.9h-22c-1,0-1.8-0.8-1.8-1.8v0c0-1,0.8-1.8,1.8-1.8h22c0.3,0,0.6,0.3,0.6,0.6v2.5
		C285.4,342.6,285.1,342.9,284.8,342.9z"/>
	<polygon class="st79" points="255.2,342.9 251.6,375.8 254,375.8 258.5,342.9 	"/>
	<polygon class="st79" points="281.2,342.9 284.8,375.8 282.4,375.8 277.9,342.9 	"/>
	<polygon class="st78" points="313.8,325.5 314.5,375.8 312.9,375.8 309.7,325.5 	"/>
	<path class="st74" d="M307.2,368.9c1,1.7,1.2,2.6,1.2,2.9s1.8,1.6,3.1,1.4c1.3-0.2,2.4-1.3,2.4-1.3L310,367L307.2,368.9z"/>
	<path class="st74" d="M293.3,367.9c0.1,1.7-0.8,4.6-0.8,5.2c0,0.7,6.1,1.1,6.1,1.1l3.2-0.5c0,0-2.2-1.2-3.2-1.4
		c-1-0.2-1.6-2-1.5-2.7c0.1-0.7,0.3-2.1,0.3-2.1L293.3,367.9z"/>
	<path class="st73" d="M267.6,325c0,0,23.1,0.4,27.3,1.3c6.9,1.5,6.3,13.7,6.1,19.4c-0.2,5.6-2.7,24-2.7,24h-6.1
		c0,0-0.9-20.5-1.3-24.5s-5.6-6.1-8.2-5.9c-2.6,0.2-13.8-2-13.8-2L267.6,325z"/>
	<path class="st81" d="M255.7,326.5c0,0-0.9,3.5-0.2,7.2s2.1,5.5,2.1,5.5h16.2c0,0,7.4,0.4,9.8,0.7c2.3,0.2,5.1,7.1,8.1,11.2
		c3,4.2,15.2,20.3,15.2,20.3l5.3-2.8c0,0-11-23.8-15-29.8c-4.1-6.2-6.7-11.5-14.5-11.8s-17.2-2-17.2-2L255.7,326.5z"/>
	<path class="st82" d="M292.6,372c-0.2,0.2-1.3,3.5-0.7,3.7c0.5,0.2,12,0.3,12.6-0.1c0.6-0.4,0.5-1.7-1.5-1.8s-4.7-2-5-2.5
		s-1.6,0-1.4,0.3s0.9,0.9,0.3,1.1c-0.5,0.2-2.8,0.2-3.4-0.1C292.8,372.4,292.6,372,292.6,372z"/>
	<path class="st82" d="M308.5,371.8c-0.2,0.2-1.3,3.5-0.7,3.7s12,0.3,12.6-0.1c0.6-0.4,0.5-1.7-1.5-1.8c-2-0.1-4.7-2-5-2.5
		s-1.6,0-1.4,0.3c0.2,0.3,0.9,0.9,0.3,1.1s-2.8,0.2-3.4-0.1C308.7,372.2,308.5,371.8,308.5,371.8z"/>
	<path class="st13" d="M255.8,310c-0.2,1.1-1.6,15.8-0.7,20.4c0,0,2.5-4.1,10.8-5c8.3-0.8,8.9-2.6,8.9-2.6l0.8-10.6l1.1,2.5l3.3-8.4
		c0,0-2.3-12.6-5.4-13.4c-3.1-0.7-6.2-1.8-9.1-1.8c-2.9-0.1-10.7,0.5-13.3,3.2c-2.7,2.7-6.1,16.8-6.1,21.3c-0.1,4.4,0.9,5.4,3.7,5.9
		c2.8,0.5,5.5,0.5,5.5,0.5l0.8-6.8c0,0-1-0.1-1.4-0.6S255.8,310,255.8,310z"/>
	<path class="st83" d="M276.2,301.7c-0.1-4-1.4-7.9-2.2-8.8c-1.3-0.3-2.6-0.7-3.8-1c0.3,1.3,0.6,4.1-2,4.9c-3.1,0.9-6.1-2.6-8-5.3
		c-1.2,0.1-2.4,0.4-3.6,0.7c2.9,8.9,1.7,12.1,1.2,14.4c-0.5,2.2-2,3.5-2,3.5c-0.1,0.4-0.3,2.4-0.5,5c1.3,0.4,4.2,1.1,5.1,1.3
		c1.1,0.3,4.5,1,4.9,1.4s0.4,3.4,0.2,3.6c-0.2,0.2-6,0.5-7.5,0.7c-0.9,0.1-2.2,0.1-3.1,0.1c-0.1,3.4-0.1,6.6,0.2,8.4
		c0,0,2.5-4.1,10.8-5c8.3-0.8,8.9-2.6,8.9-2.6l0.8-10.6l0,0.1C275.7,310.3,276.3,306.4,276.2,301.7z"/>
	<path class="st84" d="M274.6,323c-1.7-0.5-4.1-1.3-4.4-2.8c-0.6-2.4-8.8-5-10.7-5.9c-1.4-0.7-1.8-4.1-1.9-7
		c-0.6,1.8-1.8,2.7-1.8,2.7c-0.1,0.4-0.3,2.4-0.5,5c1.3,0.4,4.2,1.1,5.1,1.3c1.1,0.3,4.5,1,4.9,1.4s0.4,3.4,0.2,3.6
		c-0.2,0.2-6,0.5-7.5,0.7c-0.9,0.1-2.2,0.1-3.1,0.1c-0.1,3.4-0.1,6.6,0.2,8.4c0,0,2.5-4.1,10.8-5C272.7,324.8,274.3,323.5,274.6,323
		z"/>
	<path class="st85" d="M262.3,281.3c0,0-0.1,4.2,0.2,4.8c0.3,0.6,0.3,1,0.3,1l-0.6,4.2c0,0,2.8,3.7,4.5,3.8c2.8,0.1,2-3.5,2-3.5
		l0.3-2.1c0,0,1,0.4,1.5,0c2.3-1.8,2.3-5.8,2.5-6.4c0.2-0.6,0.8-1.8,0.8-1.8s-0.4-2.9-2.4-3.6s-4.8-1.4-6.1-0.3
		C264,278.5,262.3,281.3,262.3,281.3z"/>
	<path class="st86" d="M268.1,277.6c0,0,2.7,1.3,3.6,1.8c0.9,0.5,1.3,3.6,1.3,3.6s2-2.2,1.9-3.6c-0.1-1.4-1.8-5.7-5.7-5.8
		c-3.9-0.1-4.2,0.8-4.2,0.8s-1.3-0.5-2.3,0.7c-1.8,1.9-3.2,5.9-0.9,9.6c0.6,1,0.9,3.1,0.9,3.1c0.1-0.4,0.1-1,0.1-1.6
		c0,0-0.5-2-0.4-3c0.1-1,0.4-2.5,0.9-2c0.6,0.4,0.6,1.8,0.6,1.8l0.4,0.1c0,0,0.1-2.4,1.2-3.1C266.6,279.3,268.1,277.6,268.1,277.6z"
		/>
	<path class="st85" d="M265.4,318.2c0,0,2.9-0.5,3.7-0.6s1.2-0.2,1.9,0.2s2.6,1.3,2.6,1.3s0.1,0.6,0,0.6c-0.2,0-0.4,0-0.4,0l0.2,0.2
		l-0.2,0.4c0,0,0.1,0.3-0.1,0.2c-0.2-0.1-0.6-0.4-0.6-0.4l0.3,0.4c0,0-0.2,0.3-0.5,0.2s-0.9-1.1-1.2-1.2c-0.3,0-2.8,0.9-3.8,1
		c-1,0.1-1.6,0-1.6,0s0-0.8,0-1.4C265.5,318.5,265.4,318.2,265.4,318.2z"/>
	<polygon class="st87" points="272.4,321.9 296.1,321.9 302.7,305 279,305 	"/>
	<polygon class="st88" points="295.9,322.6 264.9,322.6 264.9,321.9 296.1,321.9 	"/>
	
		<ellipse transform="matrix(0.6714 -0.7411 0.7411 0.6714 -137.6455 317.062)" class="st13" cx="288.7" cy="313.7" rx="1.3" ry="1"/>
	<path class="st78" d="M319,326.2h-57.7c-0.3,0-0.6-0.3-0.6-0.6v-2.3c0-0.3,0.3-0.6,0.6-0.6H319c0.3,0,0.6,0.3,0.6,0.6v2.3
		C319.6,325.9,319.3,326.2,319,326.2z"/>
	<polygon class="st78" points="265.5,325.5 264.7,375.8 266.4,375.8 269.5,325.5 	"/>
</g>
<g id="Layer_9">
	<path class="st76" d="M440,306.5c6.9-2.3,18.2,0.7,20.2,13.8s4.3,35.5,5.8,38.9c1.5,3.3,1.8,13.4-12,13.4s-66.6,1.7-68.4,0
		c-1.8-1.7-12.8-14.3-7-30.4c5.8-16,20.9-17,33.3-18.2C424.4,322.7,428,310.5,440,306.5z"/>
	<path class="st77" d="M461.1,326.4c-1.3,4.3-3.7,10.1-11.1,14.8c-8.6,5.6-9.2,12.8-6.7,12.6c2.5-0.2,10.8-5.5,16.4-3.6
		c1.9,0.6,3.5,1.3,4.8,1.9C463.5,345.3,462.2,335,461.1,326.4z"/>
	<path class="st77" d="M440,306.5c-12,4-15.6,16.2-28,17.4c-3.9,0.4-8,0.8-12,1.6c1.9,6.1,6.1,18.9,7.6,15.7c2-4.1,10.5-9.4,15.9-12
		c5.4-2.6,19.5-3.7,25.3-7.1c5.8-3.4,3.5-9.6,2.6-14.6C447.7,305.5,443.3,305.4,440,306.5z"/>
	<path class="st89" d="M432.8,281.9c0,0-4.2,0-5.3,3.2c-1.1,3.2-2.8,8.8-2.3,12.2c1.7,11.7,19.8,4.6,19.8,4.6s3.2-1.3,3.2-3.9
		c0-4.1-3.6-3-5.3-6.5c-1.7-3.4-0.8-6.1-3.8-8.8C436.1,279.9,432.8,281.9,432.8,281.9z"/>
	<path class="st90" d="M436.3,297.8c-2.7-0.2-8.4-0.4-9.9,1c-1.5,1.4-3.8,4.9-3.7,5.5c0.1,0.6,1.3,2.1,1.3,2.1l-6.3,11.9l1.2,6.2
		l-0.1,1.9l5.6,2.3c0,0,1.4-0.6,4.5-1.3c3.1-0.7,8.2-1.8,8.2-1.8s1.3-1.5,1.8-2.7c0.5-1.2,5.6-13.2,5.6-13.2s3.4-1.8,3.3-2.2
		c-0.1-0.4-2.5-5.8-3.7-6.8c-1.2-1-2.1-1.9-3.8-2.2C438.7,298.3,436.3,297.8,436.3,297.8z"/>
	<path class="st74" d="M423.3,305.6c0,0,0.6,0.5,0.8,0.6c0.2,0.1,0.7,0.4,0.7,0.4s-0.3,0.8-0.2,2.5c0.1,1.7,0.2,3.9-0.2,4.5
		S419,318,419,318l-1.6-4.1c0,0,0.9-0.8,1.2-1c0.3-0.2,0.8-0.5,1.1-0.8c0.2-0.3,1.3-2,1.8-3C422.1,308.2,423.3,305.6,423.3,305.6z"
		/>
	<path class="st74" d="M444.6,309.8c0,0-1.7,1-2.7,1.3c-1,0.3-1.8,0.4-1.8,0.4s0,2.1,0,3.5c0,1.4-0.3,3.3-0.5,3.5
		c-0.2,0.2-11.7,1.8-12.1,1.9c-0.4,0.1-2.5,0.6-2.8,0.7c-0.4,0.1-2.3,0.5-2.6,0.8c-0.2,0.3-1.1,1.3-1.1,1.3l0.5,1.1
		c0,0,1.5-0.7,2-0.8c0.5-0.1,1.1-0.1,1.1-0.1s-1,0.8-0.8,0.9c0.2,0.1,1.1-0.1,1.7-0.3c0.6-0.2,1.4-0.5,1.6-0.9s1.3-1.4,1.3-1.4
		s11.8,2.4,14.3,0.7C444.8,320.9,444.6,309.8,444.6,309.8z"/>
	<path class="st74" d="M430.2,286.5c0,0-1.8,1.8-1.6,3.4c0.2,1.5,2,5.8,3.2,6.1c0.5,0.1,0.8,0,0.8,0s0.3,2.2,0,3
		c-0.3,0.7-0.7,1.2-0.3,1.9c0.4,0.7,2.2,1.3,4.4-0.1c2.2-1.4,2.2-2.2,2-2.7c-0.2-0.5-0.7-1-1.1-2.9c-0.4-1.9-0.4-2.7-0.4-2.7
		s0.3-0.8,0.2-1.3c-0.1-0.6-0.2-0.7-0.2-0.7s-0.7-0.4-1.1-0.4c-0.4,0-2.1,0.1-3.9-1.5C430.3,287,430.2,286.5,430.2,286.5z"/>
	<path class="st74" d="M391.2,362.5c-0.3,1.1-0.9,2.9-1.6,3.6c-0.6,0.6-3.1,3.4-3.5,3.7c-0.4,0.3-0.7,1.2-0.7,1.2s3.3,0.4,4.1-0.3
		c0.8-0.6,4.5-3,4.6-3.1s1.2-1.7,1.2-1.7s-0.3-0.6-0.3-1.1c0-0.5,0-2.5,0-2.5L391.2,362.5z"/>
	<path class="st74" d="M399.8,355.3c0.6,0.9,1.7,1.5,1.7,1.5l-0.3,3.5l-1.7,4l-2.1,1.8h-1.1c0,0,0.4-0.4,0.4-1.9
		c0-1.5,0.1-4.5,0.1-4.5L399.8,355.3z"/>
	<path class="st91" d="M394.3,366.3c-0.5,0.5-3.4,3.2-4.3,3.5s-4,0.1-4,0.1s-2.4,0.8-2.8,1.6c-0.4,0.8,0.9,1.1,3.5,1
		c2.6-0.1,3.2-0.6,4.2-1.3s2.6-2.3,3.5-2.5c0.9-0.2,1.5-2,0.9-3L394.3,366.3z"/>
	<path class="st92" d="M401.5,356.7c0,0-0.6,0.6-0.7,1.8c-0.1,1.2-0.4,3.7-1.4,5.1c-1,1.3-3,2.4-3,2.4s-0.9,2-0.9,2.6
		c0,0.6,0.4,0.7,0.9,0.4c0.5-0.4,3.6-2.7,4.2-3.7c0.6-1.1,0.9-4.2,1.4-5.2c0.5-1,0.6-2,0.2-2.5C401.7,356.9,401.5,356.7,401.5,356.7
		z"/>
	<path class="st73" d="M405.3,320.9c0,0-12.1-1.1-14.3,1.8c-3.3,4.4,2.7,30.4,2.7,30.4l7,3.1c0,0,0.4,0,0.5-0.5
		c0.1-0.5-0.3-2.9-0.3-2.9l5.7-27.7L405.3,320.9z"/>
	<path class="st93" d="M390.5,362.8c0,0,1.1,0.7,2.4,0.7c1.2,0,2.5-0.6,2.5-0.6s9.5-15.1,11.4-20.1c1.9-5.1,2.5-9.4,2.5-9.4l6,0.6
		c0,0,6.6-4.3,9.4-5.3c0,0-3.5-2-4.5-2.8s-1.1-1.2-1.1-1.2l-11.3,0.1c0,0-5.2,0.7-6.3,2.1C400.3,328.4,390.5,362.8,390.5,362.8z"/>
	<polygon class="st57" points="421.9,325 404.2,325 398.6,311.3 416.3,311.3 	"/>
	<polygon class="st94" points="404.2,325 427.7,325 427.7,324.4 403.9,324.4 	"/>
	
		<ellipse transform="matrix(0.8039 -0.5948 0.5948 0.8039 -108.9707 305.9015)" class="st94" cx="409.3" cy="318.2" rx="0.8" ry="1"/>
</g>
</svg>
