<svg id="epq76acm7c1k1" xmlns="http://www.w3.org/2000/svg" xmlns:xlink="http://www.w3.org/1999/xlink" viewBox="0 0 500 500" shape-rendering="geometricPrecision" text-rendering="geometricPrecision"><defs><linearGradient id="epq76acm7c1k128-fill" x1="0.033600" y1="1.374800" x2="57.600300" y2="1.374800" spreadMethod="pad" gradientUnits="userSpaceOnUse"><stop id="epq76acm7c1k128-fill-0" offset="0%" stop-color="rgb(131,207,236)"/><stop id="epq76acm7c1k128-fill-1" offset="100%" stop-color="rgb(28,88,130)"/></linearGradient></defs><g id="epq76acm7c1k2"><path id="epq76acm7c1k3" display="none" d="M201.300000,105.200000C249.600000,87.800000,302.100000,156.300000,333.400000,167.300000C364.700000,178.400000,415.600000,158.500000,439.800000,178.400000C464,198.300000,485.700000,263.900000,470.100000,293C454.500000,322.100000,435.700000,336.800000,439.800000,359.800000C443.900000,382.900000,353,413,307.400000,394.600000C261.800000,376.200000,200.200000,365,179.600000,368.900000C159,372.800000,145,394,88.700000,375.600000C32.400000,357.200000,34,254.200000,58.500000,214.500000C83,174.800000,129.800000,179.400000,151.900000,165.400000C174,151.500000,151.900000,123,201.300000,105.200000Z" opacity="0.5" fill="rgb(244,169,203)" stroke="none" stroke-width="1"/><path id="epq76acm7c1k4" display="none" d="M135.500000,145.900000C148.900000,120.800000,218.800000,105.700000,250.100000,124.200000C281.400000,142.700000,299.800000,167.700000,333.300000,153.200000C366.800000,138.700000,414.300000,165.800000,429.100000,183.700000C443.900000,201.600000,469.600000,245.600000,460,284.800000C450.400000,324,458.300000,315.500000,460,337C461.700000,358.500000,426,400.200000,385,386.800000C344,373.400000,260.300000,382.500000,233.100000,385.700000C166.100000,393.500000,136.300000,333.800000,87.700000,334.900000C39.100000,336,2.800000,298.400000,29.500000,259.800000C56.200000,221.200000,97.800000,239.100000,123.600000,212.600000C149.400000,186.100000,115,184.400000,135.500000,145.900000Z" opacity="0.8" fill="rgb(255,255,255)" stroke="none" stroke-width="1"/><ellipse id="epq76acm7c1k5" rx="232.300000" ry="9.300000" transform="matrix(1 0 0 1 267.69999999999999 375)" fill="rgb(252,200,106)" stroke="none" stroke-width="1"/></g><g id="epq76acm7c1k6"><path id="epq76acm7c1k7" d="M17,259.200000C17,259.200000,9.100000,241.600000,20,223.400000C30.900000,205.200000,46.100000,202.500000,57.300000,202.200000C68.500000,201.900000,84.400000,208.600000,90.300000,218C96.200000,227.400000,96.200000,227.400000,96.200000,227.400000C96.200000,227.400000,106.400000,217.100000,121.800000,220.300000C133.900000,222.800000,142,228.600000,146.800000,238.100000C151.600000,247.600000,149.500000,256.600000,149.500000,256.600000C149.500000,256.600000,164.700000,255.100000,174.700000,267.800000C184.700000,280.500000,178.900000,296.600000,178.900000,296.600000C178.900000,296.600000,171.900000,312.100000,156.100000,314.200000C140.300000,316.300000,22.300000,314.200000,22.300000,314.200000C22.300000,314.200000,1.500000,310.200000,0,286C0,286,1.100000,268.900000,10.800000,262.800000C20.500000,256.700000,17,259.200000,17,259.200000Z" fill="rgb(206,229,248)" stroke="none" stroke-width="1"/><path id="epq76acm7c1k8" d="M19.400000,264.900000C19.400000,264.900000,12.300000,249.100000,22.100000,232.700000C31.900000,216.300000,45.600000,213.900000,55.700000,213.600000C65.800000,213.300000,80.100000,219.300000,85.300000,227.800000C90.600000,236.300000,90.600000,236.300000,90.600000,236.300000C90.600000,236.300000,99.700000,227,113.700000,229.900000C124.600000,232.100000,131.900000,237.400000,136.200000,245.900000C140.600000,254.400000,138.700000,262.600000,138.700000,262.600000C138.700000,262.600000,152.300000,261.200000,161.400000,272.700000C170.400000,284.200000,165.200000,298.600000,165.200000,298.600000C165.200000,298.600000,158.900000,312.500000,144.700000,314.400000C130.500000,316.300000,24.300000,314.400000,24.300000,314.400000C24.300000,314.400000,5.500000,310.900000,4.100000,289C4.100000,289,5.100000,273.600000,13.800000,268.100000C22.600000,262.600000,19.400000,264.900000,19.400000,264.900000Z" fill="rgb(181,216,241)" stroke="none" stroke-width="1"/><rect id="epq76acm7c1k9" width="79.200000" height="74.700000" rx="0" ry="0" transform="matrix(1 0 0 1 50.10000000000000 295.30000000000001)" fill="rgb(47,59,76)" stroke="none" stroke-width="1"/><path id="epq76acm7c1k10" d="M125.300000,341.700000L54,341.700000C48.200000,341.700000,43.500000,337,43.500000,331.200000L43.500000,325.600000C43.500000,319.800000,48.200000,315.100000,54,315.100000L125.300000,315.100000C131.100000,315.100000,135.800000,319.800000,135.800000,325.600000L135.800000,331.200000C135.800000,337,131.100000,341.700000,125.300000,341.700000Z" fill="rgb(53,71,94)" stroke="none" stroke-width="1"/><path id="epq76acm7c1k11" d="M125.300000,373.700000L54,373.700000C48.200000,373.700000,43.500000,369,43.500000,363.200000L43.500000,357.600000C43.500000,351.800000,48.200000,347.100000,54,347.100000L125.300000,347.100000C131.100000,347.100000,135.800000,351.800000,135.800000,357.600000L135.800000,363.200000C135.800000,369,131.100000,373.700000,125.300000,373.700000Z" fill="rgb(53,71,94)" stroke="none" stroke-width="1"/><path id="epq76acm7c1k12" d="M125.300000,310.900000L54,310.900000C48.200000,310.900000,43.500000,306.200000,43.500000,300.400000L43.500000,294.800000C43.500000,289,48.200000,284.300000,54,284.300000L125.300000,284.300000C131.100000,284.300000,135.800000,289,135.800000,294.800000L135.800000,300.400000C135.800000,306.200000,131.100000,310.900000,125.300000,310.900000Z" fill="rgb(53,71,94)" stroke="none" stroke-width="1"/><path id="epq76acm7c1k13" d="M65.700000,304.400000L65.700000,304.400000C64.900000,304.400000,64.200000,303.700000,64.200000,302.900000L64.200000,292.400000C64.200000,291.600000,64.900000,290.900000,65.700000,290.900000L65.700000,290.900000C66.500000,290.900000,67.200000,291.600000,67.200000,292.400000L67.200000,302.900000C67.200000,303.700000,66.600000,304.400000,65.700000,304.400000Z" fill="rgb(181,186,197)" stroke="none" stroke-width="1"/><path id="epq76acm7c1k14" d="M58.400000,304.400000L58.400000,304.400000C57.600000,304.400000,56.900000,303.700000,56.900000,302.900000L56.900000,292.400000C56.900000,291.600000,57.600000,290.900000,58.400000,290.900000L58.400000,290.900000C59.200000,290.900000,59.900000,291.600000,59.900000,292.400000L59.900000,302.900000C59.900000,303.700000,59.200000,304.400000,58.400000,304.400000Z" fill="rgb(181,186,197)" stroke="none" stroke-width="1"/><path id="epq76acm7c1k15" d="M51.200000,304.400000L51.200000,304.400000C50.400000,304.400000,49.700000,303.700000,49.700000,302.900000L49.700000,292.400000C49.700000,291.600000,50.400000,290.900000,51.200000,290.900000L51.200000,290.900000C52,290.900000,52.700000,291.600000,52.700000,292.400000L52.700000,302.900000C52.800000,303.700000,52.100000,304.400000,51.200000,304.400000Z" fill="rgb(181,186,197)" stroke="none" stroke-width="1"/><path id="epq76acm7c1k16" d="M72.600000,304.400000L72.600000,304.400000C71.800000,304.400000,71.100000,303.700000,71.100000,302.900000L71.100000,292.400000C71.100000,291.600000,71.800000,290.900000,72.600000,290.900000L72.600000,290.900000C73.400000,290.900000,74.100000,291.600000,74.100000,292.400000L74.100000,302.900000C74.200000,303.700000,73.500000,304.400000,72.600000,304.400000Z" fill="rgb(181,186,197)" stroke="none" stroke-width="1"/><path id="epq76acm7c1k17" d="M58.400000,367L58.400000,367C57.600000,367,56.900000,366.300000,56.900000,365.500000L56.900000,355C56.900000,354.200000,57.600000,353.500000,58.400000,353.500000L58.400000,353.500000C59.200000,353.500000,59.900000,354.200000,59.900000,355L59.900000,365.500000C59.900000,366.300000,59.200000,367,58.400000,367Z" fill="rgb(181,186,197)" stroke="none" stroke-width="1"/><path id="epq76acm7c1k18" d="M51.200000,367L51.200000,367C50.400000,367,49.700000,366.300000,49.700000,365.500000L49.700000,355C49.700000,354.200000,50.400000,353.500000,51.200000,353.500000L51.200000,353.500000C52,353.500000,52.700000,354.200000,52.700000,355L52.700000,365.500000C52.800000,366.300000,52.100000,367,51.200000,367Z" fill="rgb(181,186,197)" stroke="none" stroke-width="1"/><path id="epq76acm7c1k19" d="M72.600000,367L72.600000,367C71.800000,367,71.100000,366.300000,71.100000,365.500000L71.100000,355C71.100000,354.200000,71.800000,353.500000,72.600000,353.500000L72.600000,353.500000C73.400000,353.500000,74.100000,354.200000,74.100000,355L74.100000,365.500000C74.200000,366.300000,73.500000,367,72.600000,367Z" fill="rgb(181,186,197)" stroke="none" stroke-width="1"/><path id="epq76acm7c1k20" d="M72.600000,335.700000L72.600000,335.700000C71.800000,335.700000,71.100000,335,71.100000,334.200000L71.100000,323.700000C71.100000,322.900000,71.800000,322.200000,72.600000,322.200000L72.600000,322.200000C73.400000,322.200000,74.100000,322.900000,74.100000,323.700000L74.100000,334.200000C74.200000,335,73.500000,335.700000,72.600000,335.700000Z" fill="rgb(181,186,197)" stroke="none" stroke-width="1"/><path id="epq76acm7c1k21" d="M65.700000,367L65.700000,367C64.900000,367,64.200000,366.300000,64.200000,365.500000L64.200000,355C64.200000,354.200000,64.900000,353.500000,65.700000,353.500000L65.700000,353.500000C66.500000,353.500000,67.200000,354.200000,67.200000,355L67.200000,365.500000C67.200000,366.300000,66.600000,367,65.700000,367Z" fill="rgb(181,186,197)" stroke="none" stroke-width="1"/><path id="epq76acm7c1k22" d="M65.700000,335.700000L65.700000,335.700000C64.900000,335.700000,64.200000,335,64.200000,334.200000L64.200000,323.700000C64.200000,322.900000,64.900000,322.200000,65.700000,322.200000L65.700000,322.200000C66.500000,322.200000,67.200000,322.900000,67.200000,323.700000L67.200000,334.200000C67.200000,335,66.600000,335.700000,65.700000,335.700000Z" fill="rgb(181,186,197)" stroke="none" stroke-width="1"/><path id="epq76acm7c1k23" d="M58.400000,335.700000L58.400000,335.700000C57.600000,335.700000,56.900000,335,56.900000,334.200000L56.900000,323.700000C56.900000,322.900000,57.600000,322.200000,58.400000,322.200000L58.400000,322.200000C59.200000,322.200000,59.900000,322.900000,59.900000,323.700000L59.900000,334.200000C59.900000,335,59.200000,335.700000,58.400000,335.700000Z" fill="rgb(181,186,197)" stroke="none" stroke-width="1"/><path id="epq76acm7c1k24" d="M51.200000,335.700000L51.200000,335.700000C50.400000,335.700000,49.700000,335,49.700000,334.200000L49.700000,323.700000C49.700000,322.900000,50.400000,322.200000,51.200000,322.200000L51.200000,322.200000C52,322.200000,52.700000,322.900000,52.700000,323.700000L52.700000,334.200000C52.800000,335,52.100000,335.700000,51.200000,335.700000Z" fill="rgb(181,186,197)" stroke="none" stroke-width="1"/><circle id="epq76acm7c1k25" r="3.600000" transform="matrix(1 0 0 1 126.50000000000000 360.24999999999972)" fill="rgb(251,215,71)" stroke="none" stroke-width="1"/><circle id="epq76acm7c1k26" r="3.600000" transform="matrix(1 0 0 1 126.50000000000000 328.39999999999964)" fill="rgb(251,215,71)" stroke="none" stroke-width="1"/><circle id="epq76acm7c1k27" r="3.600000" transform="matrix(1 0 0 1 126.50000000000000 296.80000000000001)" fill="rgb(251,215,71)" stroke="none" stroke-width="1"/></g><g id="epq76acm7c1k28"><g id="epq76acm7c1k29"><path id="epq76acm7c1k30" d="M404.400000,312.200000L148.700000,312.200000L148.700000,166.100000C148.700000,160.300000,153.400000,155.600000,159.200000,155.600000L394,155.600000C399.800000,155.600000,404.500000,160.300000,404.500000,166.100000L404.500000,312.200000Z" fill="rgb(57,78,92)" stroke="none" stroke-width="1"/><path id="epq76acm7c1k31" d="M393,340.900000L160.100000,340.900000C153.800000,340.900000,148.600000,335.800000,148.600000,329.400000L148.600000,312.100000L404.300000,312.100000L404.300000,329.400000C404.400000,335.800000,399.300000,340.900000,393,340.900000Z" fill="rgb(248,249,248)" stroke="none" stroke-width="1"/><rect id="epq76acm7c1k32" width="234.200000" height="130.900000" rx="0" ry="0" transform="matrix(1 0 0 1 159.50000000000000 166.90000000000001)" fill="rgb(235,240,244)" stroke="none" stroke-width="1"/><path id="epq76acm7c1k33" d="M303,340.900000L249.800000,340.900000L246.600000,360.400000C245.900000,364.500000,243.400000,368,239.700000,369.800000L231.700000,373.800000L321.400000,373.800000L314.100000,369.600000C311.100000,367.900000,308.900000,365,308.100000,361.600000L303,340.900000Z" fill="rgb(235,240,244)" stroke="none" stroke-width="1"/><polygon id="epq76acm7c1k34" points="304.500000,346.900000 303,340.900000 249.800000,340.900000 248.800000,346.900000" fill="rgb(213,222,222)" stroke="none" stroke-width="1"/></g><rect id="epq76acm7c1k35" width="144.500000" height="157.200000" rx="0" ry="0" transform="matrix(1 0 0 1 171.80000000000001 140.59999999999999)" fill="rgb(255,255,255)" stroke="none" stroke-width="1"/><rect id="epq76acm7c1k36" width="144.500000" height="7" rx="0" ry="0" transform="matrix(1 0 0 1 171.80000000000001 140.59999999999999)" fill="rgb(159,213,221)" stroke="none" stroke-width="1"/><rect id="epq76acm7c1k37" width="12" height="3.500000" rx="0" ry="0" transform="matrix(1 0 0 1 171.80000000000001 144.09999999999999)" fill="rgb(238,115,75)" stroke="none" stroke-width="1"/><rect id="epq76acm7c1k38" width="30.500000" height="3.500000" rx="0" ry="0" transform="matrix(1 0 0 1 183.90000000000001 144.09999999999999)" fill="rgb(237,236,237)" stroke="none" stroke-width="1"/><rect id="epq76acm7c1k39" width="144.500000" height="6.600000" rx="0" ry="0" transform="matrix(1 0 0 1 171.80000000000001 147.59999999999999)" fill="rgb(237,236,237)" stroke="none" stroke-width="1"/><rect id="epq76acm7c1k40" width="119.600000" height="3.200000" rx="0" ry="0" transform="matrix(1 0 0 1 184.30000000000001 149.30000000000001)" fill="rgb(255,255,255)" stroke="none" stroke-width="1"/><rect id="epq76acm7c1k41" width="3.200000" height="3.200000" rx="0" ry="0" transform="matrix(1 0 0 1 174 149.50000000000000)" fill="rgb(214,211,211)" stroke="none" stroke-width="1"/><rect id="epq76acm7c1k42" width="3.200000" height="3.200000" rx="0" ry="0" transform="matrix(1 0 0 1 179.09999999999999 149.50000000000000)" fill="rgb(206,203,203)" stroke="none" stroke-width="1"/><rect id="epq76acm7c1k43" width="0" height="4.100000" rx="0" ry="0" transform="matrix(1 0 0 1 188.19999999999999 183.19999999999999)" fill="rgb(159,213,221)" stroke="none" stroke-width="1"/><rect id="epq76acm7c1k44" width="0" height="4.100000" rx="0" ry="0" transform="matrix(1 0 0 1 218.09999999999999 183.19999999999999)" fill="rgb(159,213,221)" stroke="none" stroke-width="1"/><rect id="epq76acm7c1k45" width="0" height="4.100000" rx="0" ry="0" transform="matrix(1 0 0 1 247.19999999999999 183.19999999999999)" fill="rgb(159,213,221)" stroke="none" stroke-width="1"/><rect id="epq76acm7c1k46" width="0" height="4.100000" rx="0" ry="0" transform="matrix(1 0 0 1 277.10000000000002 183.19999999999999)" fill="rgb(159,213,221)" stroke="none" stroke-width="1"/><rect id="epq76acm7c1k47" width="144.800000" height="42.300000" rx="0" ry="0" transform="matrix(1 0 0 1 171.80000000000001 198.40000000000001)" fill="rgb(210,235,243)" stroke="none" stroke-width="1"/><rect id="epq76acm7c1k48" width="0" height="1.500000" rx="0" ry="0" transform="matrix(1 0 0 1 233.80000000000001 219.09999999999999)" fill="rgb(255,255,255)" stroke="none" stroke-width="1"/><rect id="epq76acm7c1k49" width="0" height="1.500000" rx="0" ry="0" transform="matrix(1 0 0 1 244.30000000000001 222.59999999999999)" fill="rgb(255,255,255)" stroke="none" stroke-width="1"/><rect id="epq76acm7c1k50" width="0" height="1.500000" rx="0" ry="0" transform="matrix(1 0 0 1 233.80000000000001 215.09999999999999)" fill="rgb(255,255,255)" stroke="none" stroke-width="1"/><rect id="epq76acm7c1k51" width="0" height="4.600000" rx="0" ry="0" transform="matrix(1 0 0 1 233.80000000000001 206.90000000000001)" fill="rgb(159,213,221)" stroke="none" stroke-width="1"/><rect id="epq76acm7c1k52" width="0" height="0" rx="0" ry="0" transform="matrix(1 0 0 1 191.30000000000001 205.90000000000001)" fill="rgb(159,213,221)" stroke="none" stroke-width="1"/><rect id="epq76acm7c1k53" width="1" height="2.600000" rx="0" ry="0" transform="matrix(1 0 0 1 199.09999999999999 209.19999999999999)" fill="rgb(255,255,255)" stroke="none" stroke-width="1"/><rect id="epq76acm7c1k54" width="1" height="2.610000" rx="0" ry="0" transform="matrix(1 0 0 1 199.09999999999999 213.79999999960089)" fill="rgb(255,255,255)" stroke="none" stroke-width="1"/><rect id="epq76acm7c1k55" width="2.600000" height="2.600000" rx="0" ry="0" transform="matrix(1 0 0 1 195.69999999999999 213.69999999999999)" opacity="0" fill="rgb(255,255,255)" stroke="none" stroke-width="1"/><rect id="epq76acm7c1k56" width="2.600000" height="2.600000" rx="0" ry="0" transform="matrix(1 0 0 1 195.69999999999999 209.19999999999999)" opacity="0" fill="rgb(255,255,255)" stroke="none" stroke-width="1"/><rect id="epq76acm7c1k57" width="0" height="0" rx="0" ry="0" transform="matrix(1 0 0 1 271.60000000000002 246.80000000000001)" fill="rgb(253,204,104)" stroke="none" stroke-width="1"/><rect id="epq76acm7c1k58" width="0" height="0" rx="0" ry="0" transform="matrix(1 0 0 1 186.30000000000001 246.80000000000001)" fill="rgb(214,211,211)" stroke="none" stroke-width="1"/><rect id="epq76acm7c1k59" width="0" height="0" rx="0" ry="0" transform="matrix(1 0 0 1 229.59999999999999 246.80000000000001)" fill="rgb(188,225,232)" stroke="none" stroke-width="1"/><rect id="epq76acm7c1k60" width="5.300000" height="10.500000" rx="0" ry="0" transform="matrix(1 0 0 1 205.80000000000001 165.19999999999999)" fill="rgb(214,211,211)" stroke="none" stroke-width="1"/><rect id="epq76acm7c1k61" width="28.900000" height="2.400000" rx="0" ry="0" transform="matrix(1 0 0 1 186.30000000000001 276.50000000000000)" fill="rgb(253,204,104)" stroke="none" stroke-width="1"/><rect id="epq76acm7c1k62" width="28.900000" height="1.900000" rx="0" ry="0" transform="matrix(1 0 0 1 186.30000000000001 280.80000000000001)" fill="rgb(206,203,203)" stroke="none" stroke-width="1"/><rect id="epq76acm7c1k63" width="15.200000" height="1.900000" rx="0" ry="0" transform="matrix(1 0 0 1 186.30000000000001 285)" fill="rgb(206,203,203)" stroke="none" stroke-width="1"/><rect id="epq76acm7c1k64" width="28.900000" height="2.400000" rx="0" ry="0" transform="matrix(1 0 0 1 229.30000000000001 276.50000000000000)" fill="rgb(253,204,104)" stroke="none" stroke-width="1"/><rect id="epq76acm7c1k65" width="28.900000" height="1.900000" rx="0" ry="0" transform="matrix(1 0 0 1 229.30000000000001 280.80000000000001)" fill="rgb(206,203,203)" stroke="none" stroke-width="1"/><rect id="epq76acm7c1k66" width="15.200000" height="1.900000" rx="0" ry="0" transform="matrix(1 0 0 1 229.30000000000001 285)" fill="rgb(206,203,203)" stroke="none" stroke-width="1"/><rect id="epq76acm7c1k67" width="28.900000" height="2.400000" rx="0" ry="0" transform="matrix(1 0 0 1 271.39999999999998 276.50000000000000)" fill="rgb(253,204,104)" stroke="none" stroke-width="1"/><rect id="epq76acm7c1k68" width="28.900000" height="1.900000" rx="0" ry="0" transform="matrix(1 0 0 1 271.39999999999998 280.80000000000001)" fill="rgb(206,203,203)" stroke="none" stroke-width="1"/><rect id="epq76acm7c1k69" width="15.200000" height="1.900000" rx="0" ry="0" transform="matrix(1 0 0 1 271.39999999999998 285)" fill="rgb(206,203,203)" stroke="none" stroke-width="1"/></g><g id="epq76acm7c1k70"><path id="epq76acm7c1k71" d="M363.700000,140.300000L343,119.600000L397.700000,133.500000C397.700000,133.500000,399.700000,133.200000,403.100000,136.400000C406.500000,139.600000,428.500000,161.900000,428.500000,161.900000L442.800000,176.300000L415.700000,169.600000L417.400000,166.200000C417.300000,166.300000,418.900000,164.500000,416.200000,160.700000C413.400000,156.900000,404,149,394.200000,144.100000C384.400000,139.300000,374.200000,135.300000,374.200000,135.300000C374.300000,135.700000,367.400000,132.400000,364.800000,138L363.700000,140.300000Z" fill="rgb(72,70,96)" stroke="none" stroke-width="1"/><polygon id="epq76acm7c1k72" points="343,119.600000 345.100000,116.100000 402.500000,130.900000 444.300000,173.300000 442.900000,176.400000 399.700000,134" fill="rgb(115,113,151)" stroke="none" stroke-width="1"/><path id="epq76acm7c1k73" d="M413.200000,141.800000C413.200000,141.800000,413.400000,140.800000,413.700000,140.800000C414,140.800000,429,156.600000,429,156.600000L429,157.700000L413.200000,141.800000Z" fill="rgb(250,178,20)" stroke="none" stroke-width="1"/><path id="epq76acm7c1k74" d="M427.800000,172.700000C427.800000,172.700000,424.100000,172.800000,423.900000,180.900000L421.900000,189.600000C421.900000,189.600000,420.400000,200.200000,421.900000,200.800000L422.700000,202.800000L423.700000,202.300000L424.500000,203.400000L426.100000,202.700000L426.100000,203.400000L427.300000,203.400000L427.800000,204.300000L429.600000,203.600000L430.500000,204.300000C430.500000,204.300000,432.400000,191.600000,431.900000,189.400000C431.400000,187.200000,430.600000,184.200000,430.600000,184.200000L430.600000,175.700000C430.700000,175.700000,430.700000,173.400000,427.800000,172.700000" transform="matrix(1.30000000000000 0 0 1 -127.98256988525395 0)" fill="rgb(250,178,20)" stroke="none" stroke-width="1"/><path id="epq76acm7c1k75" d="M416.900000,167.800000L404.500000,187.500000C398.900000,175.200000,362,154.700000,353.900000,155.600000L365.500000,135.400000C372,128.200000,425.200000,156.300000,416.900000,167.800000Z" fill="rgb(115,113,151)" stroke="none" stroke-width="1"/><g id="epq76acm7c1k76"><path id="epq76acm7c1k77" d="M354.200000,155.200000L354,155.600000C354.300000,155.600000,354.600000,155.600000,355,155.600000C354.700000,155.400000,354.400000,155.300000,354.200000,155.200000Z" fill="rgb(92,91,127)" stroke="none" stroke-width="1"/><path id="epq76acm7c1k78" d="M368.200000,134.300000C382.300000,138.100000,412.800000,159.700000,414.900000,170.900000L416.900000,167.800000C424.400000,157.300000,380.900000,133,368.200000,134.300000Z" fill="rgb(92,91,127)" stroke="none" stroke-width="1"/><path id="epq76acm7c1k79" d="M404.400000,187.300000C404.400000,187.400000,404.500000,187.400000,404.500000,187.500000L405.500000,185.800000L404.400000,187.300000Z" fill="rgb(92,91,127)" stroke="none" stroke-width="1"/></g></g><g id="epq76acm7c1k80"><path id="epq76acm7c1k81" d="M477.600000,306.700000L331.600000,306.700000C328.500000,306.700000,326.100000,304.200000,326.100000,301.200000L326.100000,206C326.100000,202.900000,328.600000,200.500000,331.600000,200.500000L477.600000,200.500000C480.700000,200.500000,483.100000,203,483.100000,206L483.100000,301.200000C483.100000,304.200000,480.600000,306.700000,477.600000,306.700000Z" fill="rgb(255,255,255)" stroke="none" stroke-width="1"/><rect id="epq76acm7c1k82" width="63.800000" height="33.600000" rx="0" ry="0" transform="matrix(1 0 0 1 409.50000000000000 249.50000000000000)" opacity="0" fill="rgb(249,207,228)" stroke="none" stroke-width="1"/><path id="epq76acm7c1k83" d="M482.800000,208.500000L325.700000,208.500000L325.700000,205.800000C325.700000,202.700000,328.200000,200.300000,331.200000,200.300000L477.200000,200.300000C480.300000,200.300000,482.700000,202.800000,482.700000,205.800000L482.700000,208.500000Z" fill="rgb(132,110,175)" stroke="none" stroke-width="1"/><g id="epq76acm7c1k84" transform="matrix(0.10000000000000 0 0 1 352.57499999999999 0)"><g id="epq76acm7c1k85"><g id="epq76acm7c1k86"><polyline id="epq76acm7c1k87" points="424.700000,274 424.700000,275.900000 422.800000,275.900000" fill="none" stroke="rgb(132,110,175)" stroke-width="0.381700" stroke-miterlimit="10"/><line id="epq76acm7c1k88" x1="419.100000" y1="275.900000" x2="362.900000" y2="275.900000" fill="none" stroke="rgb(132,110,175)" stroke-width="0.381700" stroke-miterlimit="10" stroke-dasharray="3.626900,3.626900"/><polyline id="epq76acm7c1k89" points="361.100000,275.900000 359.200000,275.900000 359.200000,274" fill="none" stroke="rgb(132,110,175)" stroke-width="0.381700" stroke-miterlimit="10"/><line id="epq76acm7c1k90" x1="359.200000" y1="270.300000" x2="359.200000" y2="234.900000" fill="none" stroke="rgb(132,110,175)" stroke-width="0.381700" stroke-miterlimit="10" stroke-dasharray="3.729200,3.729200"/><polyline id="epq76acm7c1k91" points="359.200000,233 359.200000,231.100000 361.100000,231.100000" fill="none" stroke="rgb(132,110,175)" stroke-width="0.381700" stroke-miterlimit="10"/><line id="epq76acm7c1k92" x1="364.700000" y1="231.100000" x2="420.900000" y2="231.100000" fill="none" stroke="rgb(132,110,175)" stroke-width="0.381700" stroke-miterlimit="10" stroke-dasharray="3.626900,3.626900"/><polyline id="epq76acm7c1k93" points="422.800000,231.100000 424.700000,231.100000 424.700000,233" fill="none" stroke="rgb(132,110,175)" stroke-width="0.381700" stroke-miterlimit="10"/><line id="epq76acm7c1k94" x1="424.700000" y1="236.700000" x2="424.700000" y2="272.200000" fill="none" stroke="rgb(132,110,175)" stroke-width="0.381700" stroke-miterlimit="10" stroke-dasharray="3.729200,3.729200"/></g></g><rect id="epq76acm7c1k95" width="2.300000" height="2.300000" rx="0" ry="0" transform="matrix(1 0 0 1 358.10000000000002 230)" fill="rgb(132,110,175)" stroke="none" stroke-width="1"/><rect id="epq76acm7c1k96" width="2.300000" height="2.300000" rx="0" ry="0" transform="matrix(1 0 0 1 390.69999999999999 230)" fill="rgb(132,110,175)" stroke="none" stroke-width="1"/><rect id="epq76acm7c1k97" width="2.300000" height="2.300000" rx="0" ry="0" transform="matrix(1 0 0 1 390.69999999999999 274.80000000000001)" fill="rgb(132,110,175)" stroke="none" stroke-width="1"/><rect id="epq76acm7c1k98" width="2.300000" height="2.300000" rx="0" ry="0" transform="matrix(1 0 0 1 423.19999999999999 230)" fill="rgb(132,110,175)" stroke="none" stroke-width="1"/><rect id="epq76acm7c1k99" width="2.300000" height="2.300000" rx="0" ry="0" transform="matrix(1 0 0 1 423.19999999999999 252.40000000000001)" fill="rgb(132,110,175)" stroke="none" stroke-width="1"/><rect id="epq76acm7c1k100" width="2.300000" height="2.300000" rx="0" ry="0" transform="matrix(1 0 0 1 423.19999999999999 274.80000000000001)" fill="rgb(132,110,175)" stroke="none" stroke-width="1"/><rect id="epq76acm7c1k101" width="2.300000" height="2.300000" rx="0" ry="0" transform="matrix(1 0 0 1 358 274.80000000000001)" fill="rgb(132,110,175)" stroke="none" stroke-width="1"/></g><g id="epq76acm7c1k102" transform="matrix(0.10000000000000 0 0 1 352.70999450683593 0)"><path id="epq76acm7c1k103" d="M419.400000,272.800000L364.400000,272.800000C363,272.800000,361.900000,271.700000,361.900000,270.300000L361.900000,236.600000C361.900000,235.200000,363,234.100000,364.400000,234.100000L419.400000,234.100000C420.800000,234.100000,421.900000,235.200000,421.900000,236.600000L421.900000,270.300000C421.900000,271.700000,420.800000,272.800000,419.400000,272.800000Z" fill="rgb(131,207,236)" stroke="none" stroke-width="1"/><path id="epq76acm7c1k104" d="M419.400000,272.800000C420.800000,272.800000,421.900000,271.700000,421.900000,270.300000L421.900000,260.800000L409.900000,249.800000C409,248.900000,407.500000,249,406.700000,249.900000L396.300000,261.200000L388.500000,254C387.600000,253.100000,386.100000,253.200000,385.300000,254.100000L368.300000,272.600000L419.400000,272.600000Z" fill="rgb(28,88,130)" stroke="none" stroke-width="1"/><circle id="epq76acm7c1k105" r="3.700000" transform="matrix(1 0 0 1 370.89999999999998 242.30000000000001)" fill="rgb(133,109,174)" stroke="none" stroke-width="1"/></g><g id="epq76acm7c1k106"><path id="epq76acm7c1k107" d="M347.400000,258.600000L339.100000,258.600000C337.800000,258.600000,336.800000,257.600000,336.800000,256.300000L336.800000,216.700000C336.800000,215.400000,337.800000,214.400000,339.100000,214.400000L347.400000,214.400000C348.700000,214.400000,349.700000,215.400000,349.700000,216.700000L349.700000,256.300000C349.700000,257.600000,348.700000,258.600000,347.400000,258.600000Z" fill="rgb(248,248,252)" stroke="none" stroke-width="1"/><path id="epq76acm7c1k108" d="M349.700000,217.900000L336.800000,217.900000L336.800000,216.800000C336.800000,215.500000,337.800000,214.500000,339.100000,214.500000L347.400000,214.500000C348.700000,214.500000,349.700000,215.500000,349.700000,216.800000L349.700000,217.900000Z" fill="rgb(237,235,247)" stroke="none" stroke-width="1"/><rect id="epq76acm7c1k109" width="4" height="4" rx="0" ry="0" transform="matrix(1 0 0 1 338.60000000000002 220.30000000000001)" fill="rgb(237,235,247)" stroke="none" stroke-width="1"/><rect id="epq76acm7c1k110" width="4" height="4" rx="0" ry="0" transform="matrix(1 0 0 1 343.69999999999999 226.19999999999999)" fill="rgb(237,235,247)" stroke="none" stroke-width="1"/><rect id="epq76acm7c1k111" width="4" height="4" rx="0" ry="0" transform="matrix(1 0 0 1 339.19999999999999 231.90000000000001)" fill="rgb(237,235,247)" stroke="none" stroke-width="1"/><rect id="epq76acm7c1k112" width="4" height="4" rx="0" ry="0" transform="matrix(1 0 0 1 343.69999999999999 237.80000000000001)" fill="rgb(237,235,247)" stroke="none" stroke-width="1"/></g><circle id="epq76acm7c1k113" r="1.600000" transform="matrix(1 0 0 1 475.80000000000001 204.19999999999999)" fill="rgb(131,207,236)" stroke="none" stroke-width="1"/><circle id="epq76acm7c1k114" r="1.600000" transform="matrix(1 0 0 1 467.10000000000002 204.19999999999999)" fill="rgb(154,207,175)" stroke="none" stroke-width="1"/><circle id="epq76acm7c1k115" r="1.600000" transform="matrix(1 0 0 1 457.89999999999998 204.19999999999999)" fill="rgb(229,153,194)" stroke="none" stroke-width="1"/><g id="epq76acm7c1k116"><path id="epq76acm7c1k117" d="M420.900000,226.200000L356.100000,226.200000C354.800000,226.200000,353.800000,225.200000,353.800000,223.900000L353.800000,218C353.800000,216.700000,354.800000,215.700000,356.100000,215.700000L420.900000,215.700000C422.200000,215.700000,423.200000,216.700000,423.200000,218L423.200000,223.800000C423.200000,225.100000,422.100000,226.200000,420.900000,226.200000Z" fill="rgb(250,247,252)" stroke="none" stroke-width="1"/><circle id="epq76acm7c1k118" r="3.400000" transform="matrix(1 0 0 1 365.89999999999998 220.90000000000001)" opacity="0" fill="rgb(237,115,169)" stroke="none" stroke-width="1"/><circle id="epq76acm7c1k119" r="3.400000" transform="matrix(1 0 0 1 375 220.90000000000001)" opacity="0" fill="rgb(173,79,152)" stroke="none" stroke-width="1"/><circle id="epq76acm7c1k120" r="3.400000" transform="matrix(1 0 0 1 384.10000000000002 220.90000000000001)" opacity="0" fill="rgb(133,109,174)" stroke="none" stroke-width="1"/><circle id="epq76acm7c1k121" r="3.400000" transform="matrix(1 0 0 1 411.39999999999998 220.90000000000001)" opacity="0" fill="rgb(242,152,181)" stroke="none" stroke-width="1"/><circle id="epq76acm7c1k122" r="3.400000" transform="matrix(1 0 0 1 402.30000000000001 220.90000000000001)" opacity="0" fill="rgb(0,176,200)" stroke="none" stroke-width="1"/><circle id="epq76acm7c1k123" r="3.400000" transform="matrix(1 0 0 1 393.19999999999999 220.90000000000001)" opacity="0" fill="rgb(63,40,117)" stroke="none" stroke-width="1"/><polygon id="epq76acm7c1k124" points="421.400000,220.900000 419.600000,219.900000 419.600000,222" fill="rgb(223,218,238)" stroke="none" stroke-width="1"/><polygon id="epq76acm7c1k125" points="355.900000,220.900000 357.700000,219.900000 357.700000,222" fill="rgb(223,218,238)" stroke="none" stroke-width="1"/></g><g id="epq76acm7c1k126"><path id="epq76acm7c1k127" d="M402.600000,293L345.600000,293C344.300000,293,343.300000,292,343.300000,290.700000L343.300000,286.600000C343.300000,285.300000,344.300000,284.300000,345.600000,284.300000L402.600000,284.300000C403.900000,284.300000,404.900000,285.300000,404.900000,286.600000L404.900000,290.700000C404.900000,291.900000,403.900000,293,402.600000,293Z" fill="rgb(248,248,252)" stroke="none" stroke-width="1"/><rect id="epq76acm7c1k128" width="57.600000" height="2.700000" rx="0" ry="0" transform="matrix(1 0 0 1 345.60000000000002 287.30000000000001)" fill="url(#epq76acm7c1k128-fill)" stroke="none" stroke-width="1"/></g><path id="epq76acm7c1k129" d="M469.700000,251.300000L437.300000,251.300000C435.700000,251.300000,434.400000,250,434.400000,248.400000L434.400000,228C434.400000,226.400000,435.700000,225.100000,437.300000,225.100000L469.700000,225.100000C471.300000,225.100000,472.600000,226.400000,472.600000,228L472.600000,248.400000C472.600000,250,471.300000,251.300000,469.700000,251.300000Z" fill="rgb(237,114,169)" stroke="none" stroke-width="1"/><path id="epq76acm7c1k130" d="M472.600000,228.500000L434.500000,228.500000L434.500000,228C434.500000,226.400000,435.800000,225.100000,437.400000,225.100000L469.800000,225.100000C471.400000,225.100000,472.700000,226.400000,472.700000,228L472.700000,228.500000Z" fill="rgb(201,81,134)" stroke="none" stroke-width="1"/><rect id="epq76acm7c1k131" width="4.600000" height="4.600000" rx="0" ry="0" transform="matrix(1 0 0 1 437.39999999999998 232.69999999999999)" fill="rgb(201,81,134)" stroke="none" stroke-width="1"/><rect id="epq76acm7c1k132" width="4.600000" height="4.600000" rx="0" ry="0" transform="matrix(1 0 0 1 464.89999999999998 232.69999999999999)" fill="rgb(201,81,134)" stroke="none" stroke-width="1"/><rect id="epq76acm7c1k133" width="4.600000" height="4.600000" rx="0" ry="0" transform="matrix(1 0 0 1 444.30000000000001 232.69999999999999)" fill="rgb(234,162,197)" stroke="none" stroke-width="1"/><rect id="epq76acm7c1k134" width="4.600000" height="4.600000" rx="0" ry="0" transform="matrix(1 0 0 1 451.19999999999999 232.69999999999999)" fill="rgb(201,81,134)" stroke="none" stroke-width="1"/><rect id="epq76acm7c1k135" width="4.600000" height="4.600000" rx="0" ry="0" transform="matrix(1 0 0 1 458.10000000000002 232.69999999999999)" fill="rgb(234,162,197)" stroke="none" stroke-width="1"/><rect id="epq76acm7c1k136" width="4.600000" height="4.600000" rx="0" ry="0" transform="matrix(1 0 0 1 458.10000000000002 239.90000000000001)" fill="rgb(201,81,134)" stroke="none" stroke-width="1"/><rect id="epq76acm7c1k137" width="4.600000" height="4.600000" rx="0" ry="0" transform="matrix(1 0 0 1 437.39999999999998 239.90000000000001)" fill="rgb(234,162,197)" stroke="none" stroke-width="1"/><rect id="epq76acm7c1k138" width="4.600000" height="4.600000" rx="0" ry="0" transform="matrix(1 0 0 1 444.30000000000001 239.90000000000001)" fill="rgb(201,81,134)" stroke="none" stroke-width="1"/><rect id="epq76acm7c1k139" width="4.600000" height="4.600000" rx="0" ry="0" transform="matrix(1 0 0 1 451.19999999999999 239.90000000000001)" fill="rgb(234,162,197)" stroke="none" stroke-width="1"/><rect id="epq76acm7c1k140" width="4.600000" height="4.600000" rx="0" ry="0" transform="matrix(1 0 0 1 464.89999999999998 239.90000000000001)" fill="rgb(234,162,197)" stroke="none" stroke-width="1"/></g><g id="epq76acm7c1k141"><path id="epq76acm7c1k142" d="M87.300000,235.500000C87.300000,235.500000,90.700000,235.200000,91.700000,244.800000C92.700000,254.400000,93.900000,260.900000,93.900000,260.900000L94.100000,262.900000L105.400000,269.800000L109.400000,271.400000L112.800000,263.100000C112.800000,263.100000,111.400000,259.700000,111.700000,255.400000C112,251.100000,111.200000,239.400000,111.200000,239.400000L110.900000,235.900000L105,232.500000C105,232.500000,107.500000,238.700000,102.100000,240.500000C96.700000,242.200000,95,231.900000,95,231.900000L87.300000,235.500000Z" fill="rgb(252,193,32)" stroke="none" stroke-width="1"/><path id="epq76acm7c1k143" d="M96.100000,231.300000C96.100000,231.300000,97.300000,229.100000,97.200000,228.400000L98.100000,226.600000C98.100000,226.600000,97.100000,224.400000,97.100000,224C97.100000,223.700000,96.600000,221.400000,98.400000,222.100000C98.800000,222.300000,99.200000,224.300000,99.100000,224.300000C99.100000,224.300000,99.900000,224.500000,100,223.100000C100.100000,221.700000,100.500000,218.900000,100.500000,218.900000C100.500000,218.900000,100.700000,217.200000,102.400000,219.200000L105.800000,221C105.800000,221,108.100000,222.100000,109.400000,221.600000L109.100000,223.100000C109.100000,223.100000,109.900000,223.900000,108.500000,225.400000C108.500000,225.400000,108.900000,230.900000,104.900000,231.900000L103.400000,232C103.400000,232,104.200000,236.600000,101.100000,236.400000C98,236.200000,97.400000,233.800000,96.900000,232.800000C96.400000,231.800000,96.200000,231,96.200000,231" fill="rgb(251,208,186)" stroke="none" stroke-width="1"/><path id="epq76acm7c1k144" d="M88.600000,267.400000L88.600000,273.400000L102.200000,273.400000L102.600000,272.800000C102.600000,272.800000,92.500000,271.800000,90.600000,269.700000C88.600000,267.600000,88.600000,267.400000,88.600000,267.400000" fill="rgb(252,193,32)" stroke="none" stroke-width="1"/><path id="epq76acm7c1k145" d="M87.300000,235.500000C87.300000,235.800000,82.500000,238.100000,84.800000,252.100000C87.200000,266.300000,85.900000,261.800000,88.500000,267.400000C91.100000,272.900000,105.100000,272.800000,105.100000,272.800000L105.300000,269.800000L94,262.900000L91,241C91.100000,241,89.700000,235.400000,87.300000,235.500000" fill="rgb(255,255,255)" stroke="none" stroke-width="1"/><polygon id="epq76acm7c1k146" points="105.400000,269.800000 105.200000,272.800000 109.400000,272.700000 109.300000,271.300000" fill="rgb(251,208,185)" stroke="none" stroke-width="1"/><path id="epq76acm7c1k147" d="M94.900000,231.800000L96.100000,231.300000C96.100000,231.300000,98.100000,237,100.600000,236.700000C103.100000,236.400000,103.100000,234.600000,103.100000,234.600000L103.300000,232.200000L104.400000,232.100000L104.800000,232.100000L104.900000,232.400000C104.900000,232.400000,107.600000,240.100000,101.400000,240.500000C95.700000,240.900000,95,231.600000,94.900000,231.800000" fill="rgb(255,254,255)" stroke="none" stroke-width="1"/><path id="epq76acm7c1k148" d="M110.800000,235.800000C110.800000,235.800000,112.500000,237.500000,114,242.600000C115.500000,247.700000,118.400000,253.600000,118.400000,253.600000L116,253.600000L114.600000,258.200000L111.600000,254.700000" fill="rgb(255,254,255)" stroke="none" stroke-width="1"/><path id="epq76acm7c1k149" d="M89.100000,273.400000C88.700000,273.400000,89.300000,285.300000,104,285.200000C104,285.200000,100,319.100000,99.300000,319.200000C98.600000,319.300000,100.700000,319.200000,100.700000,319.200000L104.600000,319.200000L114.200000,284.800000L117.300000,285.900000L118.600000,318L124.300000,318.100000L127.300000,286.400000L127.700000,282.100000C128.400000,278.100000,126.700000,275.500000,121.500000,275L95.300000,274.900000L95,273.300000L89.100000,273.300000Z" fill="rgb(32,35,74)" stroke="none" stroke-width="1"/><path id="epq76acm7c1k150" d="M100.200000,319.200000L98.900000,323.700000C98.800000,324.400000,99.100000,325.100000,99.700000,325.400000L105.100000,329C105.100000,329,107,330,106.500000,328.400000C106.100000,326.900000,103.500000,322.900000,103.500000,322.900000L104,319.200000" fill="rgb(52,57,71)" stroke="none" stroke-width="1"/><path id="epq76acm7c1k151" d="M119.400000,318.100000L119.600000,322.200000C119.600000,322.800000,119.900000,323.300000,120.400000,323.500000L125,326C125,326,127.100000,326.900000,126.800000,325.500000C126.600000,324.700000,123.400000,321.600000,123.300000,321.400000C123.300000,321.200000,123.200000,318.100000,123.200000,318.100000L119.400000,318.100000Z" fill="rgb(52,57,71)" stroke="none" stroke-width="1"/><path id="epq76acm7c1k152" d="M97.200000,228.400000C97.200000,228.400000,98.200000,227,98.100000,226.600000C98.100000,226.200000,97.400000,225,97.200000,224.500000C97,223.900000,96.800000,222.200000,97.500000,222.100000C98.200000,222.100000,98.800000,221.800000,99,223.500000C99.100000,225.200000,99.900000,224.100000,99.900000,224.100000L100.100000,222.900000L100.400000,219.900000C100.400000,219.900000,100.700000,217.800000,101.200000,218.400000C101.800000,218.900000,107.400000,222.500000,109.200000,221.800000C110.300000,221.400000,111,220.300000,111.500000,219.500000C111.800000,219,111.700000,218.300000,111.300000,217.900000C110.100000,216.600000,107.300000,213.700000,105.100000,213.500000C102.300000,213.300000,99.500000,215.600000,99.500000,215.600000L98,215.800000C97,215.900000,96.100000,216.400000,95.600000,217.300000C95.300000,217.900000,95,218.600000,95.100000,219.400000C95.300000,221.200000,97,226.300000,97.100000,226.700000C97.200000,227.100000,97.200000,228.400000,97.200000,228.400000" fill="rgb(55,55,69)" stroke="none" stroke-width="1"/><path id="epq76acm7c1k153" d="M100,223C100,222.800000,99.600000,224.100000,102,224.900000C102,224.900000,104.300000,225.200000,104.600000,223.200000L105.300000,223.200000C105.100000,224.100000,106.400000,225.200000,107.200000,225.300000C107.900000,225.400000,109.200000,224.900000,109.100000,223.400000C109.100000,223.400000,108.100000,222.800000,105.300000,222.900000C105.300000,222.900000,104.800000,222.900000,104.700000,222.900000C103.600000,222.600000,102.700000,222,100.100000,222.100000L100,223Z" fill="none" stroke="rgb(59,59,71)" stroke-width="0.464600" stroke-miterlimit="10"/><polygon id="epq76acm7c1k154" points="94.500000,273.400000 109.400000,273.400000 116,253.600000 139.900000,253.600000 132.600000,275 94.800000,275.100000" fill="rgb(223,228,240)" stroke="none" stroke-width="1"/><path id="epq76acm7c1k155" d="M127.700000,265.300000C127.700000,266.900000,126.500000,268.200000,125.100000,268.200000C123.600000,268.200000,122.500000,266.900000,122.500000,265.300000C122.500000,263.700000,123.700000,262.400000,125.100000,262.400000C126.500000,262.300000,127.700000,263.600000,127.700000,265.300000" fill="rgb(181,185,195)" stroke="none" stroke-width="1"/><polygon id="epq76acm7c1k156" points="102.100000,273.400000 102.500000,272.800000 109.400000,272.700000 109.400000,273.400000" fill="rgb(173,179,184)" stroke="none" stroke-width="1"/><polygon id="epq76acm7c1k157" points="109.400000,272.700000 109.300000,271.300000 112.700000,263 109.400000,273.400000" fill="rgb(232,210,187)" stroke="none" stroke-width="1"/></g><g id="epq76acm7c1k158"><circle id="epq76acm7c1k159" r="17.900000" transform="matrix(1 0 0 1 180.69999999999999 274.80000000000001)" fill="rgb(59,56,53)" stroke="none" stroke-width="1"/><g id="epq76acm7c1k160"><text id="epq76acm7c1k161" dx="0" dy="0" font-family="MicrosoftYaHei-Bold" font-size="18.984900" transform="matrix(1 0 0 1 170.43199999999999 280.53100000000001)" fill="rgb(92,173,157)" stroke="none" stroke-width="1"><![CDATA[{ }]]></text></g><ellipse id="epq76acm7c1k162" rx="15.800000" ry="20.500000" transform="matrix(0.04839800000000 -0.99880000000000 0.99880000000000 0.04839800000000 121.07693799999998 184.10227179999998)" fill="rgb(95,177,166)" stroke="none" stroke-width="1"/><text id="epq76acm7c1k163" dx="0" dy="0" font-family="MicrosoftYaHei-Bold" font-size="14.175400" transform="matrix(1 0 0 1 107.73999999999999 188.29900000000001)" fill="rgb(19,17,12)" stroke="none" stroke-width="1"><![CDATA[CSS]]></text><ellipse id="epq76acm7c1k164" rx="18.200000" ry="13.200000" transform="matrix(1 0 0 1 59.90000000000000 239.59999999999999)" fill="rgb(95,177,166)" stroke="none" stroke-width="1"/><text id="epq76acm7c1k165" dx="0" dy="0" font-family="MicrosoftYaHei-Bold" font-size="11.899400" transform="matrix(1 0 0 1 47.28470000000000 243.73900000000000)" fill="rgb(19,17,12)" stroke="none" stroke-width="1"><![CDATA[PHP]]></text><ellipse id="epq76acm7c1k166" rx="15.200000" ry="11" transform="matrix(1 0 0 1 137.59999999999999 215.90000000000001)" fill="rgb(55,54,60)" stroke="none" stroke-width="1"/><g id="epq76acm7c1k167"><text id="epq76acm7c1k168" dx="0" dy="0" font-family="MicrosoftYaHei-Bold" font-size="8.159300" transform="matrix(1 0 0 1 127.54900000000001 218.77300000000000)" fill="rgb(242,141,24)" stroke="none" stroke-width="1"><tspan id="epq76acm7c1k169" font-family="MicrosoftYaHei-Bold" font-size="8.159300" stroke="none" stroke-width="0"><![CDATA[JAVA]]></tspan></text></g></g><g id="epq76acm7c1k170"><g id="epq76acm7c1k171"><path id="epq76acm7c1k172" d="M210.200000,311.500000C209.500000,315.200000,210.500000,346.400000,210.900000,349.800000C211.300000,353.200000,212.900000,373.400000,212.900000,373.400000C212.900000,373.400000,214.200000,374.100000,215.900000,373.900000C217.700000,373.700000,219.300000,373.500000,219.300000,373.500000L223.800000,340.800000C223.800000,340.800000,224.700000,343.600000,225.300000,346.200000C225.800000,348.800000,227.400000,358.900000,228.400000,362.100000C229.400000,365.300000,233,373.900000,233,373.900000C233,373.900000,236.400000,373.600000,237.700000,373.100000C239,372.600000,240.100000,371.800000,240.100000,371.800000C240.100000,371.800000,236.900000,353.700000,236.300000,346.600000C235.700000,339.600000,235.200000,319.800000,235,317.600000C234.800000,315.500000,233.900000,311.400000,233.900000,311.400000L210.200000,311.400000Z" fill="rgb(43,45,103)" stroke="none" stroke-width="1"/><path id="epq76acm7c1k173" d="M235.300000,321.900000C235.200000,319.700000,235.100000,318.200000,235.100000,317.700000C234.900000,315.600000,234,311.500000,234,311.500000L227.700000,311.500000L224,340.900000C224,340.900000,224.300000,341.700000,224.600000,342.900000L235.300000,321.900000Z" fill="rgb(34,36,78)" stroke="none" stroke-width="1"/><path id="epq76acm7c1k174" d="M216.800000,266C217.100000,266.900000,217.200000,267.100000,217.200000,267.100000C217.200000,267.100000,217.200000,270,217,271C216.800000,272,216.600000,272.500000,216.600000,272.500000L215.400000,274.100000L219.700000,276.400000L224.100000,275.400000L225.900000,272.600000L227.700000,270.700000C227.700000,270.700000,229.200000,267.900000,228.700000,267C228.200000,266.100000,226.300000,266.800000,226.300000,266.800000C226.300000,266.800000,226.800000,264.800000,226.400000,262.300000C226,259.800000,225.900000,259.100000,225.900000,259.100000L218.300000,259L216.900000,262.400000L216.800000,266Z" fill="rgb(250,190,128)" stroke="none" stroke-width="1"/><path id="epq76acm7c1k175" d="M217.200000,268.100000C217.200000,268.100000,218.600000,270.300000,220.500000,271.100000C222.400000,271.900000,224.500000,271.300000,224.500000,271.300000L224.900000,270.700000C224.900000,270.700000,224.400000,268.600000,225.200000,267.600000C226,266.600000,226.300000,266.700000,226.300000,266.700000L226.400000,266.300000C226.400000,266.300000,225,266.700000,224.500000,267.800000C224,268.800000,224.300000,269.100000,224.300000,269.100000C224.300000,269.100000,221.500000,269.500000,219.700000,268.800000C217.900000,268.100000,217.200000,267.100000,217.200000,267.100000L217.200000,268.100000Z" fill="rgb(229,150,58)" stroke="none" stroke-width="1"/><path id="epq76acm7c1k176" d="M216.600000,272.500000C216.600000,272.500000,207,273.900000,206.100000,277.300000C205.100000,280.800000,208,285.400000,208.500000,286.200000C209,287,210.700000,289.100000,210.700000,289.100000C210.700000,289.100000,209,309.800000,209.300000,310.400000C209.500000,311,209.700000,311.300000,210.300000,311.600000C210.900000,311.900000,219.900000,314.100000,226.500000,313.600000C233.100000,313.100000,234.500000,311.600000,234.500000,311.100000C234.500000,310.600000,233.600000,297.900000,233.600000,297.900000C233.600000,297.900000,236.100000,297.900000,236.700000,297.900000C237.300000,297.900000,239.700000,296.900000,239,292.200000C238.400000,287.500000,236.200000,276.300000,234.200000,274.500000C232.200000,272.600000,228,272.400000,228,272.400000L228,270.600000C228,270.600000,225.900000,269.900000,225,270.500000C224.100000,271.100000,223.700000,271.900000,223.700000,271.900000L222.600000,274.700000C222.600000,274.700000,219.700000,275.600000,217.800000,274.300000C215.900000,273.100000,216.600000,272.500000,216.600000,272.500000Z" fill="rgb(244,156,0)" stroke="none" stroke-width="1"/><path id="epq76acm7c1k177" d="M213.500000,291.800000C213.500000,291.800000,213,292.500000,213.300000,293.400000C213.600000,294.300000,214.500000,296,215,296.200000C215.500000,296.400000,217.700000,296.800000,217.700000,296.800000L218.700000,294.600000L213.500000,291.800000Z" fill="rgb(250,190,128)" stroke="none" stroke-width="1"/><path id="epq76acm7c1k178" d="M210.600000,289.200000C212.200000,290.800000,217.200000,292.600000,218,292.500000C218.800000,292.500000,221.600000,290.700000,224.700000,283.800000C227.800000,276.900000,227.900000,274.800000,227.900000,274.800000C227.900000,274.800000,227.200000,287.100000,223.700000,290.900000C220.200000,294.700000,219.700000,294.700000,219.200000,294.700000C218.700000,294.700000,215.800000,293.800000,213.800000,292.400000C211.800000,291.100000,210.600000,289.200000,210.600000,289.200000Z" fill="rgb(233,125,3)" stroke="none" stroke-width="1"/><path id="epq76acm7c1k179" d="M233.600000,298.100000C232.800000,298.100000,224.600000,298.200000,221.200000,297.600000C217.800000,297,216.300000,296.600000,216.300000,296.600000C216.300000,296.600000,218.900000,299.700000,224.700000,301.400000C230.500000,303.100000,233.800000,303.500000,233.800000,303.500000L233.600000,298.100000Z" fill="rgb(233,125,3)" stroke="none" stroke-width="1"/><path id="epq76acm7c1k180" d="M232.700000,282.800000C232.700000,282.800000,235,288.100000,235.300000,289.500000C235.600000,290.900000,235.600000,291.500000,235.600000,291.500000C235.600000,291.500000,234.300000,291.300000,233.500000,291.500000C232.700000,291.800000,232.200000,292.500000,231.800000,291C231.400000,289.500000,232.700000,282.800000,232.700000,282.800000Z" fill="rgb(233,125,3)" stroke="none" stroke-width="1"/><path id="epq76acm7c1k181" d="M216.800000,267C216.800000,267,214.900000,263.100000,214.200000,262.500000C213.500000,261.900000,213.500000,259.500000,213.900000,258.100000C214.300000,256.700000,215.400000,255.400000,215.900000,255.100000C216.400000,254.800000,216.600000,254.700000,216.600000,254.700000C216.600000,254.700000,216.500000,254.600000,216.400000,254.600000C216.400000,254.600000,216.400000,254.500000,216.600000,254.500000C216.800000,254.500000,217,254.600000,217,254.600000C217,254.600000,217,254.200000,217.200000,254C217.400000,253.800000,217.600000,253.700000,217.600000,253.700000C217.600000,253.700000,217.300000,253.900000,217.300000,254C217.300000,254.100000,217.300000,254.300000,217.300000,254.300000C217.300000,254.300000,218.500000,253.600000,220.300000,253.400000C222.100000,253.200000,224.100000,254.600000,225.900000,254.800000C227.100000,254.900000,227.400000,254.900000,227.400000,254.900000C227.400000,254.900000,227.700000,256.900000,227.300000,257.700000C226.900000,258.500000,226.500000,259.100000,225.900000,259.200000C225.300000,259.300000,222.100000,259.400000,221.100000,259.800000C220.100000,260.300000,220.100000,261,220.100000,261.400000C220.100000,261.800000,220.100000,262.600000,219.800000,262.800000C219.500000,263.100000,217.300000,263.500000,217.200000,264.300000C217,265.100000,217.300000,265.300000,217.200000,265.800000C217.100000,266.400000,216.800000,267,216.800000,267Z" fill="rgb(51,58,94)" stroke="none" stroke-width="1"/><path id="epq76acm7c1k182" d="M213.100000,373.500000C212.900000,374.300000,213.100000,375.800000,214.100000,376.200000C215.100000,376.600000,221.500000,376.800000,223.400000,376.500000C225.200000,376.100000,224.900000,374.600000,222.600000,374.900000C220.300000,375.200000,220.500000,373.800000,218.800000,373.500000C217.100000,373.200000,213.100000,373.500000,213.100000,373.500000Z" fill="rgb(51,58,94)" stroke="none" stroke-width="1"/><path id="epq76acm7c1k183" d="M233.500000,373.200000C233.300000,374,233.900000,375.400000,234.800000,375.800000C235.700000,376.200000,242.200000,376.100000,244.100000,376.100000C246.700000,376.100000,248.800000,375.700000,243.300000,374.500000C241.100000,374,240.700000,372.200000,239.100000,372C237.300000,371.700000,233.500000,373.200000,233.500000,373.200000Z" fill="rgb(51,58,94)" stroke="none" stroke-width="1"/></g></g><g id="epq76acm7c1k184"><path id="epq76acm7c1k185" d="M260.500000,339.200000L254.800000,339.200000L254.800000,306.800000C254.800000,306.500000,255.100000,306.200000,255.400000,306.200000L260.500000,306.200000C260.800000,306.200000,261.100000,306.500000,261.100000,306.800000L261.100000,338.500000C261.100000,338.900000,260.800000,339.200000,260.500000,339.200000Z" fill="rgb(171,200,234)" stroke="none" stroke-width="1"/><path id="epq76acm7c1k186" d="M254.200000,339.200000L248.500000,339.200000L248.500000,306.800000C248.500000,306.500000,248.800000,306.200000,249.100000,306.200000L254.200000,306.200000C254.500000,306.200000,254.800000,306.500000,254.800000,306.800000L254.800000,338.500000C254.800000,338.900000,254.500000,339.200000,254.200000,339.200000Z" fill="rgb(196,219,243)" stroke="none" stroke-width="1"/><path id="epq76acm7c1k187" d="M263.300000,342.900000L250.800000,342.900000C249.500000,342.900000,248.500000,341.900000,248.500000,340.600000L248.500000,339.200000L263.300000,339.200000L263.300000,342.900000Z" fill="rgb(171,200,234)" stroke="none" stroke-width="1"/><path id="epq76acm7c1k188" d="M284.800000,342.900000L262.800000,342.900000C261.800000,342.900000,261,342.100000,261,341.100000L261,341.100000C261,340.100000,261.800000,339.300000,262.800000,339.300000L284.800000,339.300000C285.100000,339.300000,285.400000,339.600000,285.400000,339.900000L285.400000,342.400000C285.400000,342.600000,285.100000,342.900000,284.800000,342.900000Z" fill="rgb(196,219,243)" stroke="none" stroke-width="1"/><polygon id="epq76acm7c1k189" points="255.200000,342.900000 251.600000,375.800000 254,375.800000 258.500000,342.900000" fill="rgb(171,200,234)" stroke="none" stroke-width="1"/><polygon id="epq76acm7c1k190" points="281.200000,342.900000 284.800000,375.800000 282.400000,375.800000 277.900000,342.900000" fill="rgb(171,200,234)" stroke="none" stroke-width="1"/><polygon id="epq76acm7c1k191" points="313.800000,325.500000 314.500000,375.800000 312.900000,375.800000 309.700000,325.500000" fill="rgb(51,58,94)" stroke="none" stroke-width="1"/><path id="epq76acm7c1k192" d="M307.200000,368.900000C308.200000,370.600000,308.400000,371.500000,308.400000,371.800000C308.400000,372.100000,310.200000,373.400000,311.500000,373.200000C312.800000,373,313.900000,371.900000,313.900000,371.900000L310,367L307.200000,368.900000Z" fill="rgb(250,190,128)" stroke="none" stroke-width="1"/><path id="epq76acm7c1k193" d="M293.300000,367.900000C293.400000,369.600000,292.500000,372.500000,292.500000,373.100000C292.500000,373.800000,298.600000,374.200000,298.600000,374.200000L301.800000,373.700000C301.800000,373.700000,299.600000,372.500000,298.600000,372.300000C297.600000,372.100000,297,370.300000,297.100000,369.600000C297.200000,368.900000,297.400000,367.500000,297.400000,367.500000L293.300000,367.900000Z" fill="rgb(250,190,128)" stroke="none" stroke-width="1"/><path id="epq76acm7c1k194" d="M267.600000,325C267.600000,325,290.700000,325.400000,294.900000,326.300000C301.800000,327.800000,301.200000,340,301,345.700000C300.800000,351.300000,298.300000,369.700000,298.300000,369.700000L292.200000,369.700000C292.200000,369.700000,291.300000,349.200000,290.900000,345.200000C290.500000,341.200000,285.300000,339.100000,282.700000,339.300000C280.100000,339.500000,268.900000,337.300000,268.900000,337.300000L267.600000,325Z" fill="rgb(34,36,78)" stroke="none" stroke-width="1"/><path id="epq76acm7c1k195" d="M255.700000,326.500000C255.700000,326.500000,254.800000,330,255.500000,333.700000C256.200000,337.400000,257.600000,339.200000,257.600000,339.200000L273.800000,339.200000C273.800000,339.200000,281.200000,339.600000,283.600000,339.900000C285.900000,340.100000,288.700000,347,291.700000,351.100000C294.700000,355.300000,306.900000,371.400000,306.900000,371.400000L312.200000,368.600000C312.200000,368.600000,301.200000,344.800000,297.200000,338.800000C293.100000,332.600000,290.500000,327.300000,282.700000,327C274.900000,326.700000,265.500000,325,265.500000,325L255.700000,326.500000Z" fill="rgb(51,44,114)" stroke="none" stroke-width="1"/><path id="epq76acm7c1k196" d="M292.600000,372C292.400000,372.200000,291.300000,375.500000,291.900000,375.700000C292.400000,375.900000,303.900000,376,304.500000,375.600000C305.100000,375.200000,305,373.900000,303,373.800000C301,373.700000,298.300000,371.800000,298,371.300000C297.700000,370.800000,296.400000,371.300000,296.600000,371.600000C296.800000,371.900000,297.500000,372.500000,296.900000,372.700000C296.400000,372.900000,294.100000,372.900000,293.500000,372.600000C292.800000,372.400000,292.600000,372,292.600000,372Z" fill="rgb(55,53,55)" stroke="none" stroke-width="1"/><path id="epq76acm7c1k197" d="M308.500000,371.800000C308.300000,372,307.200000,375.300000,307.800000,375.500000C308.400000,375.700000,319.800000,375.800000,320.400000,375.400000C321,375,320.900000,373.700000,318.900000,373.600000C316.900000,373.500000,314.200000,371.600000,313.900000,371.100000C313.600000,370.600000,312.300000,371.100000,312.500000,371.400000C312.700000,371.700000,313.400000,372.300000,312.800000,372.500000C312.200000,372.700000,310,372.700000,309.400000,372.400000C308.700000,372.200000,308.500000,371.800000,308.500000,371.800000Z" fill="rgb(55,53,55)" stroke="none" stroke-width="1"/><path id="epq76acm7c1k198" d="M255.800000,310C255.600000,311.100000,254.200000,325.800000,255.100000,330.400000C255.100000,330.400000,257.600000,326.300000,265.900000,325.400000C274.200000,324.600000,274.800000,322.800000,274.800000,322.800000L275.600000,312.200000L276.700000,314.700000L280,306.300000C280,306.300000,277.700000,293.700000,274.600000,292.900000C271.500000,292.200000,268.400000,291.100000,265.500000,291.100000C262.600000,291,254.800000,291.600000,252.200000,294.300000C249.500000,297,246.100000,311.100000,246.100000,315.600000C246,320,247,321,249.800000,321.500000C252.600000,322,255.300000,322,255.300000,322L256.100000,315.200000C256.100000,315.200000,255.100000,315.100000,254.700000,314.600000C254.300000,314.100000,255.800000,310,255.800000,310Z" fill="rgb(255,255,255)" stroke="none" stroke-width="1"/><path id="epq76acm7c1k199" d="M276.200000,301.700000C276.100000,297.700000,274.800000,293.800000,274,292.900000C272.700000,292.600000,271.400000,292.200000,270.200000,291.900000C270.500000,293.200000,270.800000,296,268.200000,296.800000C265.100000,297.700000,262.100000,294.200000,260.200000,291.500000C259,291.600000,257.800000,291.900000,256.600000,292.200000C259.500000,301.100000,258.300000,304.300000,257.800000,306.600000C257.300000,308.800000,255.800000,310.100000,255.800000,310.100000C255.700000,310.500000,255.500000,312.500000,255.300000,315.100000C256.600000,315.500000,259.500000,316.200000,260.400000,316.400000C261.500000,316.700000,264.900000,317.400000,265.300000,317.800000C265.700000,318.200000,265.700000,321.200000,265.500000,321.400000C265.300000,321.600000,259.500000,321.900000,258,322.100000C257.100000,322.200000,255.800000,322.200000,254.900000,322.200000C254.800000,325.600000,254.800000,328.800000,255.100000,330.600000C255.100000,330.600000,257.600000,326.500000,265.900000,325.600000C274.200000,324.800000,274.800000,323,274.800000,323L275.600000,312.400000L275.600000,312.500000C275.700000,310.300000,276.300000,306.400000,276.200000,301.700000Z" fill="rgb(182,200,205)" stroke="none" stroke-width="1"/><path id="epq76acm7c1k200" d="M274.600000,323C272.900000,322.500000,270.500000,321.700000,270.200000,320.200000C269.600000,317.800000,261.400000,315.200000,259.500000,314.300000C258.100000,313.600000,257.700000,310.200000,257.600000,307.300000C257,309.100000,255.800000,310,255.800000,310C255.700000,310.400000,255.500000,312.400000,255.300000,315C256.600000,315.400000,259.500000,316.100000,260.400000,316.300000C261.500000,316.600000,264.900000,317.300000,265.300000,317.700000C265.700000,318.100000,265.700000,321.100000,265.500000,321.300000C265.300000,321.500000,259.500000,321.800000,258,322C257.100000,322.100000,255.800000,322.100000,254.900000,322.100000C254.800000,325.500000,254.800000,328.700000,255.100000,330.500000C255.100000,330.500000,257.600000,326.400000,265.900000,325.500000C272.700000,324.800000,274.300000,323.500000,274.600000,323Z" fill="rgb(159,178,182)" stroke="none" stroke-width="1"/><path id="epq76acm7c1k201" d="M262.300000,281.300000C262.300000,281.300000,262.200000,285.500000,262.500000,286.100000C262.800000,286.700000,262.800000,287.100000,262.800000,287.100000L262.200000,291.300000C262.200000,291.300000,265,295,266.700000,295.100000C269.500000,295.200000,268.700000,291.600000,268.700000,291.600000L269,289.500000C269,289.500000,270,289.900000,270.500000,289.500000C272.800000,287.700000,272.800000,283.700000,273,283.100000C273.200000,282.500000,273.800000,281.300000,273.800000,281.300000C273.800000,281.300000,273.400000,278.400000,271.400000,277.700000C269.400000,277,266.600000,276.300000,265.300000,277.400000C264,278.500000,262.300000,281.300000,262.300000,281.300000Z" fill="rgb(253,219,140)" stroke="none" stroke-width="1"/><path id="epq76acm7c1k202" d="M268.100000,277.600000C268.100000,277.600000,270.800000,278.900000,271.700000,279.400000C272.600000,279.900000,273,283,273,283C273,283,275,280.800000,274.900000,279.400000C274.800000,278,273.100000,273.700000,269.200000,273.600000C265.300000,273.500000,265,274.400000,265,274.400000C265,274.400000,263.700000,273.900000,262.700000,275.100000C260.900000,277,259.500000,281,261.800000,284.700000C262.400000,285.700000,262.700000,287.800000,262.700000,287.800000C262.800000,287.400000,262.800000,286.800000,262.800000,286.200000C262.800000,286.200000,262.300000,284.200000,262.400000,283.200000C262.500000,282.200000,262.800000,280.700000,263.300000,281.200000C263.900000,281.600000,263.900000,283,263.900000,283L264.300000,283.100000C264.300000,283.100000,264.400000,280.700000,265.500000,280C266.600000,279.300000,268.100000,277.600000,268.100000,277.600000Z" fill="rgb(69,65,63)" stroke="none" stroke-width="1"/><path id="epq76acm7c1k203" d="M265.400000,318.200000C265.400000,318.200000,268.300000,317.700000,269.100000,317.600000C269.900000,317.500000,270.300000,317.400000,271,317.800000C271.700000,318.200000,273.600000,319.100000,273.600000,319.100000C273.600000,319.100000,273.700000,319.700000,273.600000,319.700000C273.400000,319.700000,273.200000,319.700000,273.200000,319.700000L273.400000,319.900000L273.200000,320.300000C273.200000,320.300000,273.300000,320.600000,273.100000,320.500000C272.900000,320.400000,272.500000,320.100000,272.500000,320.100000L272.800000,320.500000C272.800000,320.500000,272.600000,320.800000,272.300000,320.700000C272,320.600000,271.400000,319.600000,271.100000,319.500000C270.800000,319.500000,268.300000,320.400000,267.300000,320.500000C266.300000,320.600000,265.700000,320.500000,265.700000,320.500000C265.700000,320.500000,265.700000,319.700000,265.700000,319.100000C265.500000,318.500000,265.400000,318.200000,265.400000,318.200000Z" fill="rgb(253,219,140)" stroke="none" stroke-width="1"/><polygon id="epq76acm7c1k204" points="272.400000,321.900000 296.100000,321.900000 302.700000,305 279,305" fill="rgb(173,173,173)" stroke="none" stroke-width="1"/><polygon id="epq76acm7c1k205" points="295.900000,322.600000 264.900000,322.600000 264.900000,321.900000 296.100000,321.900000" fill="rgb(114,114,114)" stroke="none" stroke-width="1"/><ellipse id="epq76acm7c1k206" rx="1.300000" ry="1" transform="matrix(0.67140000000000 -0.74110000000000 0.74110000000000 0.67140000000000 288.67124999999999 313.72460999999998)" fill="rgb(255,255,255)" stroke="none" stroke-width="1"/><path id="epq76acm7c1k207" d="M319,326.200000L261.300000,326.200000C261,326.200000,260.700000,325.900000,260.700000,325.600000L260.700000,323.300000C260.700000,323,261,322.700000,261.300000,322.700000L319,322.700000C319.300000,322.700000,319.600000,323,319.600000,323.300000L319.600000,325.600000C319.600000,325.900000,319.300000,326.200000,319,326.200000Z" fill="rgb(51,58,94)" stroke="none" stroke-width="1"/><polygon id="epq76acm7c1k208" points="265.500000,325.500000 264.700000,375.800000 266.400000,375.800000 269.500000,325.500000" fill="rgb(51,58,94)" stroke="none" stroke-width="1"/></g><g id="epq76acm7c1k209"><path id="epq76acm7c1k210" d="M440,306.500000C446.900000,304.200000,458.200000,307.200000,460.200000,320.300000C462.200000,333.400000,464.500000,355.800000,466,359.200000C467.500000,362.500000,467.800000,372.600000,454,372.600000C440.200000,372.600000,387.400000,374.300000,385.600000,372.600000C383.800000,370.900000,372.800000,358.300000,378.600000,342.200000C384.400000,326.200000,399.500000,325.200000,411.900000,324C424.400000,322.700000,428,310.500000,440,306.500000Z" fill="rgb(244,156,0)" stroke="none" stroke-width="1"/><path id="epq76acm7c1k211" d="M461.100000,326.400000C459.800000,330.700000,457.400000,336.500000,450,341.200000C441.400000,346.800000,440.800000,354,443.300000,353.800000C445.800000,353.600000,454.100000,348.300000,459.700000,350.200000C461.600000,350.800000,463.200000,351.500000,464.500000,352.100000C463.500000,345.300000,462.200000,335,461.100000,326.400000Z" fill="rgb(233,125,3)" stroke="none" stroke-width="1"/><path id="epq76acm7c1k212" d="M440,306.500000C428,310.500000,424.400000,322.700000,412,323.900000C408.100000,324.300000,404,324.700000,400,325.500000C401.900000,331.600000,406.100000,344.400000,407.600000,341.200000C409.600000,337.100000,418.100000,331.800000,423.500000,329.200000C428.900000,326.600000,443,325.500000,448.800000,322.100000C454.600000,318.700000,452.300000,312.500000,451.400000,307.500000C447.700000,305.500000,443.300000,305.400000,440,306.500000Z" fill="rgb(233,125,3)" stroke="none" stroke-width="1"/><path id="epq76acm7c1k213" d="M432.800000,281.900000C432.800000,281.900000,428.600000,281.900000,427.500000,285.100000C426.400000,288.300000,424.700000,293.900000,425.200000,297.300000C426.900000,309,445,301.900000,445,301.900000C445,301.900000,448.200000,300.600000,448.200000,298C448.200000,293.900000,444.600000,295,442.900000,291.500000C441.200000,288.100000,442.100000,285.400000,439.100000,282.700000C436.100000,279.900000,432.800000,281.900000,432.800000,281.900000Z" fill="rgb(46,58,93)" stroke="none" stroke-width="1"/><path id="epq76acm7c1k214" d="M436.300000,297.800000C433.600000,297.600000,427.900000,297.400000,426.400000,298.800000C424.900000,300.200000,422.600000,303.700000,422.700000,304.300000C422.800000,304.900000,424,306.400000,424,306.400000L417.700000,318.300000L418.900000,324.500000L418.800000,326.400000L424.400000,328.700000C424.400000,328.700000,425.800000,328.100000,428.900000,327.400000C432,326.700000,437.100000,325.600000,437.100000,325.600000C437.100000,325.600000,438.400000,324.100000,438.900000,322.900000C439.400000,321.700000,444.500000,309.700000,444.500000,309.700000C444.500000,309.700000,447.900000,307.900000,447.800000,307.500000C447.700000,307.100000,445.300000,301.700000,444.100000,300.700000C442.900000,299.700000,442,298.800000,440.300000,298.500000C438.700000,298.300000,436.300000,297.800000,436.300000,297.800000Z" fill="rgb(251,229,201)" stroke="none" stroke-width="1"/><path id="epq76acm7c1k215" d="M423.300000,305.600000C423.300000,305.600000,423.900000,306.100000,424.100000,306.200000C424.300000,306.300000,424.800000,306.600000,424.800000,306.600000C424.800000,306.600000,424.500000,307.400000,424.600000,309.100000C424.700000,310.800000,424.800000,313,424.400000,313.600000C424,314.200000,419,318,419,318L417.400000,313.900000C417.400000,313.900000,418.300000,313.100000,418.600000,312.900000C418.900000,312.700000,419.400000,312.400000,419.700000,312.100000C419.900000,311.800000,421,310.100000,421.500000,309.100000C422.100000,308.200000,423.300000,305.600000,423.300000,305.600000Z" fill="rgb(250,190,128)" stroke="none" stroke-width="1"/><path id="epq76acm7c1k216" d="M444.600000,309.800000C444.600000,309.800000,442.900000,310.800000,441.900000,311.100000C440.900000,311.400000,440.100000,311.500000,440.100000,311.500000C440.100000,311.500000,440.100000,313.600000,440.100000,315C440.100000,316.400000,439.800000,318.300000,439.600000,318.500000C439.400000,318.700000,427.900000,320.300000,427.500000,320.400000C427.100000,320.500000,425,321,424.700000,321.100000C424.300000,321.200000,422.400000,321.600000,422.100000,321.900000C421.900000,322.200000,421,323.200000,421,323.200000L421.500000,324.300000C421.500000,324.300000,423,323.600000,423.500000,323.500000C424,323.400000,424.600000,323.400000,424.600000,323.400000C424.600000,323.400000,423.600000,324.200000,423.800000,324.300000C424,324.400000,424.900000,324.200000,425.500000,324C426.100000,323.800000,426.900000,323.500000,427.100000,323.100000C427.300000,322.700000,428.400000,321.700000,428.400000,321.700000C428.400000,321.700000,440.200000,324.100000,442.700000,322.400000C444.800000,320.900000,444.600000,309.800000,444.600000,309.800000Z" fill="rgb(250,190,128)" stroke="none" stroke-width="1"/><path id="epq76acm7c1k217" d="M430.200000,286.500000C430.200000,286.500000,428.400000,288.300000,428.600000,289.900000C428.800000,291.400000,430.600000,295.700000,431.800000,296C432.300000,296.100000,432.600000,296,432.600000,296C432.600000,296,432.900000,298.200000,432.600000,299C432.300000,299.700000,431.900000,300.200000,432.300000,300.900000C432.700000,301.600000,434.500000,302.200000,436.700000,300.800000C438.900000,299.400000,438.900000,298.600000,438.700000,298.100000C438.500000,297.600000,438,297.100000,437.600000,295.200000C437.200000,293.300000,437.200000,292.500000,437.200000,292.500000C437.200000,292.500000,437.500000,291.700000,437.400000,291.200000C437.300000,290.600000,437.200000,290.500000,437.200000,290.500000C437.200000,290.500000,436.500000,290.100000,436.100000,290.100000C435.700000,290.100000,434,290.200000,432.200000,288.600000C430.300000,287,430.200000,286.500000,430.200000,286.500000Z" fill="rgb(250,190,128)" stroke="none" stroke-width="1"/><path id="epq76acm7c1k218" d="M391.200000,362.500000C390.900000,363.600000,390.300000,365.400000,389.600000,366.100000C389,366.700000,386.500000,369.500000,386.100000,369.800000C385.700000,370.100000,385.400000,371,385.400000,371C385.400000,371,388.700000,371.400000,389.500000,370.700000C390.300000,370.100000,394,367.700000,394.100000,367.600000C394.200000,367.500000,395.300000,365.900000,395.300000,365.900000C395.300000,365.900000,395,365.300000,395,364.800000C395,364.300000,395,362.300000,395,362.300000L391.200000,362.500000Z" fill="rgb(250,190,128)" stroke="none" stroke-width="1"/><path id="epq76acm7c1k219" d="M399.800000,355.300000C400.400000,356.200000,401.500000,356.800000,401.500000,356.800000L401.200000,360.300000L399.500000,364.300000L397.400000,366.100000L396.300000,366.100000C396.300000,366.100000,396.700000,365.700000,396.700000,364.200000C396.700000,362.700000,396.800000,359.700000,396.800000,359.700000L399.800000,355.300000Z" fill="rgb(250,190,128)" stroke="none" stroke-width="1"/><path id="epq76acm7c1k220" d="M394.300000,366.300000C393.800000,366.800000,390.900000,369.500000,390,369.800000C389.100000,370.100000,386,369.900000,386,369.900000C386,369.900000,383.600000,370.700000,383.200000,371.500000C382.800000,372.300000,384.100000,372.600000,386.700000,372.500000C389.300000,372.400000,389.900000,371.900000,390.900000,371.200000C391.900000,370.500000,393.500000,368.900000,394.400000,368.700000C395.300000,368.500000,395.900000,366.700000,395.300000,365.700000L394.300000,366.300000Z" fill="rgb(58,53,82)" stroke="none" stroke-width="1"/><path id="epq76acm7c1k221" d="M401.500000,356.700000C401.500000,356.700000,400.900000,357.300000,400.800000,358.500000C400.700000,359.700000,400.400000,362.200000,399.400000,363.600000C398.400000,364.900000,396.400000,366,396.400000,366C396.400000,366,395.500000,368,395.500000,368.600000C395.500000,369.200000,395.900000,369.300000,396.400000,369C396.900000,368.600000,400,366.300000,400.600000,365.300000C401.200000,364.200000,401.500000,361.100000,402,360.100000C402.500000,359.100000,402.600000,358.100000,402.200000,357.600000C401.700000,356.900000,401.500000,356.700000,401.500000,356.700000Z" fill="rgb(58,55,83)" stroke="none" stroke-width="1"/><path id="epq76acm7c1k222" d="M405.300000,320.900000C405.300000,320.900000,393.200000,319.800000,391,322.700000C387.700000,327.100000,393.700000,353.100000,393.700000,353.100000L400.700000,356.200000C400.700000,356.200000,401.100000,356.200000,401.200000,355.700000C401.300000,355.200000,400.900000,352.800000,400.900000,352.800000L406.600000,325.100000L405.300000,320.900000Z" fill="rgb(34,36,78)" stroke="none" stroke-width="1"/><path id="epq76acm7c1k223" d="M390.500000,362.800000C390.500000,362.800000,391.600000,363.500000,392.900000,363.500000C394.100000,363.500000,395.400000,362.900000,395.400000,362.900000C395.400000,362.900000,404.900000,347.800000,406.800000,342.800000C408.700000,337.700000,409.300000,333.400000,409.300000,333.400000L415.300000,334C415.300000,334,421.900000,329.700000,424.700000,328.700000C424.700000,328.700000,421.200000,326.700000,420.200000,325.900000C419.200000,325.100000,419.100000,324.700000,419.100000,324.700000L407.800000,324.800000C407.800000,324.800000,402.600000,325.500000,401.500000,326.900000C400.300000,328.400000,390.500000,362.800000,390.500000,362.800000Z" fill="rgb(47,50,123)" stroke="none" stroke-width="1"/><polygon id="epq76acm7c1k224" points="421.900000,325 404.200000,325 398.600000,311.300000 416.300000,311.300000" fill="rgb(223,228,240)" stroke="none" stroke-width="1"/><polygon id="epq76acm7c1k225" points="404.200000,325 427.700000,325 427.700000,324.400000 403.900000,324.400000" fill="rgb(182,193,215)" stroke="none" stroke-width="1"/><ellipse id="epq76acm7c1k226" rx="0.800000" ry="1" transform="matrix(0.80390000000000 -0.59480000000000 0.59480000000000 0.80390000000000 409.33062999999993 318.25033999999994)" fill="rgb(182,193,215)" stroke="none" stroke-width="1"/></g><script><![CDATA[!function(t,n){"object"==typeof exports&&"undefined"!=typeof module?module.exports=n():"function"==typeof define&&define.amd?define(n):(t="undefined"!=typeof globalThis?globalThis:t||self).__SVGATOR_PLAYER__=n()}(this,(function(){"use strict";function t(n){return(t="function"==typeof Symbol&&"symbol"==typeof Symbol.iterator?function(t){return typeof t}:function(t){return t&&"function"==typeof Symbol&&t.constructor===Symbol&&t!==Symbol.prototype?"symbol":typeof t})(n)}function n(t,n){if(!(t instanceof n))throw new TypeError("Cannot call a class as a function")}function r(t,n){for(var r=0;r<n.length;r++){var e=n[r];e.enumerable=e.enumerable||!1,e.configurable=!0,"value"in e&&(e.writable=!0),Object.defineProperty(t,e.key,e)}}function e(t,n,e){return n&&r(t.prototype,n),e&&r(t,e),t}function i(t){return(i=Object.setPrototypeOf?Object.getPrototypeOf:function(t){return t.__proto__||Object.getPrototypeOf(t)})(t)}function o(t,n){return(o=Object.setPrototypeOf||function(t,n){return t.__proto__=n,t})(t,n)}function u(t,n){return!n||"object"!=typeof n&&"function"!=typeof n?function(t){if(void 0===t)throw new ReferenceError("this hasn't been initialised - super() hasn't been called");return t}(t):n}function a(t){var n=function(){if("undefined"==typeof Reflect||!Reflect.construct)return!1;if(Reflect.construct.sham)return!1;if("function"==typeof Proxy)return!0;try{return Boolean.prototype.valueOf.call(Reflect.construct(Boolean,[],(function(){}))),!0}catch(t){return!1}}();return function(){var r,e=i(t);if(n){var o=i(this).constructor;r=Reflect.construct(e,arguments,o)}else r=e.apply(this,arguments);return u(this,r)}}function l(t,n,r){return(l="undefined"!=typeof Reflect&&Reflect.get?Reflect.get:function(t,n,r){var e=function(t,n){for(;!Object.prototype.hasOwnProperty.call(t,n)&&null!==(t=i(t)););return t}(t,n);if(e){var o=Object.getOwnPropertyDescriptor(e,n);return o.get?o.get.call(r):o.value}})(t,n,r||t)}var f=Math.abs;function s(t){return t}function c(t,n,r){var e=1-r;return 3*r*e*(t*e+n*r)+r*r*r}function h(){var t=arguments.length>0&&void 0!==arguments[0]?arguments[0]:0,n=arguments.length>1&&void 0!==arguments[1]?arguments[1]:0,r=arguments.length>2&&void 0!==arguments[2]?arguments[2]:1,e=arguments.length>3&&void 0!==arguments[3]?arguments[3]:1;return t<0||t>1||r<0||r>1?null:f(t-n)<=1e-5&&f(r-e)<=1e-5?s:function(i){if(i<=0)return t>0?i*n/t:0===n&&r>0?i*e/r:0;if(i>=1)return r<1?1+(i-1)*(e-1)/(r-1):1===r&&t<1?1+(i-1)*(n-1)/(t-1):1;for(var o,u=0,a=1;u<a;){var l=c(t,r,o=(u+a)/2);if(f(i-l)<1e-5)break;l<i?u=o:a=o}return c(n,e,o)}}function v(){return 1}function y(t){return 1===t?1:0}function d(){var t=arguments.length>0&&void 0!==arguments[0]?arguments[0]:1,n=arguments.length>1&&void 0!==arguments[1]?arguments[1]:0;if(1===t){if(0===n)return y;if(1===n)return v}var r=1/t;return function(t){return t>=1?1:(t+=n*r)-t%r}}function g(t){var n=arguments.length>1&&void 0!==arguments[1]?arguments[1]:2;if(Number.isInteger(t))return t;var r=Math.pow(10,n);return Math.round(t*r)/r}var p=Math.PI/180;function m(t,n,r){return t>=.5?r:n}function b(t,n,r){return 0===t||n===r?n:t*(r-n)+n}function w(t,n,r){var e=b(t,n,r);return e<=0?0:e}function x(t,n,r){return 0===t?n:1===t?r:{x:b(t,n.x,r.x),y:b(t,n.y,r.y)}}function k(t,n,r){var e=function(t,n,r){return Math.round(b(t,n,r))}(t,n,r);return e<=0?0:e>=255?255:e}function A(t,n,r){return 0===t?n:1===t?r:{r:k(t,n.r,r.r),g:k(t,n.g,r.g),b:k(t,n.b,r.b),a:b(t,null==n.a?1:n.a,null==r.a?1:r.a)}}function _(t,n,r){if(0===t)return n;if(1===t)return r;var e=n.length;if(e!==r.length)return m(t,n,r);for(var i=[],o=0;o<e;o++)i.push(A(t,n[o],r[o]));return i}function S(t,n){for(var r=[],e=0;e<t;e++)r.push(n);return r}function O(t,n){if(--n<=0)return t;var r=(t=Object.assign([],t)).length;do{for(var e=0;e<r;e++)t.push(t[e])}while(--n>0);return t}var M,j=function(){function t(r){n(this,t),this.list=r,this.length=r.length}return e(t,[{key:"setAttribute",value:function(t,n){for(var r=this.list,e=0;e<this.length;e++)r[e].setAttribute(t,n)}},{key:"removeAttribute",value:function(t){for(var n=this.list,r=0;r<this.length;r++)n[r].removeAttribute(t)}},{key:"style",value:function(t,n){for(var r=this.list,e=0;e<this.length;e++)r[e].style[t]=n}}]),t}(),F=/-./g,P=function(t,n){return n.toUpperCase()};function B(t){return"function"==typeof t?t:m}function I(t){return t?"function"==typeof t?t:Array.isArray(t)?function(t){var n=arguments.length>1&&void 0!==arguments[1]?arguments[1]:s;if(!Array.isArray(t))return n;switch(t.length){case 1:return d(t[0])||n;case 2:return d(t[0],t[1])||n;case 4:return h(t[0],t[1],t[2],t[3])||n}return n}(t,null):function(t,n){var r=arguments.length>2&&void 0!==arguments[2]?arguments[2]:s;switch(t){case"linear":return s;case"steps":return d(n.steps||1,n.jump||0)||r;case"bezier":case"cubic-bezier":return h(n.x1||0,n.y1||0,n.x2||0,n.y2||0)||r}return r}(t.type,t.value,null):null}function R(t,n,r){var e=arguments.length>3&&void 0!==arguments[3]&&arguments[3],i=n.length-1;if(t<=n[0].t)return e?[0,0,n[0].v]:n[0].v;if(t>=n[i].t)return e?[i,1,n[i].v]:n[i].v;var o,u=n[0],a=null;for(o=1;o<=i;o++){if(!(t>n[o].t)){a=n[o];break}u=n[o]}return null==a?e?[i,1,n[i].v]:n[i].v:u.t===a.t?e?[o,1,a.v]:a.v:(t=(t-u.t)/(a.t-u.t),u.e&&(t=u.e(t)),e?[o,t,r(t,u.v,a.v)]:r(t,u.v,a.v))}function q(t,n){var r=arguments.length>2&&void 0!==arguments[2]?arguments[2]:null;return t&&t.length?"function"!=typeof n?null:("function"!=typeof r&&(r=null),function(e){var i=R(e,t,n);return null!=i&&r&&(i=r(i)),i}):null}function E(t,n){return t.t-n.t}function T(n,r,e,i,o){var u,a="@"===e[0],l="#"===e[0],f=M[e],s=m;switch(a?(u=e.substr(1),e=u.replace(F,P)):l&&(e=e.substr(1)),t(f)){case"function":if(s=f(i,o,R,I,e,a,r,n),l)return s;break;case"string":s=q(i,B(f));break;case"object":if((s=q(i,B(f.i),f.f))&&"function"==typeof f.u)return f.u(r,s,e,a,n)}return s?function(t,n,r){var e=arguments.length>3&&void 0!==arguments[3]&&arguments[3];if(e)return t instanceof j?function(e){return t.style(n,r(e))}:function(e){return t.style[n]=r(e)};if(Array.isArray(n)){var i=n.length;return function(e){var o=r(e);if(null==o)for(var u=0;u<i;u++)t[u].removeAttribute(n);else for(var a=0;a<i;a++)t[a].setAttribute(n,o)}}return function(e){var i=r(e);null==i?t.removeAttribute(n):t.setAttribute(n,i)}}(r,e,s,a):null}function N(n,r,e,i){if(!i||"object"!==t(i))return null;var o=null,u=null;return Array.isArray(i)?u=function(t){if(!t||!t.length)return null;for(var n=0;n<t.length;n++)t[n].e&&(t[n].e=I(t[n].e));return t.sort(E)}(i):(u=i.keys,o=i.data||null),u?T(n,r,e,u,o):null}function C(t,n,r){if(!r)return null;var e=[];for(var i in r)if(r.hasOwnProperty(i)){var o=N(t,n,i,r[i]);o&&e.push(o)}return e.length?e:null}function z(t,n){if(!n.duration||n.duration<0)return null;var r=function(t,n){if(!n)return null;var r=[];if(Array.isArray(n))for(var e=n.length,i=0;i<e;i++){var o=n[i];if(2===o.length){var u=null;if("string"==typeof o[0])u=t.getElementById(o[0]);else if(Array.isArray(o[0])){u=[];for(var a=0;a<o[0].length;a++)if("string"==typeof o[0][a]){var l=t.getElementById(o[0][a]);l&&u.push(l)}u=u.length?1===u.length?u[0]:new j(u):null}if(u){var f=C(t,u,o[1]);f&&(r=r.concat(f))}}}else for(var s in n)if(n.hasOwnProperty(s)){var c=t.getElementById(s);if(c){var h=C(t,c,n[s]);h&&(r=r.concat(h))}}return r.length?r:null}(t,n.elements);return r?function(t,n){var r=arguments.length>2&&void 0!==arguments[2]?arguments[2]:1/0,e=arguments.length>3&&void 0!==arguments[3]?arguments[3]:1,i=arguments.length>4&&void 0!==arguments[4]&&arguments[4],o=arguments.length>5&&void 0!==arguments[5]?arguments[5]:1,u=t.length,a=e>0?n:0;i&&r%2==0&&(a=n-a);var l=null;return function(f,s){var c=f%n,h=1+(f-c)/n;s*=e,i&&h%2==0&&(s=-s);var v=!1;if(h>r)c=a,v=!0,-1===o&&(c=e>0?0:n);else if(s<0&&(c=n-c),c===l)return!1;l=c;for(var y=0;y<u;y++)t[y](c);return v}}(r,n.duration,n.iterations||1/0,n.direction||1,!!n.alternate,n.fill||1):null}var L=function(){function t(r,e){var i=arguments.length>2&&void 0!==arguments[2]?arguments[2]:{};n(this,t),this._id=0,this._running=!1,this._rollingBack=!1,this._animations=r,this.duration=e.duration,this.alternate=e.alternate,this.fill=e.fill,this.iterations=e.iterations,this.direction=i.direction||1,this.speed=i.speed||1,this.fps=i.fps||100,this.offset=i.offset||0,this.rollbackStartOffset=0}return e(t,[{key:"_rollback",value:function(){var t=this,n=1/0,r=null;this.rollbackStartOffset=this.offset,this._rollingBack||(this._rollingBack=!0,this._running=!0);this._id=window.requestAnimationFrame((function e(i){if(t._rollingBack){null==r&&(r=i);var o=i-r,u=t.rollbackStartOffset-o,a=Math.round(u*t.speed);if(a>t.duration&&n!=1/0){var l=!!t.alternate&&a/t.duration%2>1,f=a%t.duration;a=(f+=l?t.duration:0)||t.duration}var s=t.fps?1e3/t.fps:0,c=Math.max(0,a);if(c<n-s){t.offset=c,n=c;for(var h=t._animations,v=h.length,y=0;y<v;y++)h[y](c,t.direction)}var d=!1;if(t.iterations>0&&-1===t.fill){var g=t.iterations*t.duration,p=g==a;a=p?0:a,t.offset=p?0:t.offset,d=a>g}a>0&&t.offset>=a&&!d?t._id=window.requestAnimationFrame(e):t.stop()}}))}},{key:"_start",value:function(){var t=this,n=arguments.length>0&&void 0!==arguments[0]?arguments[0]:0,r=-1/0,e=null,i={},o=function o(u){t._running=!0,null==e&&(e=u);var a=Math.round((u-e+n)*t.speed),l=t.fps?1e3/t.fps:0;if(a>r+l&&!t._rollingBack){t.offset=a,r=a;for(var f=t._animations,s=f.length,c=0,h=0;h<s;h++)i[h]?c++:(i[h]=f[h](a,t.direction),i[h]&&c++);if(c===s)return void t._stop()}t._id=window.requestAnimationFrame(o)};this._id=window.requestAnimationFrame(o)}},{key:"_stop",value:function(){this._id&&window.cancelAnimationFrame(this._id),this._running=!1,this._rollingBack=!1}},{key:"play",value:function(){!this._rollingBack&&this._running||(this._rollingBack=!1,this.rollbackStartOffset>this.duration&&(this.offset=this.rollbackStartOffset-(this.rollbackStartOffset-this.offset)%this.duration,this.rollbackStartOffset=0),this._start(this.offset))}},{key:"stop",value:function(){this._stop(),this.offset=0,this.rollbackStartOffset=0;var t=this.direction,n=this._animations;window.requestAnimationFrame((function(){for(var r=0;r<n.length;r++)n[r](0,t)}))}},{key:"reachedToEnd",value:function(){return this.iterations>0&&this.offset>=this.iterations*this.duration}},{key:"restart",value:function(){this._stop(),this.offset=0,this._start()}},{key:"pause",value:function(){this._stop()}},{key:"reverse",value:function(){this.direction=-this.direction}}],[{key:"build",value:function(n,r){return(n=function(t,n){if(M=n,!t||!t.root||!Array.isArray(t.animations))return null;for(var r=document.getElementsByTagName("svg"),e=!1,i=0;i<r.length;i++)if(r[i].id===t.root&&!r[i].svgatorAnimation){(e=r[i]).svgatorAnimation=!0;break}if(!e)return null;var o=t.animations.map((function(t){return z(e,t)})).filter((function(t){return!!t}));return o.length?{element:e,animations:o,animationSettings:t.animationSettings,options:t.options||void 0}:null}(n,r))?{el:n.element,options:n.options||{},player:new t(n.animations,n.animationSettings,n.options)}:null}}]),t}();!function(){for(var t=0,n=["ms","moz","webkit","o"],r=0;r<n.length&&!window.requestAnimationFrame;++r)window.requestAnimationFrame=window[n[r]+"RequestAnimationFrame"],window.cancelAnimationFrame=window[n[r]+"CancelAnimationFrame"]||window[n[r]+"CancelRequestAnimationFrame"];window.requestAnimationFrame||(window.requestAnimationFrame=function(n){var r=Date.now(),e=Math.max(0,16-(r-t)),i=window.setTimeout((function(){n(r+e)}),e);return t=r+e,i},window.cancelAnimationFrame=window.clearTimeout)}();var D=/\.0+$/g;function Q(t){return Number.isInteger(t)?t+"":t.toFixed(6).replace(D,"")}function U(t){var n=arguments.length>1&&void 0!==arguments[1]?arguments[1]:" ";return t&&t.length?t.map(Q).join(n):""}function V(t){return t?null==t.a||t.a>=1?"rgb("+t.r+","+t.g+","+t.b+")":"rgba("+t.r+","+t.g+","+t.b+","+t.a+")":"transparent"}var $={f:null,i:function(t,n,r){return 0===t?n:1===t?r:{x:w(t,n.x,r.x),y:w(t,n.y,r.y)}},u:function(t,n){return function(r){var e=n(r);t.setAttribute("rx",Q(e.x)),t.setAttribute("ry",Q(e.y))}}},G={f:null,i:function(t,n,r){return 0===t?n:1===t?r:{width:w(t,n.width,r.width),height:w(t,n.height,r.height)}},u:function(t,n){return function(r){var e=n(r);t.setAttribute("width",Q(e.width)),t.setAttribute("height",Q(e.height))}}},H=Math.sin,Y=Math.cos,Z=Math.acos,J=Math.asin,K=Math.tan,W=Math.atan2,X=Math.PI/180,tt=180/Math.PI,nt=Math.sqrt,rt=function(){function t(){var r=arguments.length>0&&void 0!==arguments[0]?arguments[0]:1,e=arguments.length>1&&void 0!==arguments[1]?arguments[1]:0,i=arguments.length>2&&void 0!==arguments[2]?arguments[2]:0,o=arguments.length>3&&void 0!==arguments[3]?arguments[3]:1,u=arguments.length>4&&void 0!==arguments[4]?arguments[4]:0,a=arguments.length>5&&void 0!==arguments[5]?arguments[5]:0;n(this,t),this.m=[r,e,i,o,u,a],this.i=null,this.w=null,this.s=null}return e(t,[{key:"determinant",get:function(){var t=this.m;return t[0]*t[3]-t[1]*t[2]}},{key:"isIdentity",get:function(){if(null===this.i){var t=this.m;this.i=1===t[0]&&0===t[1]&&0===t[2]&&1===t[3]&&0===t[4]&&0===t[5]}return this.i}},{key:"point",value:function(t,n){var r=this.m;return{x:r[0]*t+r[2]*n+r[4],y:r[1]*t+r[3]*n+r[5]}}},{key:"translateSelf",value:function(){var t=arguments.length>0&&void 0!==arguments[0]?arguments[0]:0,n=arguments.length>1&&void 0!==arguments[1]?arguments[1]:0;if(!t&&!n)return this;var r=this.m;return r[4]+=r[0]*t+r[2]*n,r[5]+=r[1]*t+r[3]*n,this.w=this.s=this.i=null,this}},{key:"rotateSelf",value:function(){var t=arguments.length>0&&void 0!==arguments[0]?arguments[0]:0;if(t%=360){var n=H(t*=X),r=Y(t),e=this.m,i=e[0],o=e[1];e[0]=i*r+e[2]*n,e[1]=o*r+e[3]*n,e[2]=e[2]*r-i*n,e[3]=e[3]*r-o*n,this.w=this.s=this.i=null}return this}},{key:"scaleSelf",value:function(){var t=arguments.length>0&&void 0!==arguments[0]?arguments[0]:1,n=arguments.length>1&&void 0!==arguments[1]?arguments[1]:1;if(1!==t||1!==n){var r=this.m;r[0]*=t,r[1]*=t,r[2]*=n,r[3]*=n,this.w=this.s=this.i=null}return this}},{key:"skewSelf",value:function(t,n){if(n%=360,(t%=360)||n){var r=this.m,e=r[0],i=r[1],o=r[2],u=r[3];t&&(t=K(t*X),r[2]+=e*t,r[3]+=i*t),n&&(n=K(n*X),r[0]+=o*n,r[1]+=u*n),this.w=this.s=this.i=null}return this}},{key:"resetSelf",value:function(){var t=arguments.length>0&&void 0!==arguments[0]?arguments[0]:1,n=arguments.length>1&&void 0!==arguments[1]?arguments[1]:0,r=arguments.length>2&&void 0!==arguments[2]?arguments[2]:0,e=arguments.length>3&&void 0!==arguments[3]?arguments[3]:1,i=arguments.length>4&&void 0!==arguments[4]?arguments[4]:0,o=arguments.length>5&&void 0!==arguments[5]?arguments[5]:0,u=this.m;return u[0]=t,u[1]=n,u[2]=r,u[3]=e,u[4]=i,u[5]=o,this.w=this.s=this.i=null,this}},{key:"recomposeSelf",value:function(){var t=arguments.length>0&&void 0!==arguments[0]?arguments[0]:null,n=arguments.length>1&&void 0!==arguments[1]?arguments[1]:null,r=arguments.length>2&&void 0!==arguments[2]?arguments[2]:null,e=arguments.length>3&&void 0!==arguments[3]?arguments[3]:null,i=arguments.length>4&&void 0!==arguments[4]?arguments[4]:null;return this.isIdentity||this.resetSelf(),t&&(t.x||t.y)&&this.translateSelf(t.x,t.y),n&&this.rotateSelf(n),r&&(r.x&&this.skewSelf(r.x,0),r.y&&this.skewSelf(0,r.y)),!e||1===e.x&&1===e.y||this.scaleSelf(e.x,e.y),i&&(i.x||i.y)&&this.translateSelf(i.x,i.y),this}},{key:"decompose",value:function(){var t=arguments.length>0&&void 0!==arguments[0]?arguments[0]:0,n=arguments.length>1&&void 0!==arguments[1]?arguments[1]:0,r=this.m,e=r[0]*r[0]+r[1]*r[1],i=[[r[0],r[1]],[r[2],r[3]]],o=nt(e);if(0===o)return{origin:{x:r[4],y:r[5]},translate:{x:t,y:n},scale:{x:0,y:0},skew:{x:0,y:0},rotate:0};i[0][0]/=o,i[0][1]/=o;var u=r[0]*r[3]-r[1]*r[2]<0;u&&(o=-o);var a=i[0][0]*i[1][0]+i[0][1]*i[1][1];i[1][0]-=i[0][0]*a,i[1][1]-=i[0][1]*a;var l=nt(i[1][0]*i[1][0]+i[1][1]*i[1][1]);if(0===l)return{origin:{x:r[4],y:r[5]},translate:{x:t,y:n},scale:{x:o,y:0},skew:{x:0,y:0},rotate:0};i[1][0]/=l,i[1][1]/=l,a/=l;var f=0;return i[1][1]<0?(f=Z(i[1][1])*tt,i[0][1]<0&&(f=360-f)):f=J(i[0][1])*tt,u&&(f=-f),a=W(a,nt(i[0][0]*i[0][0]+i[0][1]*i[0][1]))*tt,u&&(a=-a),{origin:{x:r[4],y:r[5]},translate:{x:t,y:n},scale:{x:o,y:l},skew:{x:a,y:0},rotate:f}}},{key:"toString",value:function(){return null===this.s&&(this.s="matrix("+this.m.map(it).join(" ")+")"),this.s}}]),t}(),et=/\.0+$/;function it(t){return Number.isInteger(t)?t:t.toFixed(14).replace(et,"")}function ot(t,n,r){return t+(n-t)*r}function ut(t,n,r){var e=arguments.length>3&&void 0!==arguments[3]&&arguments[3],i={x:ot(t.x,n.x,r),y:ot(t.y,n.y,r)};return e&&(i.a=at(t,n)),i}function at(t,n){return Math.atan2(n.y-t.y,n.x-t.x)}Object.freeze({M:2,L:2,Z:0,H:1,V:1,C:6,Q:4,T:2,S:4,A:7});var lt={},ft=null;function st(n){var r=function(){if(ft)return ft;if("object"!==("undefined"==typeof document?"undefined":t(document)))return{};var n=document.createElementNS("http://www.w3.org/2000/svg","svg");return n.style.position="absolute",n.style.opacity="0.01",n.style.zIndex="-9999",n.style.left="-9999px",n.style.width="1px",n.style.height="1px",ft={svg:n}}().svg;if(!r)return function(t){return null};var e=document.createElementNS(r.namespaceURI,"path");e.setAttributeNS(null,"d",n),e.setAttributeNS(null,"fill","none"),e.setAttributeNS(null,"stroke","none"),r.appendChild(e);var i=e.getTotalLength();return function(t){var n=e.getPointAtLength(i*t);return{x:n.x,y:n.y}}}function ct(t){return lt[t]?lt[t]:lt[t]=st(t)}function ht(t,n,r,e){if(!t||!e)return!1;var i=["M",t.x,t.y];if(n&&r&&(i.push("C"),i.push(n.x),i.push(n.y),i.push(r.x),i.push(r.y)),n?!r:r){var o=n||r;i.push("Q"),i.push(o.x),i.push(o.y)}return n||r||i.push("L"),i.push(e.x),i.push(e.y),i.join(" ")}function vt(t,n,r,e){var i=arguments.length>4&&void 0!==arguments[4]?arguments[4]:1,o=ht(t,n,r,e),u=ct(o);try{return u(i)}catch(t){return null}}function yt(t,n,r,e){var i=1-e;return i*i*t+2*i*e*n+e*e*r}function dt(t,n,r,e){return 2*(1-e)*(n-t)+2*e*(r-n)}function gt(t,n,r,e){var i=arguments.length>4&&void 0!==arguments[4]&&arguments[4],o=vt(t,n,null,r,e);return o||(o={x:yt(t.x,n.x,r.x,e),y:yt(t.y,n.y,r.y,e)}),i&&(o.a=pt(t,n,r,e)),o}function pt(t,n,r,e){return Math.atan2(dt(t.y,n.y,r.y,e),dt(t.x,n.x,r.x,e))}function mt(t,n,r,e,i){var o=i*i;return i*o*(e-t+3*(n-r))+3*o*(t+r-2*n)+3*i*(n-t)+t}function bt(t,n,r,e,i){var o=1-i;return 3*(o*o*(n-t)+2*o*i*(r-n)+i*i*(e-r))}function wt(t,n,r,e,i){var o=arguments.length>5&&void 0!==arguments[5]&&arguments[5],u=vt(t,n,r,e,i);return u||(u={x:mt(t.x,n.x,r.x,e.x,i),y:mt(t.y,n.y,r.y,e.y,i)}),o&&(u.a=xt(t,n,r,e,i)),u}function xt(t,n,r,e,i){return Math.atan2(bt(t.y,n.y,r.y,e.y,i),bt(t.x,n.x,r.x,e.x,i))}function kt(t,n,r){var e=arguments.length>3&&void 0!==arguments[3]&&arguments[3];if(_t(n)){if(St(r))return gt(n,r.start,r,t,e)}else if(_t(r)){if(n.end)return gt(n,n.end,r,t,e)}else{if(n.end)return r.start?wt(n,n.end,r.start,r,t,e):gt(n,n.end,r,t,e);if(r.start)return gt(n,r.start,r,t,e)}return ut(n,r,t,e)}function At(t,n,r){var e=kt(t,n,r,!0);return e.a=function(t){var n=arguments.length>1&&void 0!==arguments[1]&&arguments[1];return n?t+Math.PI:t}(e.a)/p,e}function _t(t){return!t.type||"corner"===t.type}function St(t){return null!=t.start&&!_t(t)}var Ot=new rt;var Mt={f:Q,i:b},jt={f:Q,i:function(t,n,r){var e=b(t,n,r);return e<=0?0:e>=1?1:e}};function Ft(t,n,r,e,i,o,u,a){return n=function(t,n,r){for(var e,i,o,u=t.length-1,a={},l=0;l<=u;l++)(e=t[l]).e&&(e.e=n(e.e)),e.v&&"g"===(i=e.v).t&&i.r&&(o=r.getElementById(i.r))&&(a[i.r]=o.querySelectorAll("stop"));return a}(t,e,a),function(e){var i,o=r(e,t,Pt);return o?"c"===o.t?V(o.v):"g"===o.t?(n[o.r]&&function(t,n){for(var r=0,e=t.length;r<e;r++)t[r].setAttribute("stop-color",V(n[r]))}(n[o.r],o.v),(i=o.r)?"url(#"+i+")":"none"):"none":"none"}}function Pt(t,n,r){if(0===t)return n;if(1===t)return r;if(n&&r){var e=n.t;if(e===r.t)switch(n.t){case"c":return{t:e,v:A(t,n.v,r.v)};case"g":if(n.r===r.r)return{t:e,v:_(t,n.v,r.v),r:n.r}}}return m(t,n,r)}var Bt={fill:Ft,"fill-opacity":jt,stroke:Ft,"stroke-opacity":jt,"stroke-width":Mt,"stroke-dashoffset":{f:Q,i:b},"stroke-dasharray":{f:function(t){var n=arguments.length>1&&void 0!==arguments[1]?arguments[1]:" ";return t&&t.length>0&&(t=t.map((function(t){return Math.floor(1e4*t)/1e4}))),U(t,n)},i:function(t,n,r){var e,i,o,u=n.length,a=r.length;if(u!==a)if(0===u)n=S(u=a,0);else if(0===a)a=u,r=S(u,0);else{var l=(o=(e=u)*(i=a)/function(t,n){for(var r;n;)r=n,n=t%n,t=r;return t||1}(e,i))<0?-o:o;n=O(n,Math.floor(l/u)),r=O(r,Math.floor(l/a)),u=a=l}for(var f=[],s=0;s<u;s++)f.push(g(w(t,n[s],r[s]),6));return f}},opacity:jt,transform:function(n,r,e,i){if(!(n=function(n,r){if(!n||"object"!==t(n))return null;var e=!1;for(var i in n)n.hasOwnProperty(i)&&(n[i]&&n[i].length?(n[i].forEach((function(t){t.e&&(t.e=r(t.e))})),e=!0):delete n[i]);return e?n:null}(n,i)))return null;var o=function(t,i,o){var u=arguments.length>3&&void 0!==arguments[3]?arguments[3]:null;return n[t]?e(i,n[t],o):r&&r[t]?r[t]:u};return r&&r.a&&n.o?function(t){var r=e(t,n.o,At);return Ot.recomposeSelf(r,o("r",t,b,0)+r.a,o("k",t,x),o("s",t,x),o("t",t,x)).toString()}:function(t){return Ot.recomposeSelf(o("o",t,kt,null),o("r",t,b,0),o("k",t,x),o("s",t,x),o("t",t,x)).toString()}},r:Mt,"#size":G,"#radius":$,_:function(t,n){if(Array.isArray(t))for(var r=0;r<t.length;r++)this[t[r]]=n;else this[t]=n}};return function(t){!function(t,n){if("function"!=typeof n&&null!==n)throw new TypeError("Super expression must either be null or a function");t.prototype=Object.create(n&&n.prototype,{constructor:{value:t,writable:!0,configurable:!0}}),n&&o(t,n)}(u,t);var r=a(u);function u(){return n(this,u),r.apply(this,arguments)}return e(u,null,[{key:"build",value:function(t){var n=l(i(u),"build",this).call(this,t,Bt);n.el,n.options;var r=n.player;return function(t){t.play()}(r),r}}]),u}(L)}));
__SVGATOR_PLAYER__.build({"root":"epq76acm7c1k1","animations":[{"duration":3000,"direction":1,"iterations":1,"fill":1,"alternate":false,"elements":{"epq76acm7c1k7":{"transform":{"data":{"t":{"x":-90.28638458251953,"y":-258.6618423461914}},"keys":{"o":[{"t":0,"v":{"x":90.28638458251953,"y":258.6618423461914,"type":"corner"}},{"t":1500,"v":{"x":90.28638458251953,"y":254.15049591119143,"type":"corner"}},{"t":3000,"v":{"x":90.53487701251953,"y":259.0713516261915,"type":"corner"}}]}}},"epq76acm7c1k8":{"transform":{"data":{"t":{"x":-85.39719772338867,"y":-264.41683197021484}},"keys":{"o":[{"t":0,"v":{"x":85.39719772338867,"y":264.41683197021484,"type":"corner"}},{"t":1300,"v":{"x":85.39719772338866,"y":259.0007858302148,"type":"corner"}},{"t":2800,"v":{"x":85.39719772338866,"y":264.35078583021493,"type":"corner"}}]}}},"epq76acm7c1k43":{"#size":[{"t":0,"v":{"width":0,"height":4.1}},{"t":1000,"v":{"width":22.9,"height":4.1}}]},"epq76acm7c1k44":{"#size":[{"t":100,"v":{"width":0,"height":4.1}},{"t":1100,"v":{"width":22.9,"height":4.1}}]},"epq76acm7c1k45":{"#size":[{"t":200,"v":{"width":0,"height":4.1}},{"t":1200,"v":{"width":22.9,"height":4.1}}]},"epq76acm7c1k46":{"#size":[{"t":300,"v":{"width":0,"height":4.1}},{"t":1300,"v":{"width":22.9,"height":4.1}}]},"epq76acm7c1k48":{"#size":[{"t":1800,"v":{"width":0,"height":1.5}},{"t":2700,"v":{"width":65.7,"height":1.5}}]},"epq76acm7c1k49":{"#size":[{"t":1900,"v":{"width":0,"height":1.5}},{"t":2700,"v":{"width":45.2,"height":1.5}}]},"epq76acm7c1k50":{"#size":[{"t":1700,"v":{"width":0,"height":1.5}},{"t":2600,"v":{"width":65.7,"height":1.5}}]},"epq76acm7c1k51":{"#size":[{"t":1600,"v":{"width":0,"height":4.6},"e":[0.25,1,0.25,1]},{"t":2800,"v":{"width":65.7,"height":4.6},"e":[0.25,1,0.25,1]}]},"epq76acm7c1k52":{"#size":[{"t":900,"v":{"width":0,"height":0},"e":[0.25,1,0.25,1]},{"t":1900,"v":{"width":28.6,"height":27.1},"e":[0.25,1,0.25,1]}]},"epq76acm7c1k53":{"#size":[{"t":1600,"v":{"width":1,"height":2.6},"e":[0.25,1,0.25,1]},{"t":2100,"v":{"width":16.5,"height":2.6},"e":[0.25,1,0.25,1]}]},"epq76acm7c1k54":{"#size":[{"t":1800,"v":{"width":1.0000000000000024,"height":2.6100000000000003},"e":[0.25,1,0.25,1]},{"t":2300,"v":{"width":16.5,"height":2.6},"e":[0.25,1,0.25,1]}]},"epq76acm7c1k55":{"opacity":[{"t":1300,"v":0},{"t":1800,"v":1}]},"epq76acm7c1k56":{"opacity":[{"t":1200,"v":0},{"t":1700,"v":1}]},"epq76acm7c1k57":{"#size":[{"t":1300,"v":{"width":0,"height":0}},{"t":2100,"v":{"width":28.6,"height":27.1}}]},"epq76acm7c1k58":{"#size":[{"t":1100,"v":{"width":0,"height":0},"e":[0.25,1,0.25,1]},{"t":1900,"v":{"width":28.6,"height":27.1},"e":[0.25,1,0.25,1]}]},"epq76acm7c1k59":{"#size":[{"t":1200,"v":{"width":0,"height":0},"e":[0.25,1,0.25,1]},{"t":2000,"v":{"width":28.6,"height":27.1},"e":[0.25,1,0.25,1]}]},"epq76acm7c1k60":{"#size":[{"t":0,"v":{"width":5.299999999659937,"height":10.5},"e":[0.25,1,0.25,1]},{"t":1700,"v":{"width":77.929951475,"height":10.5},"e":[0.25,1,0.25,1]}]},"epq76acm7c1k74":{"transform":{"data":{"o":{"x":426.6085662841797,"y":188.49999237060547,"type":"corner"},"t":{"x":-426.6085662841797,"y":-188.49999237060547}},"keys":{"s":[{"t":0,"v":{"x":1.3,"y":1}},{"t":800,"v":{"x":1,"y":1}},{"t":1700,"v":{"x":1.2,"y":1}},{"t":3000,"v":{"x":0.8,"y":1}}]}}},"epq76acm7c1k82":{"transform":{"data":{"t":{"x":-31.899993896484375,"y":-16.800015258789074}},"keys":{"o":[{"t":500,"v":{"x":441.3999938964844,"y":266.3000152587891,"type":"corner"},"e":[0.25,1,0.25,1]},{"t":1700,"v":{"x":441.3999938964844,"y":279.50001525878906,"type":"corner"},"e":[0.25,1,0.25,1]}]}},"opacity":[{"t":500,"v":0,"e":[0.25,1,0.25,1]},{"t":1700,"v":1,"e":[0.25,1,0.25,1]}]},"epq76acm7c1k84":{"transform":{"data":{"o":{"x":391.75,"y":253.54998779296875,"type":"corner"},"t":{"x":-391.75,"y":-253.54998779296875}},"keys":{"s":[{"t":0,"v":{"x":0.1,"y":1},"e":[0.25,1,0.25,1]},{"t":1500,"v":{"x":1,"y":1},"e":[0.25,1,0.25,1]}]}}},"epq76acm7c1k102":{"transform":{"data":{"o":{"x":391.8999938964844,"y":253.44998931884766,"type":"corner"},"t":{"x":-391.8999938964844,"y":-253.44998931884766}},"keys":{"s":[{"t":200,"v":{"x":0.1,"y":1},"e":[0.25,1,0.25,1]},{"t":1700,"v":{"x":1,"y":1},"e":[0.25,1,0.25,1]}]}}},"epq76acm7c1k118":{"opacity":[{"t":0,"v":0},{"t":500,"v":1}]},"epq76acm7c1k119":{"opacity":[{"t":100,"v":0},{"t":600,"v":1}]},"epq76acm7c1k120":{"opacity":[{"t":400,"v":0},{"t":900,"v":1}]},"epq76acm7c1k121":{"opacity":[{"t":1100,"v":0},{"t":1600,"v":1}]},"epq76acm7c1k122":{"opacity":[{"t":900,"v":0},{"t":1400,"v":1}]},"epq76acm7c1k123":{"opacity":[{"t":700,"v":0},{"t":1200,"v":1}]}}}],"options":{"start":"load","hover":"restart","click":"freeze","scroll":25,"font":"embed","exportedIds":"unique","title":"SRP glavniy ilyustratsiya"},"animationSettings":{"duration":3000,"direction":1,"iterations":1,"fill":1,"alternate":false}})]]></script></svg>