<?xml version="1.0" encoding="utf-8"?>
<!-- Generator: Adobe Illustrator 25.0.0, SVG Export Plug-In . SVG Version: 6.00 Build 0)  -->
<svg version="1.1" id="Layer_1" xmlns="http://www.w3.org/2000/svg" xmlns:xlink="http://www.w3.org/1999/xlink" x="0px" y="0px"
	 viewBox="0 0 1684 1049" style="enable-background:new 0 0 1684 1049;" xml:space="preserve">
<style type="text/css">
	.st0{fill:url(#SVGID_1_);}
	.st1{opacity:0.29;fill:#FFFFFF;}
	.st2{opacity:0.25;fill:#FFFFFF;}
</style>
<linearGradient id="SVGID_1_" gradientUnits="userSpaceOnUse" x1="312.5432" y1="764.1699" x2="1564.2819" y2="74.8613">
	<stop  offset="0" style="stop-color:#00A5F6"/>
	<stop  offset="1" style="stop-color:#0161EB"/>
</linearGradient>
<path class="st0" d="M227.32,0.29C178.3,200.97,282.22,343.3,354.47,387.24c127.18,77.37,235.68,46.09,326.3,134.81
	c87.93,86.09-29.43,254.93,53.62,392.17c88.63,146.46,373.37,205.87,551.49,70.47c97.05-73.77,78.76-65.86,181.3-125.05
	c87.08-50.27,172.76,10.74,216.83-45.96V0L227.32,0.29z"/>
<path class="st1" d="M1332.45,683.47h-68.84c-38.23,0-69.22-30.99-69.22-69.22l0-68.84h68.01c38.69,0,70.06,31.37,70.05,70.06
	L1332.45,683.47z"/>
<path class="st1" d="M800.75,838.22h-38.3c-21.27,0-38.51-17.24-38.51-38.51l0-38.3h37.84c21.53,0,38.98,17.45,38.97,38.98
	L800.75,838.22z"/>
<path class="st1" d="M1170.83,723.3h-19.86c-11.03,0-19.97-8.94-19.97-19.97l0-19.86h19.62c11.16,0,20.21,9.05,20.21,20.21
	L1170.83,723.3z"/>
<path class="st1" d="M844.54,184.83h-19.86c-11.03,0-19.97-8.94-19.97-19.97l0-19.86h19.62c11.16,0,20.21,9.05,20.21,20.21
	L844.54,184.83z"/>
<path class="st1" d="M1607.07,306.17h-25.01c-13.89,0-25.15-11.26-25.15-25.15l0-25.01h24.71c14.06,0,25.45,11.4,25.45,25.45
	L1607.07,306.17z"/>
<path class="st1" d="M629.72,117.17h-25.46c-14.14,0-25.6-11.46-25.6-25.6l0-25.46h25.15c14.31,0,25.91,11.6,25.91,25.91
	L629.72,117.17z"/>
<path class="st1" d="M1494.48,222.11h-38.43c-21.35,0-38.66-17.31-38.65-38.66l0-38.45h37.97c21.61,0,39.12,17.52,39.12,39.12
	L1494.48,222.11z"/>
<path class="st2" d="M1413.35,735.04h-25.33l0-25.85c0-13.93,11.29-25.22,25.22-25.22h0.51c13.99,0,25.33,11.34,25.33,25.33v0
	C1439.08,723.52,1427.56,735.04,1413.35,735.04z"/>
<path class="st2" d="M569.33,343.98h-16.81l0-17.15c0-9.24,7.49-16.73,16.73-16.73h0.34c9.28,0,16.81,7.53,16.81,16.81v0
	C586.41,336.34,578.76,343.98,569.33,343.98z"/>
<path class="st2" d="M723.6,227.21h-43.32l0-44.2c0-23.81,19.31-43.12,43.12-43.12h0.88c23.92,0,43.32,19.4,43.31,43.32v0
	C767.6,207.51,747.9,227.21,723.6,227.21z"/>
<path class="st2" d="M740.91,740.4h-16.97l0-17.31c0-9.33,7.56-16.89,16.89-16.89h0.34c9.37,0,16.97,7.6,16.97,16.97v0
	C758.14,732.68,750.43,740.4,740.91,740.4z"/>
<path class="st2" d="M511.27,420.49L511.27,420.49c-12.7,0-23-10.3-22.99-23v0c0-12.68,10.28-22.95,22.96-22.95h23l0,23
	C534.22,410.21,523.95,420.49,511.27,420.49z"/>
<path class="st2" d="M1487.94,327.04L1487.94,327.04c-12.7,0-23-10.3-22.99-23v0c0-12.68,10.28-22.95,22.96-22.95h23l0,23
	C1510.89,316.76,1500.61,327.04,1487.94,327.04z"/>
<path class="st2" d="M308.38,105.94L308.38,105.94c-26.82,0-48.55-21.74-48.55-48.55v0c0-26.77,21.7-48.47,48.47-48.47h48.55
	l-0.01,48.56C356.85,84.24,335.15,105.94,308.38,105.94z"/>
<path class="st2" d="M1662.33,48.5L1662.33,48.5c-13.41,0-24.27-10.87-24.27-24.27v0c0-13.38,10.85-24.23,24.23-24.23l24.27,0
	l0,24.28C1686.56,37.66,1675.71,48.5,1662.33,48.5z"/>
</svg>
